<svg width="20" height="20" viewBox="0 0 20 20" fill="none" xmlns="http://www.w3.org/2000/svg">
<path d="M0.296311 17.9705C-0.0942131 18.361 -0.0942131 18.9942 0.296311 19.3847C0.686836 19.7752 1.32 19.7752 1.71052 19.3847L0.296311 17.9705ZM19.6811 0.999944C19.6811 0.447659 19.2334 -5.58345e-05 18.6811 -5.60874e-05L9.68109 -5.66353e-05C9.1288 -5.56238e-05 8.68109 0.447659 8.68109 0.999944C8.68109 1.55223 9.1288 1.99994 9.68109 1.99994L17.6811 1.99994L17.6811 9.99994C17.6811 10.5522 18.1288 10.9999 18.6811 10.9999C19.2334 10.9999 19.6811 10.5522 19.6811 9.99994L19.6811 0.999944ZM1.71052 19.3847L19.3882 1.70705L17.974 0.292838L0.296311 17.9705L1.71052 19.3847Z" fill="white"/>
</svg>
