<svg width="316" height="140" viewBox="0 0 316 140" fill="none" xmlns="http://www.w3.org/2000/svg">
<g filter="url(#filter0_dd_11_638)">
<path d="M8 18C8 11.3726 13.3726 6 20 6H296C302.627 6 308 11.3726 308 18V118C308 124.627 302.627 130 296 130H20C13.3726 130 8 124.627 8 118V18Z" fill="white"/>
<rect x="36" y="36" width="64" height="64" rx="32" fill="#F2994A" fill-opacity="0.2"/>
<path d="M49.4084 73.1104C49.2728 73.1104 49.1391 73.0783 49.0183 73.0167L42.5268 69.673C42.3266 69.57 42.1754 69.3919 42.1061 69.1778C42.0369 68.9636 42.0552 68.7307 42.1571 68.53L49.7831 53.4671C49.8338 53.3671 49.9036 53.278 49.9888 53.2051C50.0739 53.1321 50.1725 53.0767 50.2791 53.0419C50.3857 53.0072 50.4981 52.9939 50.6099 53.0027C50.7216 53.0114 50.8305 53.0422 50.9304 53.0932L57.1059 56.2444C57.3042 56.3453 57.4551 56.5198 57.5264 56.7305C57.5978 56.9413 57.5838 57.1715 57.4875 57.3721L50.1766 72.6241C50.1272 72.7266 50.0579 72.8183 49.9726 72.8938C49.8873 72.9692 49.7879 73.0269 49.6801 73.0635C49.5926 73.0934 49.5009 73.1092 49.4084 73.1104ZM44.059 68.5453L49.0192 71.1004L55.5925 57.3883L50.9167 55.0035L44.059 68.5453Z" fill="#F39C12"/>
<path d="M58.2319 61.2583C58.0854 61.2583 57.9414 61.2204 57.8138 61.1484L55.3388 59.7542C55.2413 59.6994 55.1556 59.6259 55.0865 59.5379C55.0175 59.4499 54.9664 59.3492 54.9363 59.2414C54.9061 59.1337 54.8975 59.0211 54.9109 58.9101C54.9243 58.799 54.9594 58.6917 55.0143 58.5942C55.0691 58.4968 55.1427 58.4111 55.2306 58.342C55.3186 58.2729 55.4193 58.2219 55.5271 58.1917C55.6348 58.1616 55.7474 58.153 55.8584 58.1664C55.9695 58.1798 56.0768 58.2149 56.1743 58.2697L58.2183 59.4204C59.0163 58.9366 60.7436 57.895 61.8491 57.2707C63.6538 56.2487 64.9245 56.3892 66.3834 57.7715C66.5432 57.9278 66.6351 58.1406 66.6393 58.364C66.6436 58.5875 66.5598 58.8036 66.4062 58.9659C66.2525 59.1281 66.0413 59.2235 65.8179 59.2314C65.5946 59.2393 65.3771 59.1591 65.2124 59.0082C64.3062 58.1497 63.8343 58.1054 62.6871 58.7527C61.2665 59.5558 58.7038 61.1178 58.6774 61.1374C58.5429 61.2179 58.3887 61.2598 58.2319 61.2583Z" fill="#F39C12"/>
<path d="M80.6372 76.0768C80.0166 76.0927 79.4043 75.9311 78.8725 75.6109C78.0889 75.088 74.6413 71.7068 73.9583 71.0348C73.8077 70.8745 73.7249 70.6622 73.7273 70.4423C73.7298 70.2224 73.8172 70.0119 73.9712 69.855C74.1253 69.6981 74.3341 69.6068 74.5539 69.6003C74.7738 69.5939 74.9876 69.6727 75.1506 69.8203C76.6836 71.3338 79.3137 73.859 79.8153 74.1937C80.1386 74.3431 80.4962 74.4027 80.8505 74.3661C81.2048 74.3295 81.5427 74.1982 81.8287 73.9859C81.9626 73.8698 82.0694 73.7256 82.1415 73.5637C82.2136 73.4018 82.2493 73.226 82.2461 73.0487C82.2428 72.8715 82.2007 72.6971 82.1227 72.538C82.0447 72.3788 81.9327 72.2387 81.7946 72.1275C80.9242 71.1481 77.3079 67.6689 76.5142 66.9058C73.7444 65.8906 71.0585 64.6598 68.4811 63.2248L67.5851 63.8108C67.3839 64.7446 66.8472 65.5722 66.0767 66.1368C65.8063 66.3498 65.4923 66.5008 65.1571 66.5791C64.8218 66.6574 64.4734 66.6611 64.1366 66.5899C63.7279 66.5389 63.3343 66.4032 62.981 66.1915C62.6277 65.9797 62.3225 65.6965 62.0849 65.36C61.632 64.3923 61.5811 63.2846 61.9435 62.2795C62.67 59.3718 63.8487 58.6232 65.4797 57.5875L65.8383 57.3584C67.6353 56.2044 69.1777 55.5895 70.8709 56.3517C71.9236 56.8261 75.6599 58.2731 76.7211 58.6837L80.2778 57.5177C80.4908 57.4529 80.7208 57.4741 80.9184 57.5768C81.116 57.6796 81.2655 57.8556 81.3349 58.0672C81.4042 58.2788 81.388 58.5091 81.2896 58.7089C81.1912 58.9087 81.0184 59.062 80.8084 59.1359L76.963 60.3964C76.7768 60.4571 76.5754 60.4523 76.3924 60.3828C76.1905 60.3044 71.4398 58.4767 70.1751 57.9061C69.4162 57.5654 68.6148 57.6003 66.7615 58.791L66.3953 59.0252C64.9074 59.9697 64.1605 60.4449 63.5983 62.6925C63.3105 63.844 63.4433 64.3107 63.5481 64.4811C63.6827 64.7059 63.9944 64.7971 64.4909 64.9214C64.5975 64.9394 64.7067 64.9334 64.8107 64.9039C64.9147 64.8745 65.0109 64.8223 65.0922 64.7511C65.3324 64.5701 65.5331 64.3418 65.6817 64.0804C65.8304 63.8189 65.924 63.5298 65.9567 63.2308C65.9678 63.1024 66.0079 62.9782 66.074 62.8676C66.1401 62.7569 66.2304 62.6627 66.3382 62.592L67.9777 61.5198C68.1069 61.4357 68.2565 61.3883 68.4106 61.3826C68.5646 61.3769 68.7173 61.4131 68.8524 61.4874C68.9103 61.5189 74.6524 64.6591 77.1674 65.32C77.3072 65.3573 77.4355 65.4291 77.5404 65.5287C77.7244 65.705 82.0544 69.851 83.0713 70.9982C83.3531 71.2709 83.5765 71.5981 83.7281 71.9598C83.8796 72.3215 83.9561 72.7102 83.9529 73.1023C83.9497 73.4945 83.8669 73.8819 83.7095 74.2411C83.5521 74.6003 83.3234 74.9238 83.0372 75.1919C82.3819 75.7864 81.5216 76.1036 80.6372 76.0768Z" fill="#F39C12"/>
<path d="M82.4343 72.4137C82.2392 72.4136 82.05 72.3464 81.8984 72.2235C81.7469 72.1005 81.6421 71.9293 81.6017 71.7383C81.5613 71.5474 81.5877 71.3484 81.6765 71.1746C81.7653 71.0008 81.911 70.8627 82.0894 70.7836L85.0771 69.4601C85.1798 69.4116 85.2912 69.3841 85.4046 69.3793C85.5181 69.3744 85.6314 69.3924 85.7378 69.432C85.8443 69.4716 85.9417 69.5321 86.0244 69.6099C86.1071 69.6877 86.1734 69.7813 86.2195 69.8852C86.2655 69.989 86.2902 70.101 86.2923 70.2145C86.2944 70.3281 86.2738 70.4409 86.2316 70.5464C86.1895 70.6518 86.1266 70.7478 86.0468 70.8286C85.967 70.9094 85.8719 70.9734 85.767 71.0169L82.7784 72.3439C82.6698 72.3908 82.5526 72.4146 82.4343 72.4137Z" fill="#F39C12"/>
<path d="M86.3409 73.1104C86.1712 73.1103 86.0053 73.0595 85.8646 72.9645C85.724 72.8695 85.6149 72.7346 85.5514 72.5772L79.1229 56.6285C79.0799 56.5222 79.0589 56.4082 79.061 56.2935C79.0632 56.1789 79.0885 56.0658 79.1354 55.9611C79.1823 55.8564 79.2499 55.7623 79.3341 55.6844C79.4183 55.6065 79.5174 55.5464 79.6254 55.5077L86.4951 53.0498C86.7029 52.9754 86.9314 52.9847 87.1326 53.0755C87.3337 53.1664 87.4917 53.3318 87.5733 53.5369L93.8758 69.3561C93.917 69.4607 93.9371 69.5724 93.935 69.6848C93.9328 69.7972 93.9084 69.9081 93.8632 70.011C93.818 70.114 93.7529 70.2069 93.6716 70.2845C93.5903 70.3622 93.4944 70.4229 93.3895 70.4633L86.6458 73.0508C86.5487 73.0892 86.4453 73.1094 86.3409 73.1104ZM81.0315 56.8125L86.8153 71.1609L91.9714 69.1849L86.2949 54.9303L81.0315 56.8125ZM76.8003 78.66C76.0982 78.681 75.4126 78.4451 74.8721 77.9965C73.7317 76.983 70.8002 74.0532 70.6758 73.9288C70.5207 73.7682 70.4349 73.5531 70.4368 73.3298C70.4387 73.1065 70.5283 72.8928 70.6862 72.7349C70.8441 72.577 71.0577 72.4875 71.2811 72.4855C71.5044 72.4836 71.7195 72.5694 71.8801 72.7246C71.9099 72.7544 74.9011 75.7438 76.0031 76.7275C76.2316 76.8667 76.4902 76.9486 76.7571 76.9664C77.024 76.9842 77.2913 76.9373 77.5362 76.8297C77.9361 76.6933 78.2909 76.4496 78.5618 76.1254C78.8328 75.8011 79.0095 75.4087 79.0726 74.9909C79.0916 74.8807 79.1322 74.7753 79.1919 74.6807C79.2517 74.5862 79.3295 74.5043 79.4208 74.4398C79.5122 74.3753 79.6154 74.3294 79.7245 74.3048C79.8336 74.2802 79.9465 74.2773 80.0567 74.2963C80.167 74.3154 80.2724 74.3559 80.3669 74.4156C80.4615 74.4754 80.5433 74.5532 80.6078 74.6446C80.6723 74.7359 80.7182 74.8391 80.7428 74.9482C80.7674 75.0574 80.7703 75.1702 80.7513 75.2805C80.6355 75.996 80.3281 76.6667 79.8618 77.2216C79.3954 77.7764 78.7875 78.1946 78.1026 78.4317C77.6843 78.5802 77.2441 78.6573 76.8003 78.66Z" fill="#F39C12"/>
<path d="M72.8367 80.7244C72.136 80.7543 71.4513 80.5099 70.928 80.0431L67.9028 77.0179L69.108 75.8128L72.1332 78.838C72.3204 78.9431 72.5275 79.0077 72.7413 79.0277C72.9551 79.0476 73.1706 79.0225 73.3741 78.9538C73.7648 78.8579 74.1225 78.6587 74.4099 78.3772C74.6972 78.0957 74.9037 77.7421 75.0076 77.3535C75.0391 77.2451 75.0918 77.144 75.1627 77.0561C75.2336 76.9683 75.3213 76.8954 75.4206 76.8418C75.52 76.7881 75.629 76.7547 75.7413 76.7436C75.8537 76.7324 75.9671 76.7437 76.075 76.7768C76.183 76.8099 76.2833 76.8641 76.3701 76.9363C76.4569 77.0085 76.5284 77.0972 76.5806 77.1973C76.6328 77.2974 76.6646 77.4069 76.6741 77.5194C76.6836 77.6319 76.6707 77.7451 76.636 77.8526C76.3991 78.6779 75.9007 79.4041 75.2157 79.922C74.5307 80.4399 73.6954 80.7215 72.8367 80.7244Z" fill="#F39C12"/>
<path d="M69.5899 82.9993C68.8937 83.0141 68.2128 82.7936 67.6575 82.3733C66.8902 81.7591 66.1194 81.1492 65.3451 80.5439C65.2552 80.4757 65.1796 80.3903 65.1229 80.2927C65.0663 80.1951 65.0296 80.0871 65.015 79.9752C65.0004 79.8632 65.0082 79.7495 65.0379 79.6406C65.0677 79.5317 65.1188 79.4298 65.1883 79.3408C65.2578 79.2518 65.3443 79.1776 65.4427 79.1223C65.5412 79.0671 65.6497 79.0319 65.7618 79.019C65.874 79.0061 65.9876 79.0155 66.096 79.0469C66.2045 79.0782 66.3056 79.1308 66.3936 79.2016C66.3936 79.2016 67.4573 80.032 68.7221 81.0438C68.9915 81.2042 69.298 81.2919 69.6115 81.2983C69.925 81.3047 70.2348 81.2297 70.5106 81.0805C70.7572 80.9744 70.9659 80.7962 71.1091 80.5692C71.2523 80.3422 71.3234 80.0771 71.3129 79.8089C71.306 79.5831 71.3891 79.3639 71.5439 79.1994C71.6986 79.0348 71.9124 78.9386 72.1382 78.9317C72.3633 78.9277 72.581 79.0118 72.7449 79.1662C72.9088 79.3205 73.0059 79.5329 73.0154 79.7578C73.0355 80.351 72.8809 80.9371 72.5708 81.4433C72.2607 81.9495 71.8088 82.3534 71.2712 82.605C70.7485 82.8637 70.1732 82.9987 69.5899 82.9993Z" fill="#F39C12"/>
<path d="M63.2074 82.605C62.9306 82.604 62.6566 82.549 62.4009 82.4431C61.7064 82.1024 61.1339 81.5557 60.7614 80.8777C60.1569 80.995 59.5306 80.9009 58.9873 80.6112C58.5316 80.3125 58.1399 79.9261 57.8348 79.4746C57.5298 79.0231 57.3177 78.5154 57.2107 77.9812C57.1658 77.7636 57.2077 77.5372 57.3274 77.3501C58.0198 76.2701 59.064 74.5915 59.2198 74.2414C59.3601 73.9621 59.559 73.7165 59.803 73.5213C60.047 73.3261 60.3304 73.1859 60.6336 73.1104C61.0461 73.0023 61.4775 72.9878 61.8963 73.0679C62.3151 73.1481 62.7107 73.3209 63.0541 73.5737C63.4347 73.8256 63.7403 74.1755 63.9387 74.5865C64.1372 74.9974 64.2211 75.4543 64.1817 75.909C64.5868 75.9265 64.9835 76.0306 65.3449 76.2144C65.7064 76.3982 66.0242 76.6574 66.2769 76.9745C66.5224 77.3581 66.6791 77.7917 66.7355 78.2436C66.7919 78.6956 66.7467 79.1544 66.6031 79.5866C66.1564 80.8334 65.2392 81.8557 64.048 82.4346C63.782 82.5471 63.4962 82.605 63.2074 82.605ZM62.1956 79.9469C62.463 80.3991 62.9408 81.0481 63.388 80.8616C64.1303 80.4749 64.7019 79.8254 64.9908 79.0398C65.0477 78.866 65.0695 78.6826 65.0548 78.5002C65.0402 78.3179 64.9895 78.1403 64.9057 77.9778C64.7761 77.8509 64.6223 77.7514 64.4534 77.6852C64.2846 77.6191 64.1041 77.5877 63.9228 77.5928L62.1956 79.9469ZM58.9669 77.9454C59.1024 78.4186 59.3961 78.8311 59.799 79.1139C59.9247 79.1784 60.0624 79.2165 60.2035 79.2257C60.3446 79.235 60.486 79.2152 60.6191 79.1676L62.4375 76.0504C62.5098 75.8578 62.5144 75.6463 62.4506 75.4507C62.3869 75.255 62.2585 75.0869 62.0866 74.9739C61.9558 74.8708 61.8049 74.7962 61.6435 74.755C61.4822 74.7138 61.314 74.7068 61.1497 74.7345C61.0048 74.7584 60.8724 74.8315 60.775 74.9415C60.5502 75.4397 59.4685 77.1567 58.9669 77.9454Z" fill="#F39C12"/>
<path d="M56.698 79.2757C56.4962 79.2763 56.2954 79.2476 56.1018 79.1906C54.6429 78.7519 54.0714 76.8629 54.0109 76.6491C53.9804 76.5407 53.9716 76.4273 53.9852 76.3154C53.9988 76.2036 54.0345 76.0955 54.0901 75.9976C54.814 74.7401 55.6147 73.5284 56.4876 72.3694C56.9258 71.7993 57.5608 71.413 58.2685 71.2859C58.9762 71.1588 59.7059 71.3001 60.3151 71.6821C61.1191 72.2399 61.7084 73.4536 60.7222 75.0394C60.6632 75.1345 60.5861 75.217 60.4952 75.2823C60.4043 75.3475 60.3014 75.3942 60.1925 75.4197C60.0835 75.4453 59.9706 75.449 59.8602 75.4309C59.7498 75.4128 59.6441 75.3731 59.549 75.3141C59.4539 75.2551 59.3714 75.178 59.3062 75.0871C59.2409 74.9962 59.1942 74.8933 59.1687 74.7844C59.1432 74.6754 59.1394 74.5626 59.1575 74.4521C59.1756 74.3417 59.2153 74.236 59.2743 74.1409C59.4932 73.7875 59.6831 73.3182 59.3433 73.0823C59.095 72.9466 58.8061 72.9048 58.5295 72.9646C58.2528 73.0243 58.0069 73.1815 57.8367 73.4076C57.0885 74.4018 56.3961 75.4367 55.7628 76.5077C55.9493 76.9532 56.267 77.4633 56.5915 77.5596C56.8785 77.6447 57.2729 77.3501 57.4866 77.1678C57.6576 77.0201 57.8803 76.9463 58.1057 76.9628C58.331 76.9792 58.5406 77.0845 58.6884 77.2555C58.8361 77.4265 58.9098 77.6492 58.8934 77.8746C58.8769 78.0999 58.7716 78.3095 58.6006 78.4573C58.0886 78.9546 57.4112 79.246 56.698 79.2757Z" fill="#F39C12"/>
<path d="M54.8286 77.2666C54.735 77.2665 54.6421 77.251 54.5535 77.2206C54.4096 77.1721 51.0148 75.9857 51.0148 73.3267C51.0147 73.2374 51.0285 73.1486 51.0557 73.0635C51.3638 72.2154 51.7859 71.4132 52.3102 70.6788C52.7004 70.2126 53.2393 69.895 53.8362 69.7796C54.4331 69.6642 55.0516 69.758 55.5875 70.0452C56.0919 70.2687 56.4942 70.6732 56.715 71.1789C56.9357 71.6846 56.9589 72.2546 56.7798 72.7765C56.2228 74.5702 55.6514 76.6202 55.6454 76.6415C55.5954 76.8205 55.4881 76.9783 55.34 77.0907C55.192 77.2032 55.0111 77.264 54.8252 77.2641L54.8286 77.2666ZM52.725 73.4587C52.8101 74.2559 53.626 74.8623 54.2801 75.226C54.5024 74.4492 54.832 73.319 55.1557 72.274C55.1854 72.2076 55.2006 72.1357 55.2002 72.063C55.1999 71.9902 55.1841 71.9184 55.1537 71.8523C55.1234 71.7862 55.0793 71.7273 55.0245 71.6796C54.9696 71.6319 54.9051 71.5964 54.8354 71.5756C54.6595 71.4764 54.458 71.4315 54.2566 71.4466C54.0551 71.4618 53.8627 71.5363 53.7035 71.6608C53.3087 72.2201 52.9803 72.8235 52.725 73.4587Z" fill="#F39C12"/>
<path d="M52.5657 72.7092C52.3942 72.709 52.2268 72.6571 52.0853 72.5602L49.8514 71.0272C49.6649 70.8995 49.5368 70.7031 49.4952 70.481C49.4536 70.2589 49.5019 70.0293 49.6295 69.8429C49.7571 69.6564 49.9536 69.5283 50.1757 69.4867C50.3978 69.4451 50.6273 69.4934 50.8138 69.621L53.0477 71.1541C53.1982 71.2567 53.3118 71.405 53.3718 71.577C53.4318 71.749 53.4351 71.9357 53.3812 72.1097C53.3272 72.2837 53.2189 72.4358 53.0722 72.5437C52.9254 72.6517 52.7479 72.7097 52.5657 72.7092Z" fill="#F39C12"/>
<path d="M133.35 41.928C135.503 41.928 137.317 42.3927 138.79 43.322C140.286 44.2513 141.419 45.6 142.19 47.368C142.961 49.1133 143.346 51.2553 143.346 53.794C143.346 56.4913 142.87 58.7693 141.918 60.628C140.966 62.4867 139.651 63.892 137.974 64.844C136.297 65.796 134.336 66.272 132.092 66.272C130.981 66.272 129.905 66.1587 128.862 65.932C127.842 65.7053 126.947 65.354 126.176 64.878L127.468 62.226C128.103 62.634 128.805 62.9287 129.576 63.11C130.369 63.2687 131.197 63.348 132.058 63.348C134.461 63.348 136.376 62.6 137.804 61.104C139.232 59.5853 139.946 57.3413 139.946 54.372C139.946 53.896 139.923 53.3293 139.878 52.672C139.833 52.0147 139.731 51.3687 139.572 50.734L140.694 51.89C140.377 52.9327 139.844 53.8167 139.096 54.542C138.371 55.2447 137.487 55.7773 136.444 56.14C135.424 56.48 134.302 56.65 133.078 56.65C131.514 56.65 130.12 56.3553 128.896 55.766C127.672 55.1767 126.709 54.3493 126.006 53.284C125.303 52.196 124.952 50.9153 124.952 49.442C124.952 47.9007 125.315 46.5747 126.04 45.464C126.788 44.3307 127.797 43.458 129.066 42.846C130.358 42.234 131.786 41.928 133.35 41.928ZM133.486 44.682C132.466 44.682 131.559 44.8747 130.766 45.26C129.973 45.6453 129.349 46.178 128.896 46.858C128.465 47.538 128.25 48.354 128.25 49.306C128.25 50.7113 128.737 51.8333 129.712 52.672C130.687 53.488 132.001 53.896 133.656 53.896C134.744 53.896 135.696 53.692 136.512 53.284C137.351 52.876 137.997 52.3207 138.45 51.618C138.926 50.9153 139.164 50.1333 139.164 49.272C139.164 48.4333 138.949 47.674 138.518 46.994C138.087 46.314 137.453 45.7587 136.614 45.328C135.775 44.8973 134.733 44.682 133.486 44.682ZM154.334 41.928C156.488 41.928 158.301 42.3927 159.774 43.322C161.27 44.2513 162.404 45.6 163.174 47.368C163.945 49.1133 164.33 51.2553 164.33 53.794C164.33 56.4913 163.854 58.7693 162.902 60.628C161.95 62.4867 160.636 63.892 158.958 64.844C157.281 65.796 155.32 66.272 153.076 66.272C151.966 66.272 150.889 66.1587 149.846 65.932C148.826 65.7053 147.931 65.354 147.16 64.878L148.452 62.226C149.087 62.634 149.79 62.9287 150.56 63.11C151.354 63.2687 152.181 63.348 153.042 63.348C155.445 63.348 157.36 62.6 158.788 61.104C160.216 59.5853 160.93 57.3413 160.93 54.372C160.93 53.896 160.908 53.3293 160.862 52.672C160.817 52.0147 160.715 51.3687 160.556 50.734L161.678 51.89C161.361 52.9327 160.828 53.8167 160.08 54.542C159.355 55.2447 158.471 55.7773 157.428 56.14C156.408 56.48 155.286 56.65 154.062 56.65C152.498 56.65 151.104 56.3553 149.88 55.766C148.656 55.1767 147.693 54.3493 146.99 53.284C146.288 52.196 145.936 50.9153 145.936 49.442C145.936 47.9007 146.299 46.5747 147.024 45.464C147.772 44.3307 148.781 43.458 150.05 42.846C151.342 42.234 152.77 41.928 154.334 41.928ZM154.47 44.682C153.45 44.682 152.544 44.8747 151.75 45.26C150.957 45.6453 150.334 46.178 149.88 46.858C149.45 47.538 149.234 48.354 149.234 49.306C149.234 50.7113 149.722 51.8333 150.696 52.672C151.671 53.488 152.986 53.896 154.64 53.896C155.728 53.896 156.68 53.692 157.496 53.284C158.335 52.876 158.981 52.3207 159.434 51.618C159.91 50.9153 160.148 50.1333 160.148 49.272C160.148 48.4333 159.933 47.674 159.502 46.994C159.072 46.314 158.437 45.7587 157.598 45.328C156.76 44.8973 155.717 44.682 154.47 44.682ZM179.996 66L196.248 42.2H198.866L182.614 66H179.996ZM181.9 54.984C180.812 54.984 179.848 54.712 179.01 54.168C178.171 53.624 177.514 52.8647 177.038 51.89C176.584 50.9153 176.358 49.782 176.358 48.49C176.358 47.198 176.584 46.0647 177.038 45.09C177.514 44.1153 178.171 43.356 179.01 42.812C179.848 42.268 180.812 41.996 181.9 41.996C183.01 41.996 183.974 42.268 184.79 42.812C185.628 43.356 186.274 44.1153 186.728 45.09C187.181 46.0647 187.408 47.198 187.408 48.49C187.408 49.782 187.181 50.9153 186.728 51.89C186.274 52.8647 185.628 53.624 184.79 54.168C183.974 54.712 183.01 54.984 181.9 54.984ZM181.9 53.046C182.942 53.046 183.758 52.6493 184.348 51.856C184.937 51.04 185.232 49.918 185.232 48.49C185.232 47.062 184.937 45.9513 184.348 45.158C183.758 44.342 182.942 43.934 181.9 43.934C180.88 43.934 180.064 44.342 179.452 45.158C178.862 45.9513 178.568 47.062 178.568 48.49C178.568 49.8953 178.862 51.006 179.452 51.822C180.064 52.638 180.88 53.046 181.9 53.046ZM196.962 66.204C195.874 66.204 194.91 65.932 194.072 65.388C193.233 64.844 192.587 64.0847 192.134 63.11C191.68 62.1353 191.454 61.002 191.454 59.71C191.454 58.418 191.68 57.2847 192.134 56.31C192.587 55.3353 193.233 54.576 194.072 54.032C194.91 53.488 195.874 53.216 196.962 53.216C198.072 53.216 199.036 53.488 199.852 54.032C200.69 54.576 201.336 55.3353 201.79 56.31C202.266 57.2847 202.504 58.418 202.504 59.71C202.504 61.002 202.266 62.1353 201.79 63.11C201.336 64.0847 200.69 64.844 199.852 65.388C199.036 65.932 198.072 66.204 196.962 66.204ZM196.962 64.266C197.982 64.266 198.786 63.8693 199.376 63.076C199.988 62.26 200.294 61.138 200.294 59.71C200.294 58.3047 199.988 57.194 199.376 56.378C198.786 55.562 197.982 55.154 196.962 55.154C195.942 55.154 195.126 55.562 194.514 56.378C193.924 57.1713 193.63 58.282 193.63 59.71C193.63 61.138 193.924 62.26 194.514 63.076C195.126 63.8693 195.942 64.266 196.962 64.266Z" fill="black"/>
<path d="M130.27 95.12C129.47 95.12 128.73 94.99 128.05 94.73C127.38 94.46 126.795 94.085 126.295 93.605C125.805 93.115 125.42 92.545 125.14 91.895C124.86 91.245 124.72 90.53 124.72 89.75C124.72 88.97 124.86 88.255 125.14 87.605C125.42 86.955 125.81 86.39 126.31 85.91C126.81 85.42 127.395 85.045 128.065 84.785C128.745 84.515 129.485 84.38 130.285 84.38C131.095 84.38 131.84 84.52 132.52 84.8C133.21 85.07 133.795 85.475 134.275 86.015L133.3 86.96C132.9 86.54 132.45 86.23 131.95 86.03C131.45 85.82 130.915 85.715 130.345 85.715C129.755 85.715 129.205 85.815 128.695 86.015C128.195 86.215 127.76 86.495 127.39 86.855C127.02 87.215 126.73 87.645 126.52 88.145C126.32 88.635 126.22 89.17 126.22 89.75C126.22 90.33 126.32 90.87 126.52 91.37C126.73 91.86 127.02 92.285 127.39 92.645C127.76 93.005 128.195 93.285 128.695 93.485C129.205 93.685 129.755 93.785 130.345 93.785C130.915 93.785 131.45 93.685 131.95 93.485C132.45 93.275 132.9 92.955 133.3 92.525L134.275 93.47C133.795 94.01 133.21 94.42 132.52 94.7C131.84 94.98 131.09 95.12 130.27 95.12ZM139.301 95.09C138.621 95.09 138.021 94.965 137.501 94.715C136.991 94.465 136.591 94.085 136.301 93.575C136.021 93.055 135.881 92.405 135.881 91.625V87.05H137.321V91.46C137.321 92.24 137.506 92.825 137.876 93.215C138.256 93.605 138.786 93.8 139.466 93.8C139.966 93.8 140.401 93.7 140.771 93.5C141.141 93.29 141.426 92.99 141.626 92.6C141.826 92.2 141.926 91.72 141.926 91.16V87.05H143.366V95H142.001V92.855L142.226 93.425C141.966 93.955 141.576 94.365 141.056 94.655C140.536 94.945 139.951 95.09 139.301 95.09ZM148.387 95.09C147.727 95.09 147.097 95 146.497 94.82C145.907 94.64 145.442 94.42 145.102 94.16L145.702 93.02C146.042 93.25 146.462 93.445 146.962 93.605C147.462 93.765 147.972 93.845 148.492 93.845C149.162 93.845 149.642 93.75 149.932 93.56C150.232 93.37 150.382 93.105 150.382 92.765C150.382 92.515 150.292 92.32 150.112 92.18C149.932 92.04 149.692 91.935 149.392 91.865C149.102 91.795 148.777 91.735 148.417 91.685C148.057 91.625 147.697 91.555 147.337 91.475C146.977 91.385 146.647 91.265 146.347 91.115C146.047 90.955 145.807 90.74 145.627 90.47C145.447 90.19 145.357 89.82 145.357 89.36C145.357 88.88 145.492 88.46 145.762 88.1C146.032 87.74 146.412 87.465 146.902 87.275C147.402 87.075 147.992 86.975 148.672 86.975C149.192 86.975 149.717 87.04 150.247 87.17C150.787 87.29 151.227 87.465 151.567 87.695L150.952 88.835C150.592 88.595 150.217 88.43 149.827 88.34C149.437 88.25 149.047 88.205 148.657 88.205C148.027 88.205 147.557 88.31 147.247 88.52C146.937 88.72 146.782 88.98 146.782 89.3C146.782 89.57 146.872 89.78 147.052 89.93C147.242 90.07 147.482 90.18 147.772 90.26C148.072 90.34 148.402 90.41 148.762 90.47C149.122 90.52 149.482 90.59 149.842 90.68C150.202 90.76 150.527 90.875 150.817 91.025C151.117 91.175 151.357 91.385 151.537 91.655C151.727 91.925 151.822 92.285 151.822 92.735C151.822 93.215 151.682 93.63 151.402 93.98C151.122 94.33 150.727 94.605 150.217 94.805C149.707 94.995 149.097 95.09 148.387 95.09ZM156.352 95.09C155.552 95.09 154.932 94.875 154.492 94.445C154.052 94.015 153.832 93.4 153.832 92.6V85.31H155.272V92.54C155.272 92.97 155.377 93.3 155.587 93.53C155.807 93.76 156.117 93.875 156.517 93.875C156.967 93.875 157.342 93.75 157.642 93.5L158.092 94.535C157.872 94.725 157.607 94.865 157.297 94.955C156.997 95.045 156.682 95.09 156.352 95.09ZM152.482 88.235V87.05H157.552V88.235H152.482ZM162.974 95.09C162.174 95.09 161.464 94.915 160.844 94.565C160.224 94.215 159.734 93.735 159.374 93.125C159.014 92.505 158.834 91.805 158.834 91.025C158.834 90.235 159.014 89.535 159.374 88.925C159.734 88.315 160.224 87.84 160.844 87.5C161.464 87.15 162.174 86.975 162.974 86.975C163.764 86.975 164.469 87.15 165.089 87.5C165.719 87.84 166.209 88.315 166.559 88.925C166.919 89.525 167.099 90.225 167.099 91.025C167.099 91.815 166.919 92.515 166.559 93.125C166.209 93.735 165.719 94.215 165.089 94.565C164.469 94.915 163.764 95.09 162.974 95.09ZM162.974 93.83C163.484 93.83 163.939 93.715 164.339 93.485C164.749 93.255 165.069 92.93 165.299 92.51C165.529 92.08 165.644 91.585 165.644 91.025C165.644 90.455 165.529 89.965 165.299 89.555C165.069 89.135 164.749 88.81 164.339 88.58C163.939 88.35 163.484 88.235 162.974 88.235C162.464 88.235 162.009 88.35 161.609 88.58C161.209 88.81 160.889 89.135 160.649 89.555C160.409 89.965 160.289 90.455 160.289 91.025C160.289 91.585 160.409 92.08 160.649 92.51C160.889 92.93 161.209 93.255 161.609 93.485C162.009 93.715 162.464 93.83 162.974 93.83ZM179.036 86.975C179.676 86.975 180.241 87.1 180.731 87.35C181.221 87.6 181.601 87.98 181.871 88.49C182.151 89 182.291 89.645 182.291 90.425V95H180.851V90.59C180.851 89.82 180.671 89.24 180.311 88.85C179.951 88.46 179.446 88.265 178.796 88.265C178.316 88.265 177.896 88.365 177.536 88.565C177.176 88.765 176.896 89.06 176.696 89.45C176.506 89.84 176.411 90.325 176.411 90.905V95H174.971V90.59C174.971 89.82 174.791 89.24 174.431 88.85C174.081 88.46 173.576 88.265 172.916 88.265C172.446 88.265 172.031 88.365 171.671 88.565C171.311 88.765 171.031 89.06 170.831 89.45C170.631 89.84 170.531 90.325 170.531 90.905V95H169.091V87.05H170.471V89.165L170.246 88.625C170.496 88.105 170.881 87.7 171.401 87.41C171.921 87.12 172.526 86.975 173.216 86.975C173.976 86.975 174.631 87.165 175.181 87.545C175.731 87.915 176.091 88.48 176.261 89.24L175.676 89C175.916 88.39 176.336 87.9 176.936 87.53C177.536 87.16 178.236 86.975 179.036 86.975ZM188.48 95.09C187.63 95.09 186.88 94.915 186.23 94.565C185.59 94.215 185.09 93.735 184.73 93.125C184.38 92.515 184.205 91.815 184.205 91.025C184.205 90.235 184.375 89.535 184.715 88.925C185.065 88.315 185.54 87.84 186.14 87.5C186.75 87.15 187.435 86.975 188.195 86.975C188.965 86.975 189.645 87.145 190.235 87.485C190.825 87.825 191.285 88.305 191.615 88.925C191.955 89.535 192.125 90.25 192.125 91.07C192.125 91.13 192.12 91.2 192.11 91.28C192.11 91.36 192.105 91.435 192.095 91.505H185.33V90.47H191.345L190.76 90.83C190.77 90.32 190.665 89.865 190.445 89.465C190.225 89.065 189.92 88.755 189.53 88.535C189.15 88.305 188.705 88.19 188.195 88.19C187.695 88.19 187.25 88.305 186.86 88.535C186.47 88.755 186.165 89.07 185.945 89.48C185.725 89.88 185.615 90.34 185.615 90.86V91.1C185.615 91.63 185.735 92.105 185.975 92.525C186.225 92.935 186.57 93.255 187.01 93.485C187.45 93.715 187.955 93.83 188.525 93.83C188.995 93.83 189.42 93.75 189.8 93.59C190.19 93.43 190.53 93.19 190.82 92.87L191.615 93.8C191.255 94.22 190.805 94.54 190.265 94.76C189.735 94.98 189.14 95.09 188.48 95.09ZM194.125 95V87.05H195.505V89.21L195.37 88.67C195.59 88.12 195.96 87.7 196.48 87.41C197 87.12 197.64 86.975 198.4 86.975V88.37C198.34 88.36 198.28 88.355 198.22 88.355C198.17 88.355 198.12 88.355 198.07 88.355C197.3 88.355 196.69 88.585 196.24 89.045C195.79 89.505 195.565 90.17 195.565 91.04V95H194.125ZM207.575 95.12C206.775 95.12 206.01 95 205.28 94.76C204.55 94.51 203.975 94.19 203.555 93.8L204.11 92.63C204.51 92.98 205.02 93.27 205.64 93.5C206.26 93.73 206.905 93.845 207.575 93.845C208.185 93.845 208.68 93.775 209.06 93.635C209.44 93.495 209.72 93.305 209.9 93.065C210.08 92.815 210.17 92.535 210.17 92.225C210.17 91.865 210.05 91.575 209.81 91.355C209.58 91.135 209.275 90.96 208.895 90.83C208.525 90.69 208.115 90.57 207.665 90.47C207.215 90.37 206.76 90.255 206.3 90.125C205.85 89.985 205.435 89.81 205.055 89.6C204.685 89.39 204.385 89.11 204.155 88.76C203.925 88.4 203.81 87.94 203.81 87.38C203.81 86.84 203.95 86.345 204.23 85.895C204.52 85.435 204.96 85.07 205.55 84.8C206.15 84.52 206.91 84.38 207.83 84.38C208.44 84.38 209.045 84.46 209.645 84.62C210.245 84.78 210.765 85.01 211.205 85.31L210.71 86.51C210.26 86.21 209.785 85.995 209.285 85.865C208.785 85.725 208.3 85.655 207.83 85.655C207.24 85.655 206.755 85.73 206.375 85.88C205.995 86.03 205.715 86.23 205.535 86.48C205.365 86.73 205.28 87.01 205.28 87.32C205.28 87.69 205.395 87.985 205.625 88.205C205.865 88.425 206.17 88.6 206.54 88.73C206.92 88.86 207.335 88.98 207.785 89.09C208.235 89.19 208.685 89.305 209.135 89.435C209.595 89.565 210.01 89.735 210.38 89.945C210.76 90.155 211.065 90.435 211.295 90.785C211.525 91.135 211.64 91.585 211.64 92.135C211.64 92.665 211.495 93.16 211.205 93.62C210.915 94.07 210.465 94.435 209.855 94.715C209.255 94.985 208.495 95.12 207.575 95.12ZM218.557 95V93.32L218.482 93.005V90.14C218.482 89.53 218.302 89.06 217.942 88.73C217.592 88.39 217.062 88.22 216.352 88.22C215.882 88.22 215.422 88.3 214.972 88.46C214.522 88.61 214.142 88.815 213.832 89.075L213.232 87.995C213.642 87.665 214.132 87.415 214.702 87.245C215.282 87.065 215.887 86.975 216.517 86.975C217.607 86.975 218.447 87.24 219.037 87.77C219.627 88.3 219.922 89.11 219.922 90.2V95H218.557ZM215.947 95.09C215.357 95.09 214.837 94.99 214.387 94.79C213.947 94.59 213.607 94.315 213.367 93.965C213.127 93.605 213.007 93.2 213.007 92.75C213.007 92.32 213.107 91.93 213.307 91.58C213.517 91.23 213.852 90.95 214.312 90.74C214.782 90.53 215.412 90.425 216.202 90.425H218.722V91.46H216.262C215.542 91.46 215.057 91.58 214.807 91.82C214.557 92.06 214.432 92.35 214.432 92.69C214.432 93.08 214.587 93.395 214.897 93.635C215.207 93.865 215.637 93.98 216.187 93.98C216.727 93.98 217.197 93.86 217.597 93.62C218.007 93.38 218.302 93.03 218.482 92.57L218.767 93.56C218.577 94.03 218.242 94.405 217.762 94.685C217.282 94.955 216.677 95.09 215.947 95.09ZM225.317 95.09C224.517 95.09 223.897 94.875 223.457 94.445C223.017 94.015 222.797 93.4 222.797 92.6V85.31H224.237V92.54C224.237 92.97 224.342 93.3 224.552 93.53C224.772 93.76 225.082 93.875 225.482 93.875C225.932 93.875 226.307 93.75 226.607 93.5L227.057 94.535C226.837 94.725 226.572 94.865 226.262 94.955C225.962 95.045 225.647 95.09 225.317 95.09ZM221.447 88.235V87.05H226.517V88.235H221.447ZM228.798 95V87.05H230.238V95H228.798ZM229.518 85.52C229.238 85.52 229.003 85.43 228.813 85.25C228.633 85.07 228.543 84.85 228.543 84.59C228.543 84.32 228.633 84.095 228.813 83.915C229.003 83.735 229.238 83.645 229.518 83.645C229.798 83.645 230.028 83.735 230.208 83.915C230.398 84.085 230.493 84.3 230.493 84.56C230.493 84.83 230.403 85.06 230.223 85.25C230.043 85.43 229.808 85.52 229.518 85.52ZM235.267 95.09C234.607 95.09 233.977 95 233.377 94.82C232.787 94.64 232.322 94.42 231.982 94.16L232.582 93.02C232.922 93.25 233.342 93.445 233.842 93.605C234.342 93.765 234.852 93.845 235.372 93.845C236.042 93.845 236.522 93.75 236.812 93.56C237.112 93.37 237.262 93.105 237.262 92.765C237.262 92.515 237.172 92.32 236.992 92.18C236.812 92.04 236.572 91.935 236.272 91.865C235.982 91.795 235.657 91.735 235.297 91.685C234.937 91.625 234.577 91.555 234.217 91.475C233.857 91.385 233.527 91.265 233.227 91.115C232.927 90.955 232.687 90.74 232.507 90.47C232.327 90.19 232.237 89.82 232.237 89.36C232.237 88.88 232.372 88.46 232.642 88.1C232.912 87.74 233.292 87.465 233.782 87.275C234.282 87.075 234.872 86.975 235.552 86.975C236.072 86.975 236.597 87.04 237.127 87.17C237.667 87.29 238.107 87.465 238.447 87.695L237.832 88.835C237.472 88.595 237.097 88.43 236.707 88.34C236.317 88.25 235.927 88.205 235.537 88.205C234.907 88.205 234.437 88.31 234.127 88.52C233.817 88.72 233.662 88.98 233.662 89.3C233.662 89.57 233.752 89.78 233.932 89.93C234.122 90.07 234.362 90.18 234.652 90.26C234.952 90.34 235.282 90.41 235.642 90.47C236.002 90.52 236.362 90.59 236.722 90.68C237.082 90.76 237.407 90.875 237.697 91.025C237.997 91.175 238.237 91.385 238.417 91.655C238.607 91.925 238.702 92.285 238.702 92.735C238.702 93.215 238.562 93.63 238.282 93.98C238.002 94.33 237.607 94.605 237.097 94.805C236.587 94.995 235.977 95.09 235.267 95.09ZM240.712 95V86.345C240.712 85.565 240.937 84.945 241.387 84.485C241.847 84.015 242.497 83.78 243.337 83.78C243.647 83.78 243.942 83.82 244.222 83.9C244.512 83.97 244.757 84.085 244.957 84.245L244.522 85.34C244.372 85.22 244.202 85.13 244.012 85.07C243.822 85 243.622 84.965 243.412 84.965C242.992 84.965 242.672 85.085 242.452 85.325C242.232 85.555 242.122 85.9 242.122 86.36V87.425L242.152 88.085V95H240.712ZM239.362 88.235V87.05H244.432V88.235H239.362ZM250.578 95V93.32L250.503 93.005V90.14C250.503 89.53 250.323 89.06 249.963 88.73C249.613 88.39 249.083 88.22 248.373 88.22C247.903 88.22 247.443 88.3 246.993 88.46C246.543 88.61 246.163 88.815 245.853 89.075L245.253 87.995C245.663 87.665 246.153 87.415 246.723 87.245C247.303 87.065 247.908 86.975 248.538 86.975C249.628 86.975 250.468 87.24 251.058 87.77C251.648 88.3 251.943 89.11 251.943 90.2V95H250.578ZM247.968 95.09C247.378 95.09 246.858 94.99 246.408 94.79C245.968 94.59 245.628 94.315 245.388 93.965C245.148 93.605 245.028 93.2 245.028 92.75C245.028 92.32 245.128 91.93 245.328 91.58C245.538 91.23 245.873 90.95 246.333 90.74C246.803 90.53 247.433 90.425 248.223 90.425H250.743V91.46H248.283C247.563 91.46 247.078 91.58 246.828 91.82C246.578 92.06 246.453 92.35 246.453 92.69C246.453 93.08 246.608 93.395 246.918 93.635C247.228 93.865 247.658 93.98 248.208 93.98C248.748 93.98 249.218 93.86 249.618 93.62C250.028 93.38 250.323 93.03 250.503 92.57L250.788 93.56C250.598 94.03 250.263 94.405 249.783 94.685C249.303 94.955 248.698 95.09 247.968 95.09ZM258.073 95.09C257.263 95.09 256.538 94.915 255.898 94.565C255.268 94.215 254.773 93.735 254.413 93.125C254.053 92.515 253.873 91.815 253.873 91.025C253.873 90.235 254.053 89.535 254.413 88.925C254.773 88.315 255.268 87.84 255.898 87.5C256.538 87.15 257.263 86.975 258.073 86.975C258.793 86.975 259.433 87.12 259.993 87.41C260.563 87.69 261.003 88.11 261.313 88.67L260.218 89.375C259.958 88.985 259.638 88.7 259.258 88.52C258.888 88.33 258.488 88.235 258.058 88.235C257.538 88.235 257.073 88.35 256.663 88.58C256.253 88.81 255.928 89.135 255.688 89.555C255.448 89.965 255.328 90.455 255.328 91.025C255.328 91.595 255.448 92.09 255.688 92.51C255.928 92.93 256.253 93.255 256.663 93.485C257.073 93.715 257.538 93.83 258.058 93.83C258.488 93.83 258.888 93.74 259.258 93.56C259.638 93.37 259.958 93.08 260.218 92.69L261.313 93.38C261.003 93.93 260.563 94.355 259.993 94.655C259.433 94.945 258.793 95.09 258.073 95.09ZM266.01 95.09C265.21 95.09 264.59 94.875 264.15 94.445C263.71 94.015 263.49 93.4 263.49 92.6V85.31H264.93V92.54C264.93 92.97 265.035 93.3 265.245 93.53C265.465 93.76 265.775 93.875 266.175 93.875C266.625 93.875 267 93.75 267.3 93.5L267.75 94.535C267.53 94.725 267.265 94.865 266.955 94.955C266.655 95.045 266.34 95.09 266.01 95.09ZM262.14 88.235V87.05H267.21V88.235H262.14ZM269.491 95V87.05H270.931V95H269.491ZM270.211 85.52C269.931 85.52 269.696 85.43 269.506 85.25C269.326 85.07 269.236 84.85 269.236 84.59C269.236 84.32 269.326 84.095 269.506 83.915C269.696 83.735 269.931 83.645 270.211 83.645C270.491 83.645 270.721 83.735 270.901 83.915C271.091 84.085 271.186 84.3 271.186 84.56C271.186 84.83 271.096 85.06 270.916 85.25C270.736 85.43 270.501 85.52 270.211 85.52ZM277.085 95.09C276.285 95.09 275.575 94.915 274.955 94.565C274.335 94.215 273.845 93.735 273.485 93.125C273.125 92.505 272.945 91.805 272.945 91.025C272.945 90.235 273.125 89.535 273.485 88.925C273.845 88.315 274.335 87.84 274.955 87.5C275.575 87.15 276.285 86.975 277.085 86.975C277.875 86.975 278.58 87.15 279.2 87.5C279.83 87.84 280.32 88.315 280.67 88.925C281.03 89.525 281.21 90.225 281.21 91.025C281.21 91.815 281.03 92.515 280.67 93.125C280.32 93.735 279.83 94.215 279.2 94.565C278.58 94.915 277.875 95.09 277.085 95.09ZM277.085 93.83C277.595 93.83 278.05 93.715 278.45 93.485C278.86 93.255 279.18 92.93 279.41 92.51C279.64 92.08 279.755 91.585 279.755 91.025C279.755 90.455 279.64 89.965 279.41 89.555C279.18 89.135 278.86 88.81 278.45 88.58C278.05 88.35 277.595 88.235 277.085 88.235C276.575 88.235 276.12 88.35 275.72 88.58C275.32 88.81 275 89.135 274.76 89.555C274.52 89.965 274.4 90.455 274.4 91.025C274.4 91.585 274.52 92.08 274.76 92.51C275 92.93 275.32 93.255 275.72 93.485C276.12 93.715 276.575 93.83 277.085 93.83ZM287.447 86.975C288.097 86.975 288.667 87.1 289.157 87.35C289.657 87.6 290.047 87.98 290.327 88.49C290.607 89 290.747 89.645 290.747 90.425V95H289.307V90.59C289.307 89.82 289.117 89.24 288.737 88.85C288.367 88.46 287.842 88.265 287.162 88.265C286.652 88.265 286.207 88.365 285.827 88.565C285.447 88.765 285.152 89.06 284.942 89.45C284.742 89.84 284.642 90.325 284.642 90.905V95H283.202V87.05H284.582V89.195L284.357 88.625C284.617 88.105 285.017 87.7 285.557 87.41C286.097 87.12 286.727 86.975 287.447 86.975Z" fill="black" fill-opacity="0.5"/>
</g>
<defs>
<filter id="filter0_dd_11_638" x="0" y="0" width="316" height="140" filterUnits="userSpaceOnUse" color-interpolation-filters="sRGB">
<feFlood flood-opacity="0" result="BackgroundImageFix"/>
<feColorMatrix in="SourceAlpha" type="matrix" values="0 0 0 0 0 0 0 0 0 0 0 0 0 0 0 0 0 0 127 0" result="hardAlpha"/>
<feMorphology radius="2" operator="dilate" in="SourceAlpha" result="effect1_dropShadow_11_638"/>
<feOffset dy="2"/>
<feGaussianBlur stdDeviation="3"/>
<feColorMatrix type="matrix" values="0 0 0 0 0 0 0 0 0 0 0 0 0 0 0 0 0 0 0.15 0"/>
<feBlend mode="normal" in2="BackgroundImageFix" result="effect1_dropShadow_11_638"/>
<feColorMatrix in="SourceAlpha" type="matrix" values="0 0 0 0 0 0 0 0 0 0 0 0 0 0 0 0 0 0 127 0" result="hardAlpha"/>
<feOffset dy="1"/>
<feGaussianBlur stdDeviation="1"/>
<feColorMatrix type="matrix" values="0 0 0 0 0 0 0 0 0 0 0 0 0 0 0 0 0 0 0.3 0"/>
<feBlend mode="normal" in2="effect1_dropShadow_11_638" result="effect2_dropShadow_11_638"/>
<feBlend mode="normal" in="SourceGraphic" in2="effect2_dropShadow_11_638" result="shape"/>
</filter>
</defs>
</svg>
