<svg width="130" height="130" viewBox="0 0 130 130" fill="none" xmlns="http://www.w3.org/2000/svg">
<circle cx="65" cy="65.0031" r="61.761" stroke="#FF7C7D" stroke-width="5.14675"/>
<g clip-path="url(#clip0_17_4626)">
<path d="M83.1465 39.0553H60.916V28.0856C60.916 27.4357 61.109 26.8005 61.4705 26.2604C61.8319 25.7203 62.3457 25.2998 62.9465 25.0521L62.9875 25.0352C68.7958 22.6403 75.3167 22.6457 81.1211 25.0502C81.7206 25.2986 82.2331 25.7192 82.5936 26.2588C82.9541 26.7983 83.1465 27.4327 83.1465 28.0816V39.0553Z" fill="#483131"/>
<path d="M44.3535 82.604V77.3707C44.3535 73.9355 45.5683 70.611 47.7831 67.9851C49.9978 65.3592 53.0698 63.601 56.4558 63.0216L62.2549 62.029C63.1013 61.8842 63.8693 61.4446 64.423 60.7882C64.9767 60.1317 65.2803 59.3006 65.2803 58.4418V53.1406H78.7822V58.4418C78.7822 59.3006 79.0859 60.1318 79.6396 60.7883C80.1933 61.4448 80.9613 61.8844 81.8078 62.0292L86.961 62.911C90.474 63.5122 93.6445 65.3813 95.8714 68.1639C98.0984 70.9466 99.2272 74.4495 99.0439 78.0089L98.3634 91.2231C98.0796 96.7351 92.004 99.9381 87.2957 97.058L75.2624 89.697L45.8273 86.5324L44.3535 82.604Z" fill="#8E3839"/>
<path d="M50.1697 82.2788L50.2063 75.4623L50.537 72.8811L50.7944 70.873C50.8333 70.57 50.7674 70.2628 50.6079 70.0023L49.6788 68.485L48.7432 66.9558C47.3532 68.3108 46.2487 69.9304 45.4948 71.7192C44.7409 73.5079 44.3528 75.4295 44.3535 77.3707V78.5913H47.0409V82.2788C47.0425 83.656 46.5433 84.9868 45.6363 86.0232L45.8273 86.5324L48.8884 86.8615C49.7289 85.4809 50.1722 83.8951 50.1697 82.2788Z" fill="#533333"/>
<path d="M62.2548 62.0292C63.1013 61.8843 63.8693 61.4448 64.4229 60.7883C64.9766 60.1318 65.2803 59.3006 65.2802 58.4418V53.1406H78.7821V58.4418C78.7821 59.3006 79.0858 60.1318 79.6395 60.7883C80.1932 61.4448 80.9612 61.8844 81.8077 62.0292L72.0311 74.3339L62.2548 62.0292Z" fill="#F9ACAD"/>
<path d="M78.7821 53.1406H65.2803V57.4768C66.3071 58.9194 67.6641 60.0955 69.2381 60.9066C70.8122 61.7178 72.5574 62.1406 74.3282 62.1396C76.1843 62.1424 78.0113 61.6782 79.641 60.7897C79.0859 60.1334 78.7816 59.3015 78.7821 58.442V53.1406Z" fill="#E57B7C"/>
<path d="M73.2391 74.9918L80.4681 70.5217L84.7442 74.2581C84.997 74.479 85.3116 74.617 85.6454 74.6535C85.9792 74.69 86.3161 74.6232 86.6107 74.4621C86.9054 74.301 87.1434 74.0534 87.2929 73.7527C87.4423 73.452 87.4958 73.1127 87.4463 72.7806L85.9484 62.7378L81.8075 62.0291L73.9615 70.4241L73.2391 74.9918Z" fill="#533333"/>
<path d="M72.0312 73.0383L79.7985 68.2354C80.0652 68.0662 80.3807 67.9908 80.695 68.0211C81.0094 68.0515 81.3047 68.1858 81.5341 68.4029L84.9115 71.354L83.6057 62.6006C83.538 62.0724 83.3019 61.5801 82.9324 61.1966L81.6773 59.9665C80.8954 59.1998 79.7857 59.41 79.2023 60.4352L72.0312 73.0383Z" fill="#8E3839"/>
<path d="M62.2546 62.0293L58.1138 62.7379L55.9575 77.1946L63.5943 70.5218L70.8232 74.9919L70.1831 70.5487L62.2546 62.0293Z" fill="#533333"/>
<path d="M72.0312 73.0383L64.264 68.2354C63.9973 68.0661 63.6818 67.9907 63.3674 68.0211C63.053 68.0514 62.7577 68.1858 62.5282 68.4029L59.1509 71.354L60.4566 62.6006C60.5243 62.0724 60.7604 61.5801 61.1299 61.1966L62.385 59.9665C63.1669 59.1998 64.2767 59.41 64.8601 60.4352L72.0312 73.0383ZM54.5043 81.6854V105.52C54.5043 105.825 54.6253 106.117 54.8406 106.332C55.056 106.548 55.3481 106.669 55.6527 106.669H88.4094C88.714 106.669 89.0061 106.548 89.2215 106.332C89.4369 106.117 89.5579 105.825 89.5579 105.52V81.6854H54.5043Z" fill="#8E3839"/>
<path d="M89.558 100.27V92.1247L80.4828 89.1035C80.0871 88.9717 79.7424 88.7197 79.4969 88.3826L76.0962 83.7132C75.8781 83.4137 75.5812 83.1806 75.2385 83.0399L71.9402 81.6855H66.711C66.3613 81.9524 66.1092 82.3272 65.9939 82.7518C65.8786 83.1764 65.9064 83.6271 66.0732 84.0343L67.932 88.5663C68.1335 89.0575 68.5218 89.4485 69.0115 89.6533C69.5013 89.8582 70.0524 89.8601 70.5435 89.6587L71.2503 89.3689L72.9336 91.1561C73.2178 91.4578 73.567 91.6908 73.9546 91.8375C74.3423 91.9842 74.7583 92.0407 75.1711 92.0026L75.2625 91.9942L87.2958 99.3552C87.9934 99.7845 88.7581 100.094 89.558 100.27V100.27Z" fill="#533333"/>
<path d="M74.3954 106.669V71.5764L72.0313 73.0377L69.6671 71.5766V106.669H74.3954Z" fill="#533333"/>
<path d="M60.916 47.5791V39.0352C60.916 37.7326 61.4335 36.4833 62.3546 35.5622C63.2756 34.6411 64.5249 34.1236 65.8276 34.1235H78.2348C79.5374 34.1235 80.7868 34.641 81.7079 35.5621C82.629 36.4833 83.1465 37.7326 83.1465 39.0352V47.5791C83.1465 50.5271 81.9754 53.3543 79.8909 55.4388C77.8064 57.5233 74.9792 58.6944 72.0312 58.6944C69.0833 58.6944 66.2561 57.5233 64.1716 55.4388C62.0871 53.3543 60.916 50.5271 60.916 47.5791Z" fill="#F9ACAD"/>
<path d="M83.1465 46.9761V40.061H84.8562C85.0917 40.061 85.3243 40.1129 85.5375 40.2129C85.7507 40.3129 85.9393 40.4587 86.0898 40.6398C86.2403 40.8209 86.3491 41.0329 86.4085 41.2608C86.4678 41.4887 86.4763 41.7269 86.4332 41.9584L85.9305 44.6622C85.8096 45.3122 85.465 45.8995 84.9565 46.3221C84.4481 46.7447 83.8077 46.9761 83.1465 46.9761ZM60.9161 46.9761V40.061H59.2062C58.9707 40.061 58.7381 40.1129 58.5249 40.2129C58.3117 40.3129 58.1231 40.4587 57.9726 40.6398C57.8221 40.8209 57.7133 41.0329 57.6539 41.2608C57.5946 41.4887 57.5862 41.7269 57.6292 41.9584L58.1321 44.6622C58.253 45.3122 58.5975 45.8994 59.106 46.322C59.6144 46.7447 60.2547 46.9761 60.9159 46.9761H60.9161Z" fill="#E57B7C"/>
<path d="M66.2552 50.3256C66.1502 50.0398 66.3184 49.701 66.6623 49.5409C68.3527 48.7559 70.1941 48.3493 72.0578 48.3494C73.9216 48.3494 75.7629 48.7562 77.4533 49.5412C77.7972 49.701 77.9647 50.0399 77.86 50.3254L77.233 52.0669C77.1991 52.1508 77.1483 52.2269 77.0838 52.2903C77.0192 52.3538 76.9424 52.4033 76.8579 52.4358C76.7734 52.4682 76.6831 52.483 76.5927 52.4791C76.5023 52.4752 76.4137 52.4527 76.3323 52.4131C74.9918 51.7954 73.5333 51.4755 72.0574 51.4756C70.5814 51.4756 69.123 51.7956 67.7825 52.4134C67.7011 52.453 67.6125 52.4755 67.5221 52.4793C67.4317 52.4832 67.3414 52.4684 67.257 52.4359C67.1725 52.4034 67.0957 52.3539 67.0312 52.2904C66.9667 52.2269 66.916 52.1509 66.8821 52.0669L66.2552 50.3256Z" fill="#483131"/>
<path d="M73.8653 46.2527V47.4851C73.8653 47.9716 73.6721 48.4381 73.3281 48.7821C72.9841 49.1261 72.5175 49.3193 72.0311 49.3193C71.5446 49.3193 71.0781 49.126 70.7342 48.7821C70.3902 48.4381 70.197 47.9716 70.197 47.4851V46.2527C70.197 46.0786 70.2662 45.9117 70.3892 45.7886C70.5123 45.6656 70.6792 45.5964 70.8533 45.5964H73.209C73.3831 45.5964 73.55 45.6656 73.6731 45.7886C73.7962 45.9117 73.8653 46.0786 73.8653 46.2527Z" fill="#E57B7C"/>
<path d="M54.5045 87.5548L53.4808 90.661C51.765 95.8685 45.1394 97.4032 41.3088 93.4803L45.6635 84.6253L54.5044 84.6064L54.5045 87.5548Z" fill="#F9ACAD"/>
<path d="M45.3259 85.3117L41.3088 93.4802C42.0333 94.2306 42.9119 94.8151 43.8839 95.1934C44.856 95.5717 45.8985 95.7348 46.9396 95.6716C47.7755 95.3799 48.5002 94.8357 49.0133 94.1142C49.5264 93.3928 49.8027 92.5297 49.8038 91.6443V90.9515C49.802 89.6444 49.3587 88.3762 48.546 87.3526C47.7332 86.3289 46.5985 85.6097 45.3259 85.3115V85.3117Z" fill="#E57B7C"/>
<path d="M47.9093 75.4625L48.24 72.8813L48.4975 70.8731C48.5363 70.5701 48.4705 70.263 48.3109 70.0025L47.3818 68.4852L46.0459 66.3017C45.8865 66.0413 45.8207 65.7343 45.8595 65.4315L46.2265 62.565L46.4119 61.1275C46.451 60.8241 46.3852 60.5164 46.2254 60.2555L45.5671 59.1814L43.959 56.5559C43.7993 56.2952 43.7335 55.9878 43.7725 55.6846L44.2151 52.242L44.325 51.3823C44.3638 51.0796 44.2981 50.7727 44.1388 50.5123L43.7547 49.8843L41.8734 46.8114C41.714 46.5509 41.6482 46.2438 41.6871 45.9409L42.2014 41.9279L42.2388 41.6397C42.2783 41.336 42.2126 41.028 42.0528 40.7668L41.9399 40.5826L39.7884 37.0674C39.6289 36.8069 39.5631 36.4997 39.602 36.1967L39.9962 33.123C40.0205 32.9341 40.0042 32.7422 39.9484 32.56C39.8927 32.3779 39.7988 32.2097 39.673 32.0667C39.5472 31.9237 39.3924 31.8091 39.2188 31.7306C39.0453 31.6522 38.857 31.6115 38.6665 31.6115L31.1114 31.6099C30.994 31.6098 30.8778 31.6329 30.7693 31.6779C30.6608 31.7228 30.5623 31.7886 30.4792 31.8716C30.3962 31.9546 30.3303 32.0531 30.2854 32.1616C30.2405 32.27 30.2173 32.3863 30.2173 32.5037V75.4625H47.9093Z" fill="#FCDBDB"/>
<path d="M30.2172 75.4626V82.2791C30.2172 84.6204 31.1472 86.8658 32.8028 88.5214C34.4583 90.1769 36.7037 91.107 39.045 91.107C40.2043 91.107 41.3523 90.8786 42.4233 90.435C43.4943 89.9914 44.4675 89.3411 45.2872 88.5214C46.107 87.7016 46.7572 86.7284 47.2008 85.6574C47.6445 84.5863 47.8728 83.4384 47.8727 82.2791L47.9093 75.4626H30.2172ZM44.7439 82.2791C44.7439 83.7906 44.1435 85.2401 43.0748 86.3088C42.006 87.3776 40.5565 87.978 39.045 87.978C38.2966 87.978 37.5556 87.8306 36.8641 87.5442C36.1727 87.2579 35.5444 86.8381 35.0152 86.3089C34.486 85.7797 34.0662 85.1514 33.7798 84.46C33.4934 83.7686 33.346 83.0275 33.346 82.2791V78.5915H44.7439V82.2791Z" fill="#483131"/>
<path d="M36.2465 91.6442V90.9515C36.2465 90.0245 36.6148 89.1355 37.2703 88.48C37.9258 87.8245 38.8148 87.4563 39.7418 87.4563H44.0117C44.9387 87.4563 45.8277 87.8246 46.4831 88.4801C47.1386 89.1355 47.5068 90.0245 47.5069 90.9515V91.6442C47.5069 92.166 47.2996 92.6666 46.9305 93.0356C46.5615 93.4046 46.061 93.6119 45.5391 93.6119H38.2142C37.6923 93.6119 37.1918 93.4046 36.8228 93.0356C36.4538 92.6666 36.2465 92.166 36.2465 91.6442Z" fill="#F9ACAD"/>
<path d="M76.9409 98.0318L73.7743 100.156C73.5215 100.326 73.2375 100.444 72.9389 100.503C72.6402 100.562 72.3328 100.561 72.0345 100.5C71.7363 100.439 71.4531 100.319 71.2015 100.148C70.9499 99.9762 70.7348 99.7566 70.5689 99.5013L54.2325 74.3783C53.9036 73.8724 53.7869 73.2574 53.9077 72.6662C54.0286 72.0751 54.3772 71.5552 54.8782 71.2189L58.045 69.0942C58.2978 68.9245 58.5817 68.8069 58.8804 68.748C59.1791 68.6891 59.4864 68.6902 59.7847 68.7511C60.0829 68.8121 60.3661 68.9317 60.6177 69.1031C60.8693 69.2744 61.0843 69.4941 61.2503 69.7493L77.5865 94.8726C77.9154 95.3785 78.0321 95.9935 77.9112 96.5847C77.7904 97.1759 77.4418 97.6958 76.9407 98.032L76.9409 98.0318Z" fill="#FCDBDB"/>
<path d="M69.0118 81.6853H66.711C66.3613 81.9522 66.1092 82.3269 65.9939 82.7515C65.8786 83.1761 65.9064 83.6269 66.0732 84.034L67.932 88.5661C68.1335 89.0572 68.5218 89.4482 69.0115 89.6531C69.5013 89.8579 70.0524 89.8599 70.5435 89.6584L71.2503 89.3687L72.9336 91.1558C73.2178 91.4575 73.567 91.6906 73.9546 91.8373C74.3423 91.984 74.7583 92.0404 75.1711 92.0024L75.2625 91.994L76.0139 92.4537L69.0118 81.6853Z" fill="#D6ADAD"/>
<path d="M76.6444 89.5697L75.1712 89.7055C74.7584 89.7436 74.3423 89.6871 73.9546 89.5405C73.5668 89.3938 73.2176 89.1607 72.9334 88.8589L71.2502 87.0718L72.5045 86.5573L70.5435 87.3615C70.3003 87.4613 70.0398 87.5122 69.7769 87.5113C69.5141 87.5104 69.2539 87.4577 69.0114 87.3563C68.7689 87.2549 68.5488 87.1066 68.3635 86.9201C68.1783 86.7336 68.0316 86.5124 67.9319 86.2692L66.0731 81.7372C65.9733 81.4939 65.9224 81.2335 65.9234 80.9706C65.9243 80.7077 65.9769 80.4476 66.0784 80.2051C66.1798 79.9626 66.3281 79.7424 66.5146 79.5572C66.7012 79.372 66.9223 79.2253 67.1656 79.1256L68.4738 78.589C68.9608 78.3892 69.5069 78.3893 69.9938 78.5893L75.2384 80.7428C75.5811 80.8835 75.8781 81.1166 76.0961 81.4161L79.4968 86.0855C79.7423 86.4226 80.087 86.6746 80.4827 86.8064L89.5581 89.8277V81.6853L98.8907 80.9841L98.3634 91.2232C98.0795 96.7352 92.004 99.9382 87.2957 97.0581L75.2624 89.6971" fill="#F9ACAD"/>
<path d="M87.0977 79.3884L89.5586 84.6073H98.7034L98.7041 84.6074L98.9485 79.8606L87.0977 79.3884Z" fill="#8E3839"/>
<path d="M89.558 89.8083L91.0711 90.3594C91.1406 90.3847 91.2167 90.3858 91.2868 90.3625C91.357 90.3391 91.4173 90.2928 91.4578 90.2309C91.4984 90.169 91.5168 90.0953 91.5102 90.0216C91.5035 89.9479 91.4722 89.8787 91.4212 89.8251L89.558 87.8645V89.8083Z" fill="#E57B7C"/>
<path d="M87.0577 62.3455L83.9928 61.8207C83.8509 61.4322 83.6262 61.0793 83.3343 60.7864L82.0792 59.5563C81.7502 59.2065 81.3057 58.9874 80.8279 58.9396C80.35 58.8917 79.871 59.0183 79.4791 59.2959C79.3982 59.0186 79.3569 58.7313 79.3566 58.4424V56.6791C80.7186 55.5855 81.8178 54.2002 82.5731 52.6252C83.3284 51.0502 83.7206 49.3258 83.7206 47.579V47.5003C84.407 47.3828 85.0408 47.0578 85.5368 46.5692C86.0329 46.0805 86.3672 45.4515 86.4949 44.767L86.9976 42.0631C87.0561 41.7487 87.0446 41.4253 86.964 41.1159C86.8834 40.8064 86.7356 40.5185 86.5312 40.2726C86.3268 40.0267 86.0707 39.8288 85.7812 39.693C85.4917 39.5572 85.1759 39.4868 84.8561 39.4868H83.7206V28.0815C83.7221 27.3187 83.4967 26.5727 83.0729 25.9384C82.6491 25.3042 82.0462 24.8103 81.3409 24.5197C78.3993 23.2919 75.2438 22.6584 72.0563 22.6558C68.8687 22.6531 65.7122 23.2813 62.7685 24.5041L62.7275 24.5212C62.0205 24.8109 61.4159 25.3047 60.991 25.9396C60.566 26.5745 60.3399 27.3216 60.3416 28.0856V39.4868H59.2062C58.8865 39.4868 58.5706 39.5572 58.2811 39.693C57.9915 39.8288 57.7355 40.0266 57.531 40.2725C57.3266 40.5185 57.1788 40.8064 57.0982 41.1158C57.0176 41.4253 57.0061 41.7487 57.0646 42.0631L57.5674 44.7669C57.695 45.4514 58.0293 46.0805 58.5254 46.5692C59.0214 47.058 59.6553 47.383 60.3417 47.5005V47.579C60.3418 49.3258 60.7339 51.0503 61.4892 52.6253C62.2445 54.2003 63.3437 55.5857 64.7058 56.6793V58.4424C64.7055 58.7315 64.6642 59.0191 64.5831 59.2966C64.1912 59.0186 63.712 58.8918 63.234 58.9396C62.756 58.9874 62.3114 59.2065 61.9823 59.5566L60.7271 60.7871C60.4356 61.0799 60.2113 61.4326 60.0695 61.8207L56.3583 62.4554C52.8919 63.0451 49.7406 64.8278 47.4495 67.4951L46.5355 66.0018C46.4446 65.8529 46.407 65.6775 46.4289 65.5043L46.9813 61.201C47.0366 60.7675 46.9427 60.3282 46.7149 59.9553L44.4487 56.2561C44.3575 56.1069 44.3199 55.9312 44.342 55.7577L44.8946 51.455C44.9494 51.0227 44.8557 50.5846 44.6288 50.2126L42.3631 46.5115C42.2721 46.3625 42.2345 46.1869 42.2565 46.0137L42.8082 41.7133C42.8641 41.2797 42.7703 40.84 42.5424 40.4669L40.278 36.7673C40.187 36.6183 40.1494 36.4428 40.1714 36.2696L40.5658 33.1959C40.6004 32.926 40.5771 32.6519 40.4975 32.3918C40.4178 32.1317 40.2837 31.8915 40.104 31.6873C39.9244 31.4831 39.7032 31.3194 39.4554 31.2073C39.2075 31.0952 38.9386 31.0372 38.6666 31.0371L31.1112 31.0355C30.722 31.0359 30.3488 31.1907 30.0735 31.4659C29.7982 31.7411 29.6434 32.1143 29.6428 32.5035V75.4575C29.6428 75.4592 29.6423 75.4606 29.6423 75.4623V82.2791C29.6396 84.1809 30.2148 86.0386 31.2916 87.6061C32.3684 89.1737 33.896 90.3771 35.6721 91.0569V91.6443C35.6729 92.3182 35.9409 92.9643 36.4175 93.4409C36.894 93.9175 37.5402 94.1855 38.2141 94.1862H41.2158C42.6591 95.5196 44.5518 96.2602 46.5167 96.2605C47.1558 96.2602 47.7925 96.1831 48.4132 96.0308C49.6676 95.7278 50.8276 95.1194 51.79 94.2599C52.7525 93.4003 53.4876 92.3162 53.93 91.104V106.094C53.93 106.247 53.9905 106.393 54.0982 106.5C54.2059 106.608 54.3519 106.669 54.5042 106.669C54.6565 106.669 54.8026 106.608 54.9102 106.5C55.0179 106.393 55.0784 106.247 55.0784 106.094V84.6096L55.0786 84.6071L55.0784 84.6048V81.6852C55.0784 81.5329 55.0179 81.3868 54.9102 81.2791C54.8026 81.1715 54.6565 81.111 54.5042 81.111C54.3519 81.111 54.2059 81.1715 54.0982 81.2791C53.9905 81.3868 53.93 81.5329 53.93 81.6852V84.0329H48.2802C48.3906 83.4558 48.4466 82.8695 48.4472 82.2819L48.4831 75.5022L49.067 70.946C49.1219 70.5132 49.028 70.0745 48.8006 69.7022L48.0828 68.5295C50.2136 65.9103 53.2231 64.1541 56.5517 63.5873L59.8116 63.0298L59.0494 68.1415C58.5752 68.1869 58.1199 68.3502 57.7249 68.6164L54.5583 70.7411C53.9344 71.1634 53.5006 71.8131 53.3496 72.5513C53.1987 73.2894 53.3426 74.0573 53.7507 74.6907L69.0928 98.2834V106.094C69.0928 106.247 69.1533 106.393 69.261 106.5C69.3687 106.608 69.5147 106.669 69.667 106.669C69.8193 106.669 69.9654 106.608 70.0731 106.5C70.1808 106.393 70.2413 106.247 70.2413 106.094V100.026C70.6591 100.56 71.254 100.928 71.9188 101.062C72.1106 101.101 72.3059 101.121 72.5017 101.121C72.9616 101.121 73.4144 101.008 73.8211 100.794V106.094C73.8211 106.247 73.8816 106.393 73.9893 106.5C74.097 106.608 74.243 106.669 74.3953 106.669C74.5476 106.669 74.6937 106.608 74.8013 106.5C74.909 106.393 74.9695 106.247 74.9695 106.094V100.046L77.2621 98.509C77.8855 98.0861 78.3188 97.4362 78.4693 96.6982C78.6198 95.9602 78.4757 95.1925 78.0677 94.5593L75.3964 90.452L86.996 97.5477C87.5484 97.8848 88.1398 98.1532 88.7572 98.347C89.5114 98.5873 90.2981 98.7104 91.0897 98.7121C93.1029 98.7067 95.0378 97.9308 96.497 96.5438C97.9562 95.1567 98.8292 93.2637 98.9366 91.2533L99.6175 78.0381C99.8067 74.3387 98.6329 70.6983 96.3183 67.8062C94.0036 64.9142 90.7087 62.9713 87.0577 62.3455ZM83.7206 40.6351H84.8559C85.0072 40.635 85.1565 40.6683 85.2935 40.7325C85.4304 40.7966 85.5515 40.8902 85.6482 41.0065C85.7448 41.1228 85.8147 41.259 85.8528 41.4053C85.8909 41.5517 85.8962 41.7046 85.8685 41.8533L85.3657 44.557C85.2873 44.9776 85.0911 45.3672 84.7998 45.6806C84.5086 45.9939 84.1343 46.2181 83.7206 46.3269V40.6351ZM60.3417 46.3269C59.928 46.2181 59.5536 45.9939 59.2624 45.6806C58.9711 45.3672 58.7748 44.9776 58.6963 44.557L58.1936 41.8533C58.166 41.7046 58.1715 41.5517 58.2096 41.4055C58.2477 41.2592 58.3175 41.1231 58.4142 41.0068C58.5108 40.8905 58.6319 40.797 58.7687 40.7328C58.9056 40.6686 59.0549 40.6353 59.2061 40.6353H60.3416L60.3417 46.3269ZM30.7911 32.5035C30.7912 32.4187 30.825 32.3374 30.885 32.2775C30.9449 32.2175 31.0262 32.1838 31.111 32.1837L38.6661 32.1854C38.775 32.1854 38.8827 32.2087 38.9819 32.2536C39.0811 32.2985 39.1696 32.364 39.2415 32.4457C39.3135 32.5275 39.3671 32.6237 39.399 32.7278C39.4309 32.8319 39.4402 32.9417 39.4264 33.0497L39.0321 36.1235C38.9772 36.5562 39.071 36.9947 39.2982 37.367L41.5628 41.0666C41.654 41.216 41.6916 41.392 41.6693 41.5657L41.1174 45.8675C41.0624 46.3003 41.1563 46.7389 41.3836 47.1111L43.6489 50.8117C43.7397 50.9607 43.7773 51.1361 43.7553 51.3092L43.2028 55.6112C43.1476 56.0443 43.2416 56.4832 43.4692 56.8558L45.7354 60.5552C45.8266 60.7045 45.8642 60.8805 45.842 61.054L45.2896 65.3585C45.2348 65.7909 45.3286 66.2292 45.5557 66.6013L47.8211 70.3022C47.9121 70.4512 47.9497 70.6267 47.9278 70.8L47.4038 74.8881H30.7913L30.7911 32.5035ZM35.8168 89.878C34.3246 89.2461 33.0518 88.1881 32.1578 86.8365C31.2638 85.4849 30.7883 83.8996 30.7908 82.2791V76.0365H47.3317L47.2987 82.2791C47.2979 84.0634 46.7189 85.7995 45.6486 87.2272C45.133 86.9993 44.5754 86.8817 44.0116 86.882H43.2986C43.9338 86.295 44.441 85.5832 44.7885 84.7912C45.1361 83.9992 45.3165 83.144 45.3185 82.2791V78.591C45.3185 78.4387 45.258 78.2926 45.1503 78.1849C45.0426 78.0772 44.8966 78.0167 44.7443 78.0167H33.3452C33.1929 78.0167 33.0469 78.0772 32.9392 78.1849C32.8315 78.2926 32.771 78.4387 32.771 78.591V82.2791C32.7706 83.5495 33.1564 84.79 33.8773 85.8361C34.5981 86.8822 35.62 87.6845 36.8073 88.1364C36.3372 88.6253 35.9966 89.224 35.8168 89.878ZM41.2906 86.8822H39.7415C39.1288 86.8815 38.524 87.02 37.9726 87.2873C36.8256 87.043 35.7972 86.4123 35.0594 85.5007C34.3217 84.5891 33.9192 83.4518 33.9195 82.2791V79.1652H44.1701V82.2791C44.1679 83.2387 43.897 84.1784 43.3881 84.9919C42.8792 85.8055 42.1527 86.4602 41.2908 86.882L41.2906 86.8822ZM38.214 93.0378C37.8445 93.0374 37.4903 92.8904 37.229 92.6292C36.9678 92.3679 36.8208 92.0137 36.8204 91.6443V90.9514C36.8213 90.177 37.1293 89.4345 37.6769 88.8868C38.2246 88.3392 38.9671 88.0312 39.7415 88.0303H44.0114C44.7859 88.0312 45.5283 88.3393 46.0759 88.8869C46.6235 89.4345 46.9315 90.177 46.9324 90.9514V91.6441C46.932 92.0136 46.785 92.3678 46.5238 92.629C46.2625 92.8903 45.9083 93.0372 45.5389 93.0376L38.214 93.0378ZM53.9298 85.1813V87.4638L52.9351 90.4812C52.6205 91.4353 52.0965 92.3069 51.4015 93.0323C50.7065 93.7577 49.8581 94.3186 48.9184 94.6737C47.9786 95.0289 46.9714 95.1695 45.9703 95.0851C44.9693 95.0008 43.9997 94.6937 43.1327 94.1862H45.5389C46.2128 94.1855 46.8589 93.9175 47.3355 93.4409C47.812 92.9643 48.0801 92.3182 48.0808 91.6443V90.9514C48.0809 90.3573 47.9506 89.7704 47.6992 89.2321C47.4477 88.6937 47.0813 88.2172 46.6256 87.8359C47.2176 87.0291 47.6768 86.133 47.986 85.1813H53.9298ZM79.7013 60.719C79.7793 60.5591 79.8928 60.4191 80.0329 60.3095C80.1731 60.1999 80.3364 60.1237 80.5104 60.0865C80.5469 60.0814 80.5837 60.0788 80.6205 60.0788C80.7438 60.0828 80.8652 60.1111 80.9775 60.1621C81.0899 60.2132 81.191 60.2859 81.2751 60.3763L82.5302 61.6064C82.7577 61.8421 82.9167 62.1353 82.9901 62.4546C82.9907 62.4579 82.9917 62.4612 82.9927 62.4646C83.0106 62.5366 83.0263 62.6096 83.0376 62.6853L84.1127 69.8938L81.9117 67.9705C81.5906 67.6711 81.1793 67.4867 80.7421 67.4462C80.305 67.4057 79.8667 67.5115 79.4962 67.7469L74.0756 71.0987L74.0736 71.0999L73.6429 71.3661L79.7013 60.719ZM78.6314 60.2772L72.0312 71.8767L65.4304 60.2776C65.7089 59.7059 65.8537 59.0784 65.854 58.4424V57.4968C67.7063 58.6546 69.8467 59.2686 72.031 59.2685C74.2154 59.2685 76.3558 58.6545 78.208 57.4966V58.4424C78.2082 59.0782 78.353 59.7056 78.6312 60.2772H78.6314ZM71.7283 73.5252L71.729 73.5257C71.7537 73.5409 71.7796 73.5542 71.8064 73.5656C71.8199 73.5713 71.8336 73.5754 71.8474 73.5802C71.878 73.5907 71.9095 73.5987 71.9414 73.604C71.9614 73.6069 71.9816 73.6088 72.0018 73.6097C72.0117 73.6102 72.0213 73.6125 72.0312 73.6125C72.0659 73.6121 72.1006 73.6085 72.1347 73.6018L72.1445 73.5998C72.1767 73.5934 72.2082 73.5842 72.2387 73.5723L72.2453 73.57C72.2757 73.558 72.3051 73.5435 72.333 73.5265L73.8209 72.6064V79.5401L70.2411 78.0701V72.606L71.716 73.518L71.7283 73.5255V73.5252ZM61.4902 28.0858C61.489 27.5494 61.6477 27.0247 61.9461 26.5789C62.2445 26.1332 62.669 25.7864 63.1654 25.583L63.2064 25.566C66.011 24.4009 69.0184 23.8025 72.0554 23.805C75.0923 23.8075 78.0987 24.411 80.9014 25.5807C81.3965 25.7848 81.8198 26.1315 82.1173 26.5769C82.4149 27.0222 82.5732 27.546 82.5722 28.0815V35.6822C82.0605 35.0187 81.4033 34.4814 80.6514 34.1116C79.8994 33.7419 79.0727 33.5495 78.2347 33.5494H65.8275C64.9895 33.5495 64.1628 33.7419 63.4108 34.1116C62.6588 34.4814 62.0017 35.0187 61.49 35.6822L61.4902 28.0858ZM61.4902 47.5792V39.0352C61.4914 37.8852 61.9488 36.7827 62.762 35.9695C63.5751 35.1563 64.6777 34.6989 65.8276 34.6977H78.2349C79.3848 34.699 80.4873 35.1564 81.3004 35.9695C82.1136 36.7827 82.5709 37.8852 82.5722 39.0352V47.579C82.5722 50.3747 81.4616 53.0558 79.4848 55.0327C77.508 57.0095 74.8268 58.1201 72.0312 58.1201C69.2355 58.1201 66.5544 57.0095 64.5775 55.0327C62.6007 53.0558 61.4902 50.3749 61.4902 47.5792ZM61.0245 62.6848C61.0363 62.609 61.0519 62.5339 61.0713 62.4597L61.0718 62.4582C61.146 62.1385 61.3047 61.8446 61.5313 61.6072L62.7866 60.3766C62.8821 60.2715 63.001 60.1905 63.1338 60.1401C63.2665 60.0896 63.4093 60.0713 63.5505 60.0865C63.7247 60.1238 63.8883 60.2002 64.0287 60.31C64.1691 60.4197 64.2827 60.56 64.3609 60.7201L70.4193 71.3656L64.5662 67.7469C64.1956 67.5116 63.7575 67.4058 63.3204 67.4463C62.8833 67.4868 62.472 67.6712 62.151 67.9705L61.1855 68.8145C60.8948 68.5663 60.557 68.3794 60.1924 68.2649L61.0245 62.6848ZM69.093 71.8959V77.8707C68.8055 77.8859 68.5225 77.9491 68.2559 78.0578L67.5316 78.3547L61.9084 69.7076L62.9072 68.8348C63.0442 68.699 63.2235 68.614 63.4154 68.5938C63.6073 68.5737 63.8003 68.6195 63.9626 68.7239L69.093 71.8959ZM76.0456 93.5564L74.6785 94.4443C74.5508 94.5273 74.4614 94.6576 74.4298 94.8065C74.3981 94.9554 74.4269 95.1108 74.5098 95.2384C74.5928 95.3661 74.723 95.4557 74.8719 95.4874C75.0208 95.5191 75.1762 95.4904 75.3039 95.4075L76.6718 94.5193L77.1053 95.1857C77.35 95.5657 77.4364 96.0262 77.3461 96.4691C77.2558 96.9119 76.9959 97.3018 76.622 97.5556L73.4536 99.6804C73.264 99.8075 73.0511 99.8957 72.8271 99.9398C72.6032 99.9838 72.3727 99.9829 72.1491 99.937C71.9255 99.8912 71.7133 99.8013 71.5247 99.6727C71.3362 99.544 71.1751 99.3792 71.0509 99.1877L70.1436 97.7928L70.1428 97.7912L54.7136 74.0648C54.4688 73.6847 54.3825 73.2239 54.4731 72.781C54.5638 72.3381 54.8241 71.9483 55.1985 71.6949L58.3648 69.5705C58.5545 69.4433 58.7676 69.3552 58.9916 69.3111C59.2157 69.267 59.4463 69.2679 59.6701 69.3137C59.8938 69.3595 60.1062 69.4493 60.2949 69.5779C60.4837 69.7065 60.6449 69.8714 60.7694 70.0628L61.0206 70.4492L59.6668 71.3284C59.6035 71.3695 59.549 71.4226 59.5063 71.4848C59.4636 71.5469 59.4335 71.6169 59.4178 71.6906C59.4022 71.7644 59.4012 71.8405 59.4149 71.9147C59.4287 71.9888 59.4569 72.0595 59.4979 72.1228C59.539 72.186 59.5921 72.2406 59.6543 72.2833C59.7165 72.326 59.7864 72.356 59.8602 72.3717C59.9339 72.3874 60.0101 72.3884 60.0842 72.3746C60.1584 72.3609 60.2291 72.3327 60.2923 72.2916L61.6467 71.4121L62.8988 73.3375L61.5433 74.2179C61.4157 74.3008 61.3262 74.4311 61.2946 74.58C61.263 74.7289 61.2918 74.8843 61.3747 75.012C61.4576 75.1397 61.5878 75.2292 61.7367 75.2609C61.8856 75.2926 62.041 75.2639 62.1687 75.1811L63.525 74.3004L64.7771 76.2258L63.4197 77.1075C63.2935 77.1911 63.2055 77.3212 63.1747 77.4694C63.1439 77.6176 63.1729 77.772 63.2554 77.899C63.3378 78.0259 63.4671 78.1152 63.615 78.1473C63.7629 78.1794 63.9176 78.1518 64.0453 78.0705L65.4032 77.1887L66.4803 78.8451C65.9912 79.1775 65.6311 79.6677 65.4603 80.2338C65.2895 80.7999 65.3183 81.4075 65.5418 81.9549L67.4007 86.4871C67.529 86.8001 67.7178 87.0847 67.9561 87.3248C68.1945 87.5648 68.4778 87.7556 68.7899 87.8861C69.102 88.0167 69.4367 88.0845 69.775 88.0856C70.1133 88.0868 70.4485 88.0213 70.7615 87.893L71.1027 87.7529L72.5155 89.2524C72.8698 89.6299 73.308 89.9187 73.7947 90.0953L74.1671 90.6683L72.8021 91.5548C72.6745 91.6378 72.585 91.7681 72.5534 91.917C72.5218 92.0659 72.5506 92.2213 72.6335 92.349C72.7164 92.4767 72.8466 92.5662 72.9955 92.5979C73.1444 92.6296 73.2998 92.6009 73.4275 92.5181L74.7935 91.631L76.0456 93.5564ZM97.79 91.1939C97.7366 92.2279 97.4445 93.2355 96.9366 94.1377C96.4287 95.04 95.7187 95.8123 94.8624 96.3943C94.0061 96.9763 93.0266 97.352 92.0007 97.4921C90.9749 97.6323 89.9305 97.5329 88.9495 97.2019C88.4762 97.041 88.0221 96.8285 87.5953 96.5683L76.9476 90.0547C77.0575 89.9866 77.1411 89.8834 77.1848 89.7619C77.2286 89.6403 77.23 89.5075 77.1887 89.3851C77.1475 89.2627 77.066 89.1578 76.9576 89.0875C76.8492 89.0172 76.7202 88.9856 76.5916 88.9979L75.1183 89.1336C74.7923 89.1649 74.4634 89.1209 74.1571 89.005C73.8507 88.8891 73.5751 88.7045 73.3514 88.4652L72.2408 87.2861L72.7225 87.0886C72.8625 87.0302 72.9737 86.9187 73.0318 86.7786C73.0899 86.6385 73.0902 86.481 73.0326 86.3407C72.975 86.2004 72.8643 86.0885 72.7245 86.0296C72.5847 85.9706 72.4273 85.9694 72.2866 86.0261L70.3256 86.8303C69.9753 86.974 69.5824 86.9726 69.2331 86.8265C68.8839 86.6804 68.607 86.4016 68.4633 86.0514L66.6045 81.5191C66.4612 81.1688 66.4628 80.776 66.6088 80.4268C66.7548 80.0777 67.0334 79.8007 67.3834 79.6567L67.5155 79.6026L67.5237 79.5993L68.6915 79.1202C69.0387 78.9768 69.4286 78.9769 69.7758 79.1204L74.1645 80.9226L74.1817 80.9297L75.0201 81.2739C75.2646 81.3743 75.4764 81.5406 75.632 81.7542L79.0327 86.4238C79.348 86.8581 79.7917 87.1825 80.3012 87.3511L89.3629 90.368L90.4884 90.811C90.5587 90.8396 90.6341 90.8541 90.7101 90.8534C90.786 90.8527 90.8611 90.837 90.9309 90.8071C91.0008 90.7772 91.064 90.7337 91.1169 90.6792C91.1699 90.6247 91.2114 90.5602 91.2393 90.4895C91.2671 90.4188 91.2806 90.3433 91.2791 90.2674C91.2775 90.1914 91.2609 90.1165 91.2302 90.047C91.1994 89.9775 91.1552 89.9148 91.1001 89.8626C91.045 89.8103 90.98 89.7694 90.909 89.7424L90.1324 89.4366V85.1813H98.0996L97.79 91.1939ZM98.4708 77.9792L98.3757 79.8273L98.375 79.8311L98.3173 80.9546L98.1586 84.0331H90.133V79.3885C90.133 79.2362 90.0725 79.0901 89.9648 78.9824C89.8571 78.8747 89.7111 78.8142 89.5588 78.8142C89.4065 78.8142 89.2604 78.8747 89.1528 78.9824C89.0451 79.0901 88.9846 79.2362 88.9846 79.3885V84.6009C88.9846 84.6032 88.9839 84.6052 88.9839 84.6075V89.0314L80.664 86.2614C80.3816 86.1679 80.1357 85.9881 79.961 85.7474L76.5603 81.0781C76.2796 80.6927 75.8975 80.3927 75.4565 80.2116L74.9697 80.0117V71.8964L80.1003 68.7239C80.2627 68.6196 80.4559 68.5738 80.6479 68.5941C80.8399 68.6144 81.0192 68.6995 81.1563 68.8355L84.5337 71.7865C84.6222 71.8638 84.7323 71.9122 84.8492 71.925C84.9661 71.9377 85.084 71.9143 85.1872 71.8579C85.2903 71.8015 85.3737 71.7148 85.4259 71.6095C85.4782 71.5042 85.4969 71.3854 85.4795 71.2692L84.2507 63.0303L86.8642 63.4777C90.2381 64.056 93.2829 65.8514 95.4219 68.5239C97.5609 71.1964 98.6457 74.5605 98.4708 77.9792ZM71.4133 52.0712C71.4922 52.066 71.5728 52.0625 71.6533 52.0593C71.686 52.058 71.718 52.056 71.751 52.055C71.8025 52.0534 71.8551 52.0532 71.9073 52.0524C71.9779 52.0514 72.0479 52.0499 72.1196 52.0506C73.4913 52.059 74.8454 52.3605 76.0911 52.9349C76.1173 52.9468 76.1447 52.9564 76.1716 52.9667C76.1862 52.9723 76.2003 52.9788 76.2149 52.9838C76.2312 52.9892 76.2476 52.9929 76.2638 52.9977C76.2914 53.0059 76.3188 53.0141 76.3465 53.0205C76.3588 53.0231 76.3714 53.0248 76.3838 53.0271C76.4159 53.0333 76.4481 53.039 76.4804 53.0427C76.4914 53.044 76.5025 53.0443 76.5135 53.0451C76.5472 53.0481 76.5808 53.0504 76.6146 53.0505C76.6172 53.0505 76.62 53.051 76.6228 53.051C76.6338 53.051 76.6448 53.0495 76.6559 53.0494C76.6838 53.0486 76.7117 53.0479 76.7396 53.0453C76.7511 53.0443 76.7626 53.0422 76.7744 53.0407C76.8041 53.0372 76.8338 53.0335 76.8633 53.0277C76.8722 53.0261 76.8807 53.0235 76.8896 53.0217C76.9617 53.0065 77.0324 52.9849 77.1007 52.9572C77.2547 52.8936 77.394 52.799 77.5098 52.6792C77.6257 52.5595 77.7156 52.4171 77.774 52.2611L77.8142 52.1492C78.009 51.6062 78.204 51.0646 78.3993 50.5243C78.4885 50.2794 78.4879 50.0108 78.3975 49.7663C78.3906 49.7476 78.3822 49.7292 78.3745 49.7105C78.3679 49.6955 78.3627 49.68 78.3556 49.6651C78.2809 49.5076 78.1752 49.3669 78.0447 49.2513C77.9406 49.1575 77.8231 49.0796 77.6963 49.02C77.6693 49.0075 77.6421 48.9964 77.6152 48.9841C77.5158 48.9385 77.4117 48.8924 77.3028 48.8459C77.2359 48.8174 77.1688 48.7895 77.1014 48.7621C77.0243 48.7307 76.9452 48.6994 76.8641 48.6683C76.7453 48.6226 76.6259 48.5787 76.5058 48.5365C76.4597 48.5201 76.4143 48.5039 76.367 48.4878C76.2756 48.4567 76.1839 48.4266 76.0919 48.3976L76.0328 48.3795C75.8533 48.3237 75.6726 48.2718 75.4906 48.2238C75.4537 48.214 75.4169 48.2041 75.3795 48.1946C75.2865 48.1707 75.1932 48.1479 75.0996 48.126C75.0376 48.1116 74.9738 48.0981 74.9103 48.0842C74.8006 48.0602 74.6906 48.0376 74.5804 48.0164C74.5169 48.0041 74.4518 47.9931 74.3873 47.9817C74.4218 47.8184 74.4393 47.652 74.4394 47.4852V46.0129C74.4394 45.8606 74.379 45.7146 74.2713 45.6069C74.1636 45.4992 74.0175 45.4387 73.8652 45.4387C73.7129 45.4387 73.5669 45.4992 73.4592 45.6069C73.3515 45.7146 73.291 45.8606 73.291 46.0129V47.4852C73.2907 47.6017 73.2741 47.7175 73.2418 47.8294C72.9085 47.7989 72.5742 47.7812 72.2395 47.7764C71.7661 47.7705 71.2927 47.7897 70.8214 47.8338C70.7883 47.7206 70.7714 47.6032 70.7712 47.4852V46.0129C70.7712 45.8606 70.7107 45.7146 70.603 45.6069C70.4953 45.4992 70.3492 45.4387 70.197 45.4387C70.0447 45.4387 69.8986 45.4992 69.7909 45.6069C69.6832 45.7146 69.6227 45.8606 69.6227 46.0129V47.4852C69.6229 47.655 69.641 47.8244 69.6769 47.9904C69.6716 47.9913 69.666 47.992 69.6606 47.9931L69.574 48.0091C68.7752 48.1582 67.9918 48.3808 67.2338 48.674C67.1734 48.6973 67.1157 48.7208 67.0575 48.7441C66.867 48.8208 66.6784 48.902 66.4918 48.9877C66.4672 48.999 66.4422 49.009 66.4178 49.0205C66.2793 49.0853 66.1522 49.172 66.0414 49.2774C66.0352 49.2833 66.0283 49.2889 66.0222 49.2948C66.0143 49.3027 66.0075 49.3111 65.9999 49.3189C65.8489 49.4728 65.7403 49.6633 65.6849 49.8717C65.6793 49.8936 65.6756 49.9161 65.6711 49.9384C65.6687 49.9516 65.6652 49.9642 65.6631 49.9771C65.6334 50.1602 65.6512 50.3478 65.7148 50.522C65.911 51.0634 66.1063 51.6058 66.3006 52.1492L66.3436 52.2686C66.3865 52.3834 66.4468 52.4909 66.5224 52.5874L66.5241 52.5898C66.5364 52.6053 66.5502 52.6194 66.5631 52.6343C66.6862 52.7757 66.8406 52.8864 67.014 52.9575C67.094 52.9903 67.1773 53.0146 67.2624 53.03L67.2742 53.0317C67.3116 53.0382 67.3492 53.0431 67.3871 53.0464C67.3953 53.0471 67.4035 53.0471 67.4118 53.0476C67.4382 53.0492 67.4647 53.0514 67.4912 53.0514C67.4978 53.0514 67.5044 53.0505 67.5111 53.0504C67.5275 53.05 67.5437 53.0487 67.56 53.0477C67.5877 53.0461 67.6153 53.045 67.6428 53.0417C67.6582 53.0397 67.6735 53.0366 67.6889 53.0341C67.7173 53.0297 67.7455 53.0254 67.7736 53.019C67.7861 53.0162 67.7982 53.0121 67.8105 53.0089C67.8837 52.9905 67.9552 52.9655 68.0239 52.9344C69.091 52.4422 70.2392 52.1497 71.4117 52.0714L71.4133 52.0712ZM71.1684 50.9397C71.1198 50.9438 71.0707 50.9473 71.0228 50.9518C70.9523 50.9586 70.8834 50.9668 70.8142 50.9748C70.7718 50.9797 70.7288 50.9842 70.6868 50.9896C70.6166 50.9984 70.548 51.0088 70.4793 51.0191C70.4394 51.0249 70.3989 51.0303 70.3597 51.0365C70.2938 51.047 70.2294 51.0586 70.1648 51.0703C70.1238 51.0775 70.0823 51.0842 70.0421 51.092C69.983 51.1033 69.9256 51.1154 69.8678 51.1274C69.8235 51.1366 69.7786 51.1454 69.7351 51.155C69.6851 51.1659 69.6367 51.1779 69.5875 51.1894C69.5381 51.2009 69.4879 51.2124 69.4395 51.2244C69.3999 51.2342 69.3619 51.2447 69.323 51.2549C69.267 51.2696 69.2104 51.2841 69.1558 51.2992C69.1276 51.307 69.1004 51.3156 69.0725 51.3234C69.0093 51.3415 68.9461 51.3597 68.8849 51.3784L68.8361 51.3942C68.7652 51.4161 68.695 51.4385 68.627 51.4613L68.6138 51.4659C68.4523 51.52 68.2986 51.5758 68.1534 51.632C68.1365 51.6386 68.1211 51.6452 68.1043 51.6517C68.0482 51.6737 67.992 51.696 67.9383 51.718C67.7967 51.7766 67.6643 51.8348 67.5411 51.8919C67.5272 51.8985 67.512 51.9022 67.4966 51.9028C67.4811 51.9033 67.4658 51.9008 67.4514 51.8952C67.445 51.8925 67.4391 51.8888 67.434 51.8842C67.4297 51.8807 67.4257 51.8767 67.4222 51.8724L66.8013 50.1478C66.8259 50.1084 66.8624 50.078 66.9055 50.061C66.927 50.0508 66.9506 50.0405 66.9728 50.0303C67.066 49.9874 67.16 49.9457 67.255 49.9051C67.2919 49.8894 67.3272 49.8736 67.3649 49.8579C67.4803 49.81 67.5968 49.7639 67.7144 49.7196L67.8149 49.6818C68.5926 49.3957 69.3969 49.1884 70.216 49.063C70.4416 49.324 70.7208 49.5333 71.0346 49.6766C71.3484 49.8199 71.6894 49.8939 72.0344 49.8934C72.3794 49.893 72.7203 49.8181 73.0337 49.6739C73.3471 49.5298 73.6258 49.3197 73.8506 49.0581C73.8793 49.0625 73.9085 49.0658 73.9373 49.0702C73.977 49.0764 74.017 49.0823 74.0562 49.0889C74.163 49.1063 74.2695 49.126 74.3756 49.1463C74.4708 49.1647 74.5645 49.184 74.6567 49.2041C74.7179 49.2172 74.7792 49.2305 74.8403 49.2446C74.9257 49.2646 75.0098 49.2852 75.0926 49.3065C75.1279 49.3155 75.1631 49.3248 75.1982 49.3344C75.3678 49.3792 75.5317 49.4262 75.6901 49.4754C75.7081 49.4812 75.7267 49.4864 75.7449 49.4922C75.8305 49.5193 75.9143 49.5468 75.9962 49.5747C76.0384 49.589 76.0801 49.6039 76.1219 49.6187C76.2353 49.6586 76.345 49.6989 76.4509 49.7396C76.523 49.7675 76.595 49.7959 76.6668 49.8249C76.7291 49.8504 76.7901 49.8758 76.8498 49.9012C76.9464 49.9424 77.0425 49.9849 77.1379 50.0287C77.1621 50.0398 77.1875 50.051 77.211 50.062C77.2521 50.0785 77.2871 50.1072 77.3114 50.1443L77.3135 50.1479L76.6947 51.8668C76.693 51.8712 76.6906 51.8752 76.6876 51.8788C76.681 51.886 76.6728 51.8916 76.6636 51.895C76.6548 51.8983 76.6456 51.9006 76.6362 51.9018C76.615 51.9047 76.5933 51.9014 76.5739 51.8923C75.1787 51.2493 73.6623 50.9116 72.1262 50.9016L72.0953 50.902L72.053 50.9018C72.0144 50.9018 71.9772 50.9034 71.9391 50.9038C71.8653 50.9046 71.7912 50.9051 71.7185 50.9074C71.6591 50.9093 71.601 50.9126 71.5424 50.9154C71.4839 50.9182 71.4248 50.9203 71.367 50.9243C71.2999 50.9285 71.2342 50.9341 71.1684 50.9397ZM74.4217 53.5578C74.3638 53.417 74.2524 53.3049 74.112 53.2462C73.9715 53.1874 73.8135 53.1868 73.6726 53.2445C72.6212 53.6771 71.4415 53.6772 70.3901 53.2446C70.2492 53.1867 70.0911 53.1872 69.9506 53.2459C69.81 53.3046 69.6986 53.4167 69.6407 53.5576C69.5828 53.6984 69.5833 53.8565 69.642 53.9971C69.7007 54.1376 69.8128 54.2491 69.9536 54.3069C70.5696 54.5606 71.2268 54.6992 71.8927 54.7158C71.9372 54.7169 71.9818 54.7174 72.0264 54.7174C72.7404 54.7164 73.4474 54.5771 74.1084 54.3071C74.1781 54.2785 74.2416 54.2364 74.2951 54.1832C74.3486 54.1301 74.3912 54.0669 74.4202 53.9974C74.4494 53.9278 74.4645 53.8531 74.4647 53.7777C74.465 53.7023 74.4504 53.6276 74.4217 53.5578ZM65.9067 42.0641V43.2473C65.9067 43.3996 65.9672 43.5457 66.0749 43.6533C66.1826 43.761 66.3286 43.8215 66.4809 43.8215C66.6332 43.8215 66.7793 43.761 66.887 43.6533C66.9947 43.5457 67.0552 43.3996 67.0552 43.2473V42.0641C67.0552 41.9118 66.9947 41.7657 66.887 41.6581C66.7793 41.5504 66.6332 41.4899 66.4809 41.4899C66.3286 41.4899 66.1826 41.5504 66.0749 41.6581C65.9672 41.7657 65.9067 41.9118 65.9067 42.0641ZM68.1225 40.9596C68.263 41.0153 68.4198 41.0133 68.5588 40.9542C68.6978 40.895 68.808 40.7834 68.8653 40.6437C68.9226 40.5039 68.9226 40.3471 68.8651 40.2074C68.8076 40.0676 68.6974 39.9562 68.5583 39.8971C67.8555 39.6103 67.1013 39.4712 66.3425 39.4885C65.6766 39.5051 65.0194 39.6437 64.4036 39.8973C64.3323 39.9248 64.2672 39.9663 64.2121 40.0193C64.157 40.0723 64.1131 40.1358 64.0828 40.206C64.0526 40.2762 64.0367 40.3517 64.0361 40.4282C64.0354 40.5046 64.05 40.5804 64.0791 40.6511C64.1081 40.7218 64.151 40.786 64.2051 40.84C64.2593 40.8939 64.3237 40.9365 64.3945 40.9652C64.4654 40.9939 64.5412 41.0082 64.6177 41.0072C64.6941 41.0062 64.7696 40.99 64.8397 40.9595C65.8912 40.5269 67.071 40.5269 68.1225 40.9596ZM75.94 40.9596C76.9915 40.527 78.1713 40.527 79.2229 40.9596C79.3633 41.0153 79.5201 41.0133 79.6591 40.9542C79.7982 40.895 79.9083 40.7834 79.9656 40.6437C80.0229 40.5039 80.0229 40.3471 79.9654 40.2074C79.9079 40.0676 79.7977 39.9562 79.6586 39.8971C78.9559 39.6103 78.2016 39.4712 77.4428 39.4885C76.7769 39.5051 76.1198 39.6437 75.5039 39.8973C75.4326 39.9248 75.3675 39.9663 75.3124 40.0193C75.2573 40.0723 75.2134 40.1358 75.1832 40.206C75.1529 40.2762 75.137 40.3517 75.1364 40.4282C75.1357 40.5046 75.1504 40.5804 75.1794 40.6511C75.2084 40.7218 75.2513 40.786 75.3054 40.84C75.3596 40.8939 75.424 40.9365 75.4949 40.9652C75.5657 40.9939 75.6416 41.0082 75.718 41.0072C75.7944 41.0062 75.8699 40.9902 75.94 40.9596ZM77.007 42.0641V43.2473C77.007 43.3996 77.0675 43.5457 77.1752 43.6533C77.2829 43.761 77.429 43.8215 77.5812 43.8215C77.7335 43.8215 77.8796 43.761 77.9873 43.6533C78.095 43.5457 78.1555 43.3996 78.1555 43.2473V42.0641C78.1555 41.9118 78.095 41.7657 77.9873 41.6581C77.8796 41.5504 77.7335 41.4899 77.5812 41.4899C77.429 41.4899 77.2829 41.5504 77.1752 41.6581C77.0675 41.7657 77.007 41.9118 77.007 42.0641Z" fill="#881415"/>
</g>
<defs>
<clipPath id="clip0_17_4626">
<rect width="84" height="84" fill="white" transform="translate(22.6403 22.6687)"/>
</clipPath>
</defs>
</svg>
