<svg width="503" height="503" viewBox="0 0 503 503" fill="none" xmlns="http://www.w3.org/2000/svg">
<path d="M62.2172 426.32C72.2026 436.832 81.6508 443.611 89.1156 448.967C176.862 511.926 280.69 493.574 302.757 489.092C335.342 482.474 398.328 469.681 443.866 416.129C512.761 335.11 502.033 207.467 448.593 123.208C438.818 107.795 387.184 22.2525 282.238 8.53411C218.726 0.231833 144.691 16.9764 91.0769 61.8944C-21.4639 156.181 -13.4522 346.657 62.2172 426.32Z" fill="#FCEBDB"/>
<path d="M370.372 244.388C375.683 222.491 387.627 204.481 402.474 193.326C415.746 183.355 424.794 168.667 427.392 152.271C427.665 150.548 428.011 148.814 428.433 147.076C434.82 120.741 456.094 103.296 475.949 108.112C495.805 112.927 506.723 138.18 500.336 164.514C499.03 169.899 497.101 174.911 494.689 179.437C486.991 193.879 484.744 210.695 489.024 226.492C492.849 240.608 493.183 256.791 489.201 273.208C483.263 297.692 469.031 317.318 451.721 327.934C445.174 331.949 439.376 337.13 434.7 343.223C426.928 353.347 415.362 358.68 404.215 355.976C392.189 353.06 384.016 341.607 382.529 327.662C381.687 319.77 379.305 312.148 375.788 305.034C367.483 288.239 365.003 266.527 370.372 244.388Z" fill="#91B3FA"/>
<path opacity="0.57" d="M462.202 134.441C455.387 151.216 449.115 168.197 443.02 185.243C441.494 189.504 440.037 193.788 438.566 198.068L436.361 204.489L434.209 210.928C432.791 215.226 431.314 219.505 429.945 223.819L425.836 236.761C423.206 245.425 420.504 254.065 418.035 262.777C416.795 267.13 415.47 271.459 414.318 275.839L410.802 288.957C406.29 306.495 402.216 324.154 399.041 341.985L399.806 342.128L402.688 328.878L403.401 325.565L404.197 322.27L405.8 315.683L407.391 309.094C407.918 306.897 408.525 304.719 409.089 302.531C410.244 298.162 411.365 293.784 412.548 289.423C417.395 272.007 422.472 254.656 427.906 237.411C430.689 228.809 433.398 220.184 436.24 211.602L438.354 205.159L440.522 198.734C441.965 194.449 443.408 190.165 444.894 185.895C447.793 177.331 450.753 168.786 453.783 160.266C456.769 151.73 459.835 143.22 462.927 134.724L462.202 134.441Z" fill="white"/>
<path d="M255.861 229.726C258.427 202.961 269.51 179.666 285.194 163.978C299.215 149.955 307.431 131.075 307.721 111.266C307.752 109.184 307.867 107.077 308.071 104.952C311.157 72.762 333.382 48.5578 357.712 50.8905C382.042 53.2232 399.264 81.2094 396.177 113.399C395.546 119.982 394.114 126.228 392.027 131.982C385.367 150.345 385.565 170.591 393.318 188.528C400.247 204.559 403.393 223.62 401.469 243.686C398.6 273.615 385.083 299.205 366.39 314.672C359.32 320.522 353.337 327.623 348.834 335.611C341.352 348.885 328.563 357.139 314.904 355.83C300.168 354.417 288.544 342.269 284.412 326.046C282.073 316.866 277.958 308.264 272.583 300.454C259.895 282.018 253.266 256.787 255.861 229.726Z" fill="#BDD0FB"/>
<path opacity="0.57" d="M345.91 84.3178C340.692 105.287 336.151 126.408 331.832 147.575C330.75 152.867 329.753 158.175 328.739 163.48L327.219 171.437L325.765 179.408C324.817 184.725 323.795 190.029 322.907 195.358L320.241 211.341C318.601 222.02 316.869 232.684 315.427 243.393C314.699 248.746 313.866 254.084 313.246 259.452L311.312 275.544C308.951 297.025 307.129 318.575 306.4 340.176L307.331 340.216L308.491 324.076L308.772 320.041L309.154 316.014L309.934 307.961L310.698 299.909C310.947 297.225 311.297 294.549 311.592 291.869C312.217 286.512 312.8 281.151 313.46 275.799C316.238 254.406 319.301 233.049 322.804 211.758C324.636 201.126 326.378 190.48 328.285 179.86L329.693 171.892L331.168 163.935C332.148 158.63 333.129 153.325 334.162 148.029C336.14 137.421 338.193 126.827 340.332 116.249C342.416 105.661 344.601 95.0893 346.817 84.5294L345.91 84.3178Z" fill="white"/>
<path d="M35.2398 489.365H155.402C160.767 489.365 165.115 485.017 165.115 479.653V359.893C165.115 354.529 160.767 350.181 155.402 350.181H25.5271V479.653C25.5271 485.017 29.8756 489.365 35.2398 489.365Z" fill="#1B2A4B"/>
<path d="M8.07337 350.753H173.004L245.698 229.445H43.3869L1.5763 340.578C-0.625154 345.325 2.84104 350.753 8.07337 350.753Z" fill="url(#paint0_linear_17_4147)"/>
<path d="M462.583 491.682H342.752V348.273H475.762V478.503C475.762 485.782 469.862 491.682 462.583 491.682Z" fill="#1B2A4B"/>
<path d="M494.819 350.753H337.661L249.792 229.445L461.17 232.848L501.01 340.864C503.108 345.477 499.805 350.753 494.819 350.753Z" fill="black"/>
<path d="M8.07337 350.753H173.004L245.698 229.445H43.3869L1.5763 340.578C-0.625154 345.325 2.84104 350.753 8.07337 350.753Z" fill="url(#paint1_linear_17_4147)"/>
<mask id="mask0_17_4147" style="mask-type:luminance" maskUnits="userSpaceOnUse" x="0" y="229" width="246" height="122">
<path d="M8.07337 350.753H173.004L245.698 229.445H43.3869L1.5763 340.578C-0.625154 345.325 2.84104 350.753 8.07337 350.753Z" fill="white"/>
</mask>
<g mask="url(#mask0_17_4147)">
<path d="M3.73926 350.773H132.966V343.92H3.73926V350.773Z" fill="url(#paint2_linear_17_4147)"/>
<path d="M8.43652 339.326H132.967V332.473H8.43652V339.326Z" fill="url(#paint3_linear_17_4147)"/>
<path d="M12.3943 327.159H132.967V320.306H12.3943V327.159Z" fill="url(#paint4_linear_17_4147)"/>
<path d="M17.094 315.712H132.966V308.859H17.094V315.712Z" fill="url(#paint5_linear_17_4147)"/>
<path d="M21.0518 302.67H136.182V295.817H21.0518V302.67Z" fill="url(#paint6_linear_17_4147)"/>
<path d="M25.5271 291.223H136.182V284.37H25.5271V291.223Z" fill="url(#paint7_linear_17_4147)"/>
<path d="M30.2046 279.027H142.861V272.173H30.2046V279.027Z" fill="url(#paint8_linear_17_4147)"/>
<path d="M32.9253 267.579H142.861V260.726H32.9253V267.579Z" fill="url(#paint9_linear_17_4147)"/>
<path d="M37.8726 255.28H151.519V248.427H37.8726V255.28Z" fill="url(#paint10_linear_17_4147)"/>
<path d="M13.4978 243.833H156.853V236.979H13.4978V243.833Z" fill="url(#paint11_linear_17_4147)"/>
</g>
<mask id="mask1_17_4147" style="mask-type:luminance" maskUnits="userSpaceOnUse" x="0" y="229" width="246" height="122">
<path d="M8.07337 350.753H173.004L245.698 229.445H43.3869L1.5763 340.578C-0.625154 345.325 2.84104 350.753 8.07337 350.753Z" fill="white"/>
</mask>
<g mask="url(#mask1_17_4147)">
<path d="M-0.855225 352.759L5.34011 354.974L53.8989 219.201L47.7034 216.985L-0.855225 352.759Z" fill="url(#paint12_linear_17_4147)"/>
</g>
<mask id="mask2_17_4147" style="mask-type:luminance" maskUnits="userSpaceOnUse" x="0" y="229" width="246" height="122">
<path d="M8.07337 350.753H173.004L245.698 229.445H43.3869L1.5763 340.578C-0.625154 345.325 2.84104 350.753 8.07337 350.753Z" fill="white"/>
</mask>
<g mask="url(#mask2_17_4147)">
<path d="M63.8303 359.006L70.2777 361.312L118.836 225.538L112.389 223.232L63.8303 359.006Z" fill="url(#paint13_linear_17_4147)"/>
</g>
<path d="M42.3976 232.838L241.06 234.783L245.464 220.792C245.664 220.157 245.05 219.544 244.214 219.544H55.4224C48.2289 219.544 42.3975 223.153 42.3975 227.604L42.3976 232.838Z" fill="url(#paint14_linear_17_4147)"/>
<path d="M396.335 347.139C395.671 347.139 395.13 346.603 395.125 345.938C395.12 345.27 395.658 344.724 396.326 344.719L489.022 344.039C489.862 344.033 490.621 343.637 491.105 342.952C491.59 342.266 491.711 341.418 491.437 340.625L462.722 257.372C462.504 256.74 462.84 256.051 463.472 255.834C464.104 255.614 464.793 255.952 465.01 256.583L493.725 339.835C494.256 341.375 494.021 343.02 493.081 344.349C492.141 345.678 490.668 346.447 489.04 346.459L396.344 347.139C396.341 347.139 396.338 347.139 396.335 347.139Z" fill="#BDD0FB"/>
<path d="M381.564 488.133V281.696C381.564 279.483 380.373 277.44 378.448 276.349L249.875 203.495C247.921 202.388 245.519 202.435 243.61 203.617L120.207 280.026C118.397 281.147 117.296 283.124 117.296 285.252V489.287C117.296 492.692 120.065 495.448 123.47 495.432L375.446 494.279C378.829 494.263 381.564 491.516 381.564 488.133Z" fill="#172440"/>
<path d="M251.557 180.425L403.105 276.422C405.445 277.904 405.914 280.579 404.173 282.511C397.393 290.033 384.022 291.471 374.959 285.654L250.612 205.827C248.509 204.477 245.493 204.502 243.426 205.887L122.919 286.655C114.969 291.983 103.041 291.058 96.5434 284.61L94.4504 282.533C92.5166 280.614 92.8987 277.818 95.3059 276.271L244.485 180.447C246.638 179.065 249.397 179.056 251.557 180.425Z" fill="black"/>
<path d="M279.389 391.163H214.147C210.454 391.163 207.449 388.158 207.449 384.464V296.159C207.449 296.122 207.451 296.085 207.454 296.048C209.75 271.099 229.664 259.945 247.622 259.945C247.992 259.945 248.362 259.949 248.73 259.959C266.419 260.413 285.904 271.919 286.882 296.11L286.883 383.669C286.883 387.801 283.521 391.163 279.389 391.163ZM209.869 296.215V384.464C209.869 386.823 211.788 388.743 214.147 388.743H279.389C282.187 388.743 284.463 386.466 284.463 383.669V296.159C283.548 273.572 265.266 262.804 248.667 262.378C231.547 261.948 212.095 272.341 209.869 296.215Z" fill="white"/>
<path d="M244.501 315.119H214.569C213.736 315.119 213.06 315.794 213.06 316.628V345.05C213.06 345.745 213.623 346.308 214.318 346.308H243.62C244.662 346.308 245.507 345.463 245.507 344.422V316.125C245.507 315.569 245.056 315.119 244.501 315.119Z" fill="white"/>
<path d="M279.086 310.843C279.989 310.843 280.721 310.111 280.721 309.208V297.492C279.987 278.147 265.956 267.744 250.855 266.428C250.145 266.366 249.531 266.917 249.531 267.629V309.082C249.531 310.054 250.32 310.843 251.292 310.843H279.086Z" fill="white"/>
<path d="M213.06 351.967V375.66C213.06 378.054 215.018 380.012 217.412 380.012H244.124C244.888 380.012 245.507 379.393 245.507 378.629V351.967C245.507 351.203 244.888 350.584 244.124 350.584H214.443C213.68 350.584 213.06 351.203 213.06 351.967Z" fill="white"/>
<path d="M244.121 266.447C229.029 267.84 214.768 278.142 213.06 297.492V309.459C213.06 310.223 213.679 310.843 214.443 310.843H244.375C245 310.843 245.507 310.336 245.507 309.711V267.693C245.507 266.949 244.862 266.378 244.121 266.447Z" fill="white"/>
<path d="M249.531 316.754V344.799C249.531 345.632 250.207 346.308 251.041 346.308H279.086C279.989 346.308 280.721 345.576 280.721 344.673V316.88C280.721 315.907 279.932 315.119 278.96 315.119H251.166C250.263 315.119 249.531 315.851 249.531 316.754Z" fill="white"/>
<path d="M251.292 380.012H276.657C278.901 380.012 280.72 378.193 280.72 375.949V352.093C280.72 351.259 280.045 350.584 279.211 350.584H250.537C249.982 350.584 249.531 351.034 249.531 351.59V378.251C249.531 379.224 250.32 380.012 251.292 380.012Z" fill="white"/>
<path d="M97.5763 281.082C97.1799 281.082 96.7922 280.888 96.5602 280.531C96.1963 279.97 96.3558 279.221 96.9165 278.857L243.789 183.502C246.41 181.799 249.797 181.801 252.417 183.508L271.104 195.682C271.665 196.046 271.822 196.796 271.458 197.356C271.093 197.916 270.343 198.074 269.783 197.709L251.096 185.536C249.276 184.351 246.927 184.349 245.107 185.531L98.2338 280.887C98.0305 281.019 97.8019 281.082 97.5763 281.082Z" fill="#BDD0FB"/>
<path opacity="0.57" d="M123.323 426.008C122.655 426.008 122.113 425.467 122.113 424.799V315.904C122.113 315.236 122.655 314.694 123.323 314.694C123.991 314.694 124.533 315.236 124.533 315.904V424.799C124.533 425.467 123.991 426.008 123.323 426.008Z" fill="white"/>
<path d="M448.192 468.016H407.054C402.256 468.016 398.367 464.127 398.367 459.329V385.957C398.367 381.16 402.256 377.271 407.054 377.271H448.192C452.989 377.271 456.879 381.16 456.879 385.957V459.329C456.879 464.127 452.989 468.016 448.192 468.016Z" fill="white"/>
<path d="M96.5351 468.191H55.3972C50.5998 468.191 46.7107 464.302 46.7107 459.504V386.132C46.7107 381.334 50.5998 377.445 55.3972 377.445H96.5351C101.332 377.445 105.222 381.334 105.222 386.132V459.504C105.222 464.302 101.332 468.191 96.5351 468.191Z" fill="white"/>
<path d="M163.225 207.153C163.225 207.153 164.044 211.541 164.466 215.889C164.631 217.588 163.334 219.076 161.629 219.164C155.838 219.46 143.448 220.048 138.999 219.892C138.33 219.868 137.886 219.188 138.128 218.564C138.33 218.041 138.726 217.616 139.233 217.377L159.616 207.772L163.225 207.153Z" fill="#7D97F4"/>
<path d="M163.837 204.565L163.264 209.828C163.264 209.828 159.693 211.532 157.226 209.675L158.655 203.802L163.837 204.565Z" fill="url(#paint15_linear_17_4147)"/>
<path d="M186.797 209.222C186.797 209.222 188.054 211.429 189.307 217.313C189.533 218.376 188.799 219.402 187.719 219.519C185.807 219.726 182.864 219.995 180.505 220.002C179.417 220.005 178.559 219.066 178.68 217.985C178.921 215.83 179.701 212.291 182.19 209.515L186.797 209.222Z" fill="#7D97F4"/>
<path d="M187.819 202.449L186.437 210.414C186.437 210.414 185.006 211.499 182.147 210.75L182.762 202.189L187.819 202.449Z" fill="url(#paint16_linear_17_4147)"/>
<path d="M162.425 105.729C162.708 107.099 162.373 179.563 155.484 209.72C155.371 210.212 161.163 213.135 164.48 211.46C164.48 211.46 177.203 167.273 178.28 129.925C179.357 92.5778 178.268 128.654 178.268 128.654L177.207 105.585L162.425 105.729Z" fill="url(#paint17_linear_17_4147)"/>
<path d="M190.851 107.518C197.296 144.242 190.227 205.739 188.198 212.923C188.163 212.934 183.341 213.673 180.297 212.326C179.791 208.939 181.191 147.297 175.21 126.206C174.924 125.194 174.296 124.315 173.433 123.714L162.746 116.269L161.816 104.079L190.851 107.518Z" fill="url(#paint18_linear_17_4147)"/>
<path d="M152.809 40.7541C170.354 39.4426 189.852 45.0198 189.852 45.0198C195.387 75.5639 191.398 110.893 191.398 110.893C177.814 114.595 162.397 108.986 162.397 108.986C160.012 96.2204 149.108 60.3326 149.108 60.3326C147.476 72.5562 133.4 86.0744 127.538 82.8518C131.937 77.6542 128.323 65.3302 129.197 61.444C135.434 63.3174 143.913 41.4192 152.809 40.7541Z" fill="url(#paint19_linear_17_4147)"/>
<path d="M175.34 60.9357C175.421 60.9535 175.489 61.005 175.529 61.0772L192.66 77.4162C192.77 77.5213 192.848 77.6567 192.875 77.8067C193.463 81.1132 191.962 111.984 191.489 111.519C193.182 113.77 163.267 113.987 162.722 111.077C162.722 111.077 152.452 74.3221 152.604 74.1194L155.351 59.2376C155.374 58.823 155.732 58.5096 156.146 58.5398C159.793 58.8066 175.34 60.9357 175.34 60.9357Z" fill="url(#paint20_linear_17_4147)"/>
<path d="M183.268 62.1164L189.852 45.0197C189.852 45.0197 206.389 56.0264 209.226 70.1547C206.123 70.4131 200.482 71.2744 194.979 74.1191C193.7 67.4476 183.268 62.1164 183.268 62.1164Z" fill="url(#paint21_linear_17_4147)"/>
<path d="M169.062 78.2805C169.062 78.2805 187.609 88.5299 193.748 79.5685C195.022 77.7077 195.314 75.8677 194.979 74.1194C200.482 71.2747 206.123 70.4132 209.225 70.1551C210.081 74.4145 209.693 78.9568 207.23 83.5674C196.517 103.616 166.664 82.8521 166.664 82.8521L169.062 78.2805Z" fill="url(#paint22_linear_17_4147)"/>
<path d="M170.49 26.3036L176.242 42.4361C176.337 42.7033 176.229 43.0014 175.982 43.1412C174.465 43.9992 168.992 46.4898 162.327 42.3533C161.633 41.9223 161.157 41.2134 161.044 40.4041L159.098 26.4126L170.49 26.3036Z" fill="url(#paint23_linear_17_4147)"/>
<path d="M155.738 40.5188L155.74 59.2643L160.008 59.5696L160.612 40.7253L155.738 40.5188Z" fill="url(#paint24_linear_17_4147)"/>
<path d="M174.915 61.1176C174.915 61.1176 182.197 42.6673 182.66 43.2663L177.623 42.6673C177.449 42.6403 170.628 60.594 170.628 60.594L174.915 61.1176Z" fill="url(#paint25_linear_17_4147)"/>
<path d="M155.325 15.8118C155.223 16.0471 154.15 32.9624 154.15 32.9624L163.822 33.3696L167.221 17.4884C167.221 17.4884 157.028 11.8723 155.325 15.8118Z" fill="url(#paint26_linear_17_4147)"/>
<path d="M163.825 19.354C164.127 19.6616 164.27 20.089 164.213 20.5166L163.095 28.8941C163.078 29.0213 163.045 29.1437 162.994 29.2611C162.71 29.9085 161.639 31.8968 159.626 30.6882C157.91 29.6582 156.319 28.7352 155.001 28.6405C154.231 28.585 153.569 29.1804 153.523 29.9511C153.429 31.5387 153.302 34.7456 153.59 37.6107C153.662 38.3288 154.281 38.8661 155.002 38.8497C156.906 38.8065 160.622 38.6106 163.633 37.7754C164.128 37.6382 164.505 37.2416 164.619 36.7409C165.118 34.5379 166.543 28.3683 167.213 26.6885C167.857 25.0753 169.402 25.382 170.681 24.6922C171.979 23.9927 172.34 22.1843 172.435 20.7984C172.608 18.2712 172.328 14.5692 170.222 12.8445C167.668 10.7539 165.564 13.375 163.297 12.3155C160.185 10.8612 156.094 12.0723 153.502 14.2147C149.473 17.5434 157.357 18.0851 159.291 17.5257C161.173 16.9818 162.992 18.5064 163.825 19.354Z" fill="url(#paint27_linear_17_4147)"/>
<path d="M166.769 29.7795C166.769 29.7795 166.365 24.6237 168.401 23.9399C170.438 23.256 172.83 24.5459 171.345 27.799C169.498 31.8452 166.769 29.7795 166.769 29.7795Z" fill="url(#paint28_linear_17_4147)"/>
<path d="M147.805 12.582C147.805 12.582 150.231 -0.4541 163.713 2.03739C177.195 4.5287 173.959 14.6137 173.959 14.6137L147.805 12.582Z" fill="url(#paint29_linear_17_4147)"/>
<path d="M170.949 5.01173C170.949 5.01173 153.648 -0.967561 151.382 12.8596C148.371 12.6374 147.805 12.5818 147.805 12.5818C147.805 12.5818 149.787 0.214362 158.741 0.965464C167.694 1.71657 170.154 2.7289 170.949 5.01173Z" fill="url(#paint30_linear_17_4147)"/>
<path d="M156.62 13.5967C156.664 13.601 156.71 13.5848 156.743 13.5499L156.814 13.4712C158.44 11.6856 161.162 8.69668 163.718 8.82793C164.952 8.89022 166.235 9.1898 167.476 9.47713C168.352 9.68003 169.259 9.89067 170.137 10.0162C171.332 10.1881 172.644 10.3609 174.143 10.5444L174.147 10.5447C174.226 10.5525 174.297 10.4959 174.307 10.416C174.318 10.335 174.26 10.2623 174.179 10.252C172.68 10.0687 171.372 9.89625 170.179 9.7245C169.313 9.60118 168.413 9.39251 167.544 9.19034C166.288 8.89922 164.984 8.60217 163.734 8.53357C161.038 8.39459 158.258 11.4492 156.596 13.273L156.525 13.3504C156.471 13.4109 156.475 13.5038 156.535 13.5594C156.559 13.5814 156.589 13.5936 156.62 13.5967Z" fill="white"/>
<path d="M174.543 16.3762L144.327 15.5823C144.137 15.5774 143.971 15.4528 143.912 15.2717C143.853 15.0906 143.915 14.892 144.066 14.7763C145.281 13.8477 147.331 12.4243 148.384 12.5084C151.761 12.7788 173.959 14.6135 173.959 14.6135C173.959 14.6135 174.515 14.6683 174.543 16.3762Z" fill="url(#paint31_linear_17_4147)"/>
<path d="M126.928 60.1706L107.332 112.257C104.936 128.249 147.628 128.702 161.432 112.257L175.531 67.2528C176.569 63.9393 174.112 60.5645 170.64 60.5355L126.928 60.1706Z" fill="#22355E"/>
<path d="M76.2467 59.7778L56.6509 111.864C54.2548 127.856 96.9472 128.309 110.751 111.864L126.937 60.2011L76.2467 59.7778Z" fill="#121F3A"/>
<path d="M77.3057 59.8082C77.2262 60.0622 72.0046 59.7628 71.643 59.7598C67.2129 59.722 62.7826 59.6842 58.3525 59.6462C52.3273 59.5947 46.3019 59.5432 40.2767 59.4917C37.8704 59.4712 35.464 59.4507 33.0575 59.4299C31.3106 59.415 28.2751 58.8234 27.1713 60.4986C26.3512 61.7452 25.8754 64.1148 25.2782 65.6147C24.3638 67.9114 23.4493 70.2081 22.5349 72.5047C20.285 78.1555 18.0349 83.806 15.785 89.4568C12.8633 96.7949 9.94131 104.133 7.01954 111.471C4.62347 127.463 47.3158 127.916 61.1201 111.471C61.1205 111.471 77.2827 59.882 77.3057 59.8082Z" fill="#22355E"/>
<path d="M170.412 85.9542C170.412 85.9542 171.819 80.1672 171.251 78.1141C170.684 76.061 169.584 73.4213 165.918 74.0078C162.251 74.5944 157.927 76.1389 157.927 76.1389C157.927 76.1389 158.145 78.8131 160.931 77.9504L159.203 79.2875C159.203 79.2875 159.451 81.4287 161.804 80.2847L160.197 82.0579C160.197 82.0579 161.208 83.8165 162.939 82.6885C164.671 81.5605 165.501 86.6511 170.412 85.9542Z" fill="url(#paint32_linear_17_4147)"/>
<path d="M423.241 481.225C423.241 481.225 424.5 488.356 425.118 495.415C425.359 498.174 423.232 500.569 420.465 500.684C411.064 501.076 390.956 501.837 383.741 501.515C382.656 501.467 381.947 500.357 382.348 499.348C382.685 498.502 383.334 497.819 384.16 497.439L417.375 482.173L423.241 481.225Z" fill="url(#paint33_linear_17_4147)"/>
<path d="M424.272 477.035L423.26 485.565C423.26 485.565 417.442 488.273 413.468 485.223L415.878 475.718L424.272 477.035Z" fill="url(#paint34_linear_17_4147)"/>
<path d="M423.512 316.673C423.949 318.9 425.858 427.83 414.214 476.645C414.024 477.442 414.428 478.263 415.186 478.573C416.972 479.302 420.473 480.359 424.669 480.5C425.968 480.543 427.133 479.699 427.5 478.452C430.828 467.126 446.777 410.38 448.858 356.172C451.183 295.601 448.858 354.11 448.858 354.11L447.494 316.668L423.512 316.673Z" fill="url(#paint35_linear_17_4147)"/>
<path d="M461.449 484.945C461.449 484.945 463.454 488.545 465.395 498.112C465.746 499.839 464.539 501.493 462.784 501.665C459.68 501.97 454.902 502.363 451.074 502.337C449.309 502.324 447.932 500.788 448.145 499.036C448.569 495.545 449.889 489.816 453.97 485.351L461.449 484.945Z" fill="url(#paint36_linear_17_4147)"/>
<path d="M463.21 473.974L460.845 486.873C460.845 486.873 458.507 488.612 453.882 487.352L455.01 473.473L463.21 473.974Z" fill="url(#paint37_linear_17_4147)"/>
<path d="M469.598 320.016C479.121 377.488 467.533 462.063 463.624 478.616C463.385 479.63 462.567 480.406 461.54 480.576C459.795 480.866 456.923 481.102 454.091 480.279C453.116 479.996 452.43 479.116 452.39 478.101C451.866 464.718 452.81 382.559 443.937 350.09C443.487 348.445 442.482 347.01 441.092 346.021L423.869 333.777L422.549 313.986L469.598 320.016Z" fill="url(#paint38_linear_17_4147)"/>
<path d="M408.917 211.117C437.456 210.645 468.945 218.61 468.945 218.61C477.452 268.247 470.433 325.5 470.433 325.5C448.339 331.294 423.415 321.957 423.415 321.957C419.743 301.21 402.61 242.821 402.61 242.821C388.666 241.09 377.179 237.067 367.72 231.749C374.935 223.385 378.337 212.742 379.814 206.451C389.904 209.587 400.115 211.262 408.917 211.117Z" fill="url(#paint39_linear_17_4147)"/>
<path d="M324.618 169.08C327.422 165.694 330.97 167.296 330.97 167.296C335.17 185.036 357.191 199.42 379.814 206.451C378.337 212.742 374.935 223.385 367.72 231.749C330.174 210.639 324.618 169.08 324.618 169.08Z" fill="url(#paint40_linear_17_4147)"/>
<path d="M325.299 169.942C325.006 170.874 328.403 172.294 330.403 168.48C330.473 166.652 331.584 158.821 330.492 157.332C324.674 149.401 313.396 139.458 313.396 139.458C311.49 141.339 313.06 143.187 313.06 143.187L318.531 148.887C317.387 150.955 315.991 152.701 315.337 155.202C314.841 157.097 315.144 159.121 316.101 160.845C317.062 162.576 318.372 164.825 319.611 166.585C321.956 169.916 325.299 169.942 325.299 169.942Z" fill="url(#paint41_linear_17_4147)"/>
<path d="M320.925 152.585L325.911 156.812L327.476 161.02L323.031 165.952C323.031 165.952 321.536 157.602 320.425 155.795C319.314 153.987 319.89 153.114 320.925 152.585Z" fill="url(#paint42_linear_17_4147)"/>
<path d="M457.999 246.244L468.945 218.61C468.945 218.61 495.602 236.722 499.986 259.687C494.949 260.058 485.784 261.367 476.813 265.897C474.842 255.054 457.999 246.244 457.999 246.244Z" fill="url(#paint43_linear_17_4147)"/>
<path d="M434.704 272.247C434.704 272.247 464.633 289.161 474.731 274.718C476.828 271.719 477.329 268.739 476.813 265.897C485.784 261.367 494.949 260.057 499.986 259.686C501.308 266.609 500.609 273.972 496.541 281.414C478.852 313.772 430.743 279.625 430.743 279.625L434.704 272.247Z" fill="url(#paint44_linear_17_4147)"/>
<path d="M437.825 187.948L446.905 214.208C447.056 214.643 446.877 215.125 446.474 215.348C443.999 216.716 435.081 220.672 424.334 213.858C423.214 213.148 422.452 211.991 422.282 210.676L419.342 187.947H437.825V187.948Z" fill="url(#paint45_linear_17_4147)"/>
<path d="M418.066 163.63C418.066 163.63 408.095 182.4 409.373 189.982C410.651 197.564 423.009 197.02 433.801 190.862L441.342 170.594L418.066 163.63Z" fill="url(#paint46_linear_17_4147)"/>
<path d="M433.324 180.908C432.885 180.714 432.724 180.178 432.986 179.776C433.785 178.556 435.283 176.066 435.76 173.886C435.76 173.886 437.553 172.738 431.198 171.217C424.843 169.696 415.366 167.335 413.374 161.926C411.432 156.652 419.342 148.2 424.676 153.956C425.021 154.329 425.593 154.368 425.902 153.965C427.236 152.228 430.745 148.623 435.616 150.808C440.175 152.854 440.689 156.194 440.626 157.878C440.608 158.373 441.05 158.759 441.537 158.665C443.842 158.226 449.373 157.848 451.955 163.522C454.081 168.196 452.699 170.841 451.44 172.135C451.032 172.554 451.211 173.244 451.77 173.415C453.285 173.879 455.241 175.164 455.045 178.712C454.775 183.619 449.289 183.186 447.728 182.963C447.472 182.926 447.214 183.014 447.041 183.206C445.701 184.688 439.668 190.98 433.138 191.738C432.573 191.804 432.135 191.246 432.32 190.707L435.146 182.493C435.277 182.111 435.094 181.693 434.725 181.529L433.324 180.908Z" fill="url(#paint47_linear_17_4147)"/>
<path d="M432.188 182.074C432.188 182.074 439.288 177.203 439.807 181.306C440.325 185.408 433.413 187.247 429.989 185.718L432.188 182.074Z" fill="url(#paint48_linear_17_4147)"/>
<path d="M414.112 155.184C414.112 155.184 425.425 135.647 445.64 147.32C465.855 158.993 454.921 173.333 454.921 173.333L414.112 155.184Z" fill="url(#paint49_linear_17_4147)"/>
<path d="M455.557 156.212C455.557 156.212 431.201 136.769 419.692 157.666C414.988 155.595 414.111 155.184 414.111 155.184C414.111 155.184 424.332 136.467 438.271 142.77C452.211 149.072 455.582 152.097 455.557 156.212Z" fill="url(#paint50_linear_17_4147)"/>
<path d="M427.678 161.83C427.747 161.862 427.829 161.862 427.903 161.825L428.06 161.739C431.686 159.8 437.755 156.553 441.783 158.219C443.726 159.021 445.615 160.233 447.443 161.4C448.733 162.225 450.068 163.078 451.405 163.78C453.226 164.736 455.231 165.76 457.533 166.908L457.539 166.911C457.661 166.968 457.808 166.918 457.87 166.796C457.933 166.671 457.882 166.522 457.757 166.459C455.457 165.312 453.457 164.291 451.64 163.336C450.32 162.645 448.995 161.798 447.715 160.978C445.866 159.796 443.941 158.577 441.975 157.755C437.728 155.997 431.528 159.316 427.824 161.297L427.666 161.381C427.544 161.447 427.499 161.599 427.562 161.721C427.588 161.771 427.63 161.808 427.678 161.83Z" fill="white"/>
<path d="M454.855 176.494L406.822 158.018C406.52 157.902 406.324 157.608 406.333 157.283C406.341 156.959 406.553 156.676 406.862 156.576C409.34 155.778 413.44 154.661 415.081 155.395C420.347 157.752 454.92 173.333 454.92 173.333C454.92 173.333 455.781 173.737 454.855 176.494Z" fill="url(#paint51_linear_17_4147)"/>
<path d="M347.717 213.014C347.724 212.992 347.733 212.963 347.74 212.942L347.822 212.886L348.239 212.578L354.144 208.277C354.98 207.669 356.055 207.491 357.043 207.799C358.03 208.107 358.814 208.864 359.156 209.84L362.107 218.266L367.745 234.353C367.745 234.353 341.635 234.492 347.717 213.014Z" fill="#E8EEFD"/>
<path d="M347.709 213.014C347.746 212.964 347.781 212.921 347.818 212.886L348.237 212.578C346.139 215.661 349.734 216.245 362.107 218.267C364.07 218.585 366.258 218.939 368.677 219.35C382.005 221.593 394.271 215.2 399.883 211.616C400.697 211.095 401.7 210.962 402.622 211.251C403.543 211.54 404.29 212.222 404.662 213.114C409.443 224.548 423.576 258.321 424.277 259.592L438.094 291.954C438.094 291.954 438.268 297.28 430.48 302.376C422.684 307.472 420.3 309.405 409.236 307.421C403.552 306.407 396.417 304.2 390.824 302.308C390.824 302.308 390.824 302.308 390.817 302.3C390.809 302.3 390.793 303.121 390.786 303.12C385.928 301.475 382.246 300.66 381.693 300.66H381.686C381.642 300.66 381.393 299.803 381.393 299.803L365.552 262.285V262.278L365.257 261.052C358.87 251.545 354.613 243.853 351.684 237.626C351.643 237.537 351.659 237.451 351.611 237.355C350.932 235.908 350.36 234.538 349.829 233.249C344.401 219.993 346.421 214.767 347.709 213.014Z" fill="#282A36"/>
<path d="M390.786 303.121C385.928 301.475 382.246 300.66 381.693 300.66H381.686L365.94 263.355C365.884 263.274 365.552 262.365 365.552 262.285V262.278C357.687 252.121 354.471 244.047 351.569 237.624C351.528 237.536 351.602 237.45 351.554 237.354C351.15 236.447 350.833 235.571 350.486 234.724L350.474 234.607C350.839 235.083 362.579 250.922 366.684 256.236C370.382 261.029 387.095 295.54 390.786 303.121Z" fill="#282A36"/>
<path d="M434.354 279.864C434.354 279.864 436.629 270.508 435.711 267.188C434.793 263.869 433.015 259.601 427.088 260.549C421.16 261.498 414.168 263.995 414.168 263.995C414.168 263.995 414.521 268.318 419.026 266.923L416.232 269.085C416.232 269.085 416.632 272.547 420.437 270.697L417.839 273.564C417.839 273.564 419.473 276.407 422.272 274.583C425.072 272.76 426.414 280.99 434.354 279.864Z" fill="url(#paint52_linear_17_4147)"/>
<defs>
<linearGradient id="paint0_linear_17_4147" x1="78.7844" y1="74.0384" x2="102.533" y2="187.589" gradientUnits="userSpaceOnUse">
<stop stop-color="#FEBBBA"/>
<stop offset="1" stop-color="#FF928E"/>
</linearGradient>
<linearGradient id="paint1_linear_17_4147" x1="0.903065" y1="290.099" x2="245.698" y2="290.099" gradientUnits="userSpaceOnUse">
<stop stop-color="#E1473D"/>
<stop offset="1" stop-color="#E9605A"/>
</linearGradient>
<linearGradient id="paint2_linear_17_4147" x1="98.6006" y1="102.483" x2="90.1312" y2="171.046" gradientUnits="userSpaceOnUse">
<stop stop-color="#FF928E"/>
<stop offset="1" stop-color="#FE7062"/>
</linearGradient>
<linearGradient id="paint3_linear_17_4147" x1="99.5214" y1="102.596" x2="91.0519" y2="171.159" gradientUnits="userSpaceOnUse">
<stop stop-color="#FF928E"/>
<stop offset="1" stop-color="#FE7062"/>
</linearGradient>
<linearGradient id="paint4_linear_17_4147" x1="99.9901" y1="102.654" x2="91.5206" y2="171.216" gradientUnits="userSpaceOnUse">
<stop stop-color="#FF928E"/>
<stop offset="1" stop-color="#FE7062"/>
</linearGradient>
<linearGradient id="paint5_linear_17_4147" x1="100.912" y1="102.767" x2="92.4423" y2="171.33" gradientUnits="userSpaceOnUse">
<stop stop-color="#FF928E"/>
<stop offset="1" stop-color="#FE7062"/>
</linearGradient>
<linearGradient id="paint6_linear_17_4147" x1="102.858" y1="103.008" x2="94.3883" y2="171.57" gradientUnits="userSpaceOnUse">
<stop stop-color="#FF928E"/>
<stop offset="1" stop-color="#FE7062"/>
</linearGradient>
<linearGradient id="paint7_linear_17_4147" x1="103.669" y1="103.107" x2="95.1996" y2="171.67" gradientUnits="userSpaceOnUse">
<stop stop-color="#FF928E"/>
<stop offset="1" stop-color="#FE7062"/>
</linearGradient>
<linearGradient id="paint8_linear_17_4147" x1="107.778" y1="103.615" x2="99.3085" y2="172.178" gradientUnits="userSpaceOnUse">
<stop stop-color="#FF928E"/>
<stop offset="1" stop-color="#FE7062"/>
</linearGradient>
<linearGradient id="paint9_linear_17_4147" x1="107.725" y1="103.608" x2="99.2555" y2="172.171" gradientUnits="userSpaceOnUse">
<stop stop-color="#FF928E"/>
<stop offset="1" stop-color="#FE7062"/>
</linearGradient>
<linearGradient id="paint10_linear_17_4147" x1="112.929" y1="104.251" x2="104.459" y2="172.814" gradientUnits="userSpaceOnUse">
<stop stop-color="#FF928E"/>
<stop offset="1" stop-color="#FE7062"/>
</linearGradient>
<linearGradient id="paint11_linear_17_4147" x1="102.159" y1="102.921" x2="93.6894" y2="171.484" gradientUnits="userSpaceOnUse">
<stop stop-color="#FF928E"/>
<stop offset="1" stop-color="#FE7062"/>
</linearGradient>
<linearGradient id="paint12_linear_17_4147" x1="295.734" y1="241.859" x2="-67.1057" y2="409.05" gradientUnits="userSpaceOnUse">
<stop stop-color="#FF928E"/>
<stop offset="1" stop-color="#FE7062"/>
</linearGradient>
<linearGradient id="paint13_linear_17_4147" x1="114.535" y1="104.449" x2="106.065" y2="173.012" gradientUnits="userSpaceOnUse">
<stop stop-color="#FF928E"/>
<stop offset="1" stop-color="#FE7062"/>
</linearGradient>
<linearGradient id="paint14_linear_17_4147" x1="205.706" y1="-6.76078" x2="169.407" y2="128.752" gradientUnits="userSpaceOnUse">
<stop stop-color="#FF928E"/>
<stop offset="1" stop-color="#FE7062"/>
</linearGradient>
<linearGradient id="paint15_linear_17_4147" x1="163.862" y1="207.129" x2="157.203" y2="207.193" gradientUnits="userSpaceOnUse">
<stop stop-color="#FEBBBA"/>
<stop offset="1" stop-color="#FF928E"/>
</linearGradient>
<linearGradient id="paint16_linear_17_4147" x1="187.858" y1="206.559" x2="182.108" y2="206.614" gradientUnits="userSpaceOnUse">
<stop stop-color="#FEBBBA"/>
<stop offset="1" stop-color="#FF928E"/>
</linearGradient>
<linearGradient id="paint17_linear_17_4147" x1="124.149" y1="35.705" x2="218.181" y2="307.494" gradientUnits="userSpaceOnUse">
<stop stop-color="#09005D"/>
<stop offset="1" stop-color="#1A0F91"/>
</linearGradient>
<linearGradient id="paint18_linear_17_4147" x1="140.626" y1="30.0045" x2="234.657" y2="301.794" gradientUnits="userSpaceOnUse">
<stop stop-color="#09005D"/>
<stop offset="1" stop-color="#1A0F91"/>
</linearGradient>
<linearGradient id="paint19_linear_17_4147" x1="82.3439" y1="216.462" x2="124.692" y2="145.68" gradientUnits="userSpaceOnUse">
<stop stop-color="#FF928E"/>
<stop offset="1" stop-color="#FE7062"/>
</linearGradient>
<linearGradient id="paint20_linear_17_4147" x1="153.916" y1="25.4066" x2="247.947" y2="297.196" gradientUnits="userSpaceOnUse">
<stop stop-color="#09005D"/>
<stop offset="1" stop-color="#1A0F91"/>
</linearGradient>
<linearGradient id="paint21_linear_17_4147" x1="98.6494" y1="226.217" x2="140.997" y2="155.435" gradientUnits="userSpaceOnUse">
<stop stop-color="#FF928E"/>
<stop offset="1" stop-color="#FE7062"/>
</linearGradient>
<linearGradient id="paint22_linear_17_4147" x1="209.704" y1="81.1413" x2="166.652" y2="81.5503" gradientUnits="userSpaceOnUse">
<stop stop-color="#FEBBBA"/>
<stop offset="1" stop-color="#FF928E"/>
</linearGradient>
<linearGradient id="paint23_linear_17_4147" x1="176.208" y1="35.4304" x2="159.185" y2="35.5921" gradientUnits="userSpaceOnUse">
<stop stop-color="#FEBBBA"/>
<stop offset="1" stop-color="#FF928E"/>
</linearGradient>
<linearGradient id="paint24_linear_17_4147" x1="150.123" y1="26.7187" x2="244.154" y2="298.507" gradientUnits="userSpaceOnUse">
<stop stop-color="#09005D"/>
<stop offset="1" stop-color="#1A0F91"/>
</linearGradient>
<linearGradient id="paint25_linear_17_4147" x1="166.019" y1="21.2192" x2="260.05" y2="293.008" gradientUnits="userSpaceOnUse">
<stop stop-color="#09005D"/>
<stop offset="1" stop-color="#1A0F91"/>
</linearGradient>
<linearGradient id="paint26_linear_17_4147" x1="158.783" y1="17.4288" x2="166.427" y2="48.7553" gradientUnits="userSpaceOnUse">
<stop stop-color="#FEBBBA"/>
<stop offset="1" stop-color="#FF928E"/>
</linearGradient>
<linearGradient id="paint27_linear_17_4147" x1="129.218" y1="-3.00261" x2="171.627" y2="33.9405" gradientUnits="userSpaceOnUse">
<stop stop-color="#09005D"/>
<stop offset="1" stop-color="#1A0F91"/>
</linearGradient>
<linearGradient id="paint28_linear_17_4147" x1="176.843" y1="47.4258" x2="168.875" y2="26.5508" gradientUnits="userSpaceOnUse">
<stop stop-color="#FEBBBA"/>
<stop offset="1" stop-color="#FF928E"/>
</linearGradient>
<linearGradient id="paint29_linear_17_4147" x1="183.357" y1="-22.1109" x2="173.98" y2="-7.59165" gradientUnits="userSpaceOnUse">
<stop stop-color="#FF928E"/>
<stop offset="1" stop-color="#FE7062"/>
</linearGradient>
<linearGradient id="paint30_linear_17_4147" x1="166.25" y1="1.70153" x2="139.896" y2="14.112" gradientUnits="userSpaceOnUse">
<stop stop-color="#FF928E"/>
<stop offset="1" stop-color="#FE7062"/>
</linearGradient>
<linearGradient id="paint31_linear_17_4147" x1="256.28" y1="-31.9966" x2="217.865" y2="-13.2426" gradientUnits="userSpaceOnUse">
<stop stop-color="#E1473D"/>
<stop offset="1" stop-color="#E9605A"/>
</linearGradient>
<linearGradient id="paint32_linear_17_4147" x1="171.386" y1="79.9724" x2="157.926" y2="79.9724" gradientUnits="userSpaceOnUse">
<stop stop-color="#FEBBBA"/>
<stop offset="1" stop-color="#FF928E"/>
</linearGradient>
<linearGradient id="paint33_linear_17_4147" x1="384.792" y1="471.369" x2="506.425" y2="603.671" gradientUnits="userSpaceOnUse">
<stop stop-color="#09005D"/>
<stop offset="1" stop-color="#1A0F91"/>
</linearGradient>
<linearGradient id="paint34_linear_17_4147" x1="424.272" y1="481.196" x2="413.468" y2="481.196" gradientUnits="userSpaceOnUse">
<stop stop-color="#FEBBBA"/>
<stop offset="1" stop-color="#FF928E"/>
</linearGradient>
<linearGradient id="paint35_linear_17_4147" x1="449.891" y1="398.585" x2="414.168" y2="398.585" gradientUnits="userSpaceOnUse">
<stop stop-color="#09005D"/>
<stop offset="1" stop-color="#1A0F91"/>
</linearGradient>
<linearGradient id="paint36_linear_17_4147" x1="412.078" y1="446.283" x2="533.711" y2="578.586" gradientUnits="userSpaceOnUse">
<stop stop-color="#09005D"/>
<stop offset="1" stop-color="#1A0F91"/>
</linearGradient>
<linearGradient id="paint37_linear_17_4147" x1="463.21" y1="480.641" x2="453.882" y2="480.641" gradientUnits="userSpaceOnUse">
<stop stop-color="#FEBBBA"/>
<stop offset="1" stop-color="#FF928E"/>
</linearGradient>
<linearGradient id="paint38_linear_17_4147" x1="473.264" y1="397.416" x2="422.549" y2="397.416" gradientUnits="userSpaceOnUse">
<stop stop-color="#09005D"/>
<stop offset="1" stop-color="#1A0F91"/>
</linearGradient>
<linearGradient id="paint39_linear_17_4147" x1="383.161" y1="311.131" x2="466.642" y2="221.298" gradientUnits="userSpaceOnUse">
<stop stop-color="#FF928E"/>
<stop offset="1" stop-color="#FE7062"/>
</linearGradient>
<linearGradient id="paint40_linear_17_4147" x1="370.763" y1="199.333" x2="315.568" y2="199.333" gradientUnits="userSpaceOnUse">
<stop stop-color="#A22B25"/>
<stop offset="1" stop-color="#C0423C"/>
</linearGradient>
<linearGradient id="paint41_linear_17_4147" x1="336.865" y1="6.71902" x2="332.328" y2="50.2746" gradientUnits="userSpaceOnUse">
<stop stop-color="#A22B25"/>
<stop offset="1" stop-color="#C0423C"/>
</linearGradient>
<linearGradient id="paint42_linear_17_4147" x1="325.454" y1="25.4601" x2="322.429" y2="246.879" gradientUnits="userSpaceOnUse">
<stop stop-color="#A22B25"/>
<stop offset="1" stop-color="#C0423C"/>
</linearGradient>
<linearGradient id="paint43_linear_17_4147" x1="401.626" y1="328.291" x2="485.108" y2="238.458" gradientUnits="userSpaceOnUse">
<stop stop-color="#FF928E"/>
<stop offset="1" stop-color="#FE7062"/>
</linearGradient>
<linearGradient id="paint44_linear_17_4147" x1="486.751" y1="277.516" x2="416.901" y2="277.516" gradientUnits="userSpaceOnUse">
<stop stop-color="#A22B25"/>
<stop offset="1" stop-color="#C0423C"/>
</linearGradient>
<linearGradient id="paint45_linear_17_4147" x1="425.779" y1="179.21" x2="442.114" y2="240.917" gradientUnits="userSpaceOnUse">
<stop stop-color="#A22B25"/>
<stop offset="1" stop-color="#C0423C"/>
</linearGradient>
<linearGradient id="paint46_linear_17_4147" x1="299.341" y1="459.561" x2="288.313" y2="484.18" gradientUnits="userSpaceOnUse">
<stop stop-color="#A22B25"/>
<stop offset="1" stop-color="#C0423C"/>
</linearGradient>
<linearGradient id="paint47_linear_17_4147" x1="459.911" y1="148.117" x2="420.684" y2="179.1" gradientUnits="userSpaceOnUse">
<stop stop-color="#09005D"/>
<stop offset="1" stop-color="#1A0F91"/>
</linearGradient>
<linearGradient id="paint48_linear_17_4147" x1="309.468" y1="464.098" x2="298.44" y2="488.717" gradientUnits="userSpaceOnUse">
<stop stop-color="#A22B25"/>
<stop offset="1" stop-color="#C0423C"/>
</linearGradient>
<linearGradient id="paint49_linear_17_4147" x1="482.846" y1="90.3978" x2="466.814" y2="114.899" gradientUnits="userSpaceOnUse">
<stop stop-color="#FF928E"/>
<stop offset="1" stop-color="#FE7062"/>
</linearGradient>
<linearGradient id="paint50_linear_17_4147" x1="449.902" y1="148.225" x2="400.55" y2="153.138" gradientUnits="userSpaceOnUse">
<stop stop-color="#FF928E"/>
<stop offset="1" stop-color="#FE7062"/>
</linearGradient>
<linearGradient id="paint51_linear_17_4147" x1="455.882" y1="90.3251" x2="444.085" y2="126.018" gradientUnits="userSpaceOnUse">
<stop stop-color="#E1473D"/>
<stop offset="1" stop-color="#E9605A"/>
</linearGradient>
<linearGradient id="paint52_linear_17_4147" x1="429.008" y1="270.192" x2="407.247" y2="270.192" gradientUnits="userSpaceOnUse">
<stop stop-color="#A22B25"/>
<stop offset="1" stop-color="#C0423C"/>
</linearGradient>
</defs>
</svg>
