<svg width="129" height="129" viewBox="0 0 129 129" fill="none" xmlns="http://www.w3.org/2000/svg">
<circle cx="64.5" cy="64.3344" r="61.761" stroke="#FF7C7D" stroke-width="5.14675"/>
<path fill-rule="evenodd" clip-rule="evenodd" d="M60.749 66.8037L41.9662 31.4784C41.5124 30.625 41.8364 29.5654 42.6898 29.1117C43.5431 28.6579 44.6028 28.9819 45.0565 29.8353L63.8393 65.1607L66.5035 63.7442C69.9169 61.9293 74.1553 63.225 75.9705 66.6385L77.1043 68.7711L89.125 86.3665L64.1896 99.6248L56.3237 79.8183L55.1908 77.6872C53.3759 74.2738 54.6717 70.0353 58.0851 68.2204L60.749 66.8037ZM59.7284 71.3107L68.1466 66.8345C69.8533 65.927 71.9726 66.575 72.8801 68.2816L74.0131 70.4128L59.4142 78.1751L58.2811 76.0441C57.3736 74.3373 58.0216 72.2181 59.7284 71.3107ZM61.181 82.5667L65.9991 94.6987L69.2092 92.992L65.4204 85.6152L68.5337 84.0162L72.2997 91.3485L84.0292 85.1119L76.6656 74.3335L61.181 82.5667Z" fill="#881415"/>
<path d="M50.7708 83.6549C51.5133 83.037 52.6162 83.1376 53.2346 83.8798C53.8534 84.6223 53.7531 85.7257 53.0106 86.3445L53.0085 86.3462L53.0059 86.3483L52.9998 86.3534L52.9824 86.3676L52.9294 86.4101C52.8858 86.4447 52.8258 86.4915 52.7499 86.5487C52.5981 86.663 52.3822 86.8191 52.1064 87.003C51.5553 87.3703 50.7605 87.8514 49.7551 88.33C47.7487 89.2855 44.8651 90.2501 41.3903 90.2501C40.4237 90.2501 39.6403 89.4666 39.6403 88.5001C39.6403 87.5336 40.4237 86.7501 41.3903 86.7501C44.2155 86.7501 46.5818 85.9647 48.2504 85.17C49.0826 84.7738 49.7315 84.3797 50.1649 84.0908C50.3812 83.9466 50.5426 83.8294 50.6451 83.7522C50.6962 83.7137 50.7326 83.6853 50.7536 83.6685L50.7736 83.6526L50.7708 83.6549ZM56.361 95.2061C57.1651 94.6701 57.3825 93.5835 56.8464 92.7794C56.3104 91.9754 55.2237 91.7584 54.4195 92.2939L54.415 92.2969L54.3812 92.3188C54.3492 92.3396 54.2983 92.372 54.2298 92.4147C54.093 92.4999 53.8861 92.6252 53.6196 92.7775C53.0855 93.0827 52.3183 93.492 51.3983 93.901C49.5274 94.7324 47.1625 95.5001 44.8903 95.5001C43.9237 95.5001 43.1403 96.2836 43.1403 97.2501C43.1403 98.2166 43.9237 99.0001 44.8903 99.0001C47.8681 99.0001 50.7531 98.0178 52.8197 97.0993C53.8685 96.6332 54.7419 96.1674 55.3561 95.8163C55.664 95.6405 55.9083 95.4924 56.0789 95.3864C56.1643 95.3332 56.2313 95.2905 56.2787 95.2598L56.3351 95.2233L56.3519 95.2122L56.361 95.2061Z" fill="#ED7374"/>
</svg>
