<svg width="64" height="64" viewBox="0 0 64 64" fill="none" xmlns="http://www.w3.org/2000/svg">
<rect width="64" height="64" rx="32" fill="#F2994A" fill-opacity="0.2"/>
<path d="M51.2621 19.9069C49.7414 17.5897 46.4103 14.7655 39.6759 14.2586L37.7207 10.9276C37.5759 10.7828 37.3586 10.6379 37.069 10.6379H26.931C26.6414 10.6379 26.4241 10.7828 26.2793 11L24.3241 14.2586C11.1448 15.2 11 25.0483 11 25.1207L11.7241 46.9172C11.7241 47.2069 11.9414 47.4241 12.1586 47.569C12.231 47.6414 12.3759 47.6414 12.4483 47.6414V49.7414C12.4483 49.9586 12.5931 50.1759 12.7379 50.3207C12.8103 50.3931 13.8966 51.1172 15.8517 51.1172C16.7207 51.1172 17.7345 50.9724 18.8207 50.5379C19.9069 51.2621 23.8897 53.3621 32 53.3621C40.1103 53.3621 44.0207 51.2621 45.1793 50.5379C46.3379 50.9724 47.3517 51.1172 48.1483 51.1172C50.031 51.1172 51.1897 50.3931 51.2621 50.3207C51.4793 50.1759 51.5517 49.9586 51.5517 49.7414V47.6414C51.6241 47.6414 51.769 47.569 51.8414 47.569C52.131 47.4241 52.2759 47.2069 52.2759 46.9172L53 25.1207C53 25.0483 53 22.5138 51.2621 19.9069ZM42.0655 21.0655L39.6034 22.2966C39.3862 22.369 39.2414 22.5862 39.2414 22.8034C39.169 23.0207 39.3138 23.2379 39.4586 23.4552L41.269 25.2655C39.8207 27.7276 36.5621 30.6966 34.2448 32.5793C38.0828 26.2793 39.531 18.169 39.8931 15.7793C40.4724 15.8517 40.9793 15.8517 41.4862 15.9241L42.0655 21.0655ZM24.7586 22.8034C24.6862 22.5862 24.5414 22.369 24.3966 22.2966L21.9345 21.0655L22.5862 15.9241C23.0931 15.8517 23.6 15.7793 24.1793 15.7793C24.5414 18.169 25.9172 26.2793 29.8276 32.5793C27.5103 30.6241 24.2517 27.7276 22.8034 25.2655L24.6138 23.4552C24.6862 23.3103 24.7586 23.0931 24.7586 22.8034ZM25.8448 17.0828L28.5965 19.8345C28.8862 20.1241 29.3207 20.1241 29.6103 19.8345L32 17.4448L34.3897 19.8345C34.5345 19.9793 34.7517 20.0517 34.8966 20.0517C35.0414 20.0517 35.2586 19.9793 35.4034 19.8345L38.1552 17.0828C37.5034 20.7034 35.7655 28.1621 32 33.3759C28.2345 28.1621 26.4966 20.7034 25.8448 17.0828ZM38.3 14.8379L34.8966 18.3138L33.0138 16.431L36.9241 12.5207L38.3 14.8379ZM35.331 12.0862L32 15.4172L28.669 12.0862H35.331ZM27.0759 12.5207L30.9862 16.431L29.1034 18.3138L25.7 14.9103L27.0759 12.5207ZM14.9828 19.4L18.2414 25.3379L19.6897 37.431L18.6034 46.4103C17.5172 46.7724 15.3448 47.1345 13.1724 46.4103L12.4483 25.1207C12.4483 24.9034 12.5207 21.9345 14.9828 19.4ZM13.8966 49.3069V48.0759C14.5483 48.2207 15.2724 48.2931 15.8517 48.2931C16.8655 48.2931 17.7345 48.1483 18.4586 48.0034L18.3138 49.2345C16.069 49.9586 14.5483 49.5966 13.8966 49.3069ZM19.9793 47.4966L21.1379 37.5034C21.1379 37.431 21.1379 37.3586 21.1379 37.3586L19.6897 25.0483C19.6897 24.9759 19.6172 24.831 19.6172 24.7586L16.069 18.4586C17.3 17.5172 18.8931 16.7207 21.0655 16.2138L20.4138 21.4276C20.3414 21.7172 20.5586 22.0069 20.7759 22.1517L22.8034 23.1655L21.3552 24.6138C21.1379 24.831 21.0655 25.1931 21.2103 25.4828C23.2379 29.4655 29.7552 34.5345 31.2759 35.6207V51.9138C24.2517 51.769 20.7759 50.031 19.7621 49.3793L19.9793 47.4966ZM32.7241 51.9138V35.6207C34.2448 34.5345 40.7621 29.4655 42.7897 25.4103C42.9345 25.1207 42.8621 24.7586 42.6448 24.5414L41.1966 23.0931L43.2241 22.0793C43.5138 21.9345 43.6586 21.6448 43.5862 21.3552L42.9345 16.1414C45.3965 16.7207 47.1345 17.6621 48.3655 18.7483L44.4552 24.6138C44.3828 24.6862 44.3828 24.831 44.3103 24.9034L42.8621 37.2138C42.8621 37.2862 42.8621 37.3586 42.8621 37.3586L44.0207 47.569L44.2379 49.3793C43.2241 50.031 39.7483 51.769 32.7241 51.9138ZM50.1034 49.3069C49.4517 49.5966 47.931 49.9586 45.6862 49.2345L45.5414 48.0759C46.1931 48.2207 47.0621 48.3655 48.0759 48.3655C48.7276 48.3655 49.3793 48.2931 50.1034 48.1483V49.3069ZM50.8276 46.4103C48.6552 47.1345 46.4828 46.7724 45.3965 46.4828L44.3103 37.431L45.7586 25.4103L49.4517 19.9069C51.5517 22.369 51.6241 24.9759 51.6241 25.1207L50.8276 46.4103Z" fill="#F39C12"/>
<path d="M32 22.2241C32.3999 22.2241 32.7242 21.8999 32.7242 21.5C32.7242 21.1001 32.3999 20.7759 32 20.7759C31.6001 20.7759 31.2759 21.1001 31.2759 21.5C31.2759 21.8999 31.6001 22.2241 32 22.2241Z" fill="#F39C12"/>
<path d="M32 27.2931C32.3999 27.2931 32.7242 26.9689 32.7242 26.569C32.7242 26.169 32.3999 25.8448 32 25.8448C31.6001 25.8448 31.2759 26.169 31.2759 26.569C31.2759 26.9689 31.6001 27.2931 32 27.2931Z" fill="#F39C12"/>
<path d="M22.1672 41.8437L21.5195 43.1391L27.284 46.0213L27.9317 44.7259L22.1672 41.8437Z" fill="#F39C12"/>
<path d="M41.7671 41.8761L36.0027 44.7583L36.6504 46.0537L42.4148 43.1715L41.7671 41.8761Z" fill="#F39C12"/>
</svg>
