<svg width="129" height="129" viewBox="0 0 129 129" fill="none" xmlns="http://www.w3.org/2000/svg">
<circle cx="64.4999" cy="64.3344" r="61.761" stroke="#FF7C7D" stroke-width="5.14675"/>
<path d="M68.484 93.0472V105.572H58.6825V93.0472C58.6825 91.7916 59.7044 90.7696 60.961 90.7696H66.2056C67.462 90.7696 68.484 91.7916 68.484 93.0472ZM51.663 93.4422C51.663 92.5115 50.9084 91.7571 49.9779 91.7571H47.93C46.9993 91.7571 46.2449 92.5117 46.2449 93.4422C46.2449 94.3727 46.9994 95.1273 47.93 95.1273H49.9779C50.9084 95.1273 51.663 94.3727 51.663 93.4422ZM80.9227 93.4422C80.9227 92.5115 80.1681 91.7571 79.2375 91.7571H77.1896C76.2589 91.7571 75.5045 92.5117 75.5045 93.4422C75.5045 94.3727 76.2591 95.1273 77.1896 95.1273H79.2375C80.1681 95.1273 80.9227 94.3727 80.9227 93.4422ZM97.5041 103.887C97.5041 104.814 96.7458 105.572 95.819 105.572H71.8542V93.0472C71.8542 89.9328 69.32 87.3994 66.2056 87.3994H60.961C57.8466 87.3994 55.3123 89.9328 55.3123 93.0472V105.572H32.6851C31.7581 105.572 31 104.814 31 103.887C31 102.952 31.7583 102.202 32.6851 102.202H37.513C37.5107 81.3837 37.5054 32.3701 37.5046 24.6851C37.5046 23.7497 38.2629 23 39.1897 23C40.1249 23 40.8748 23.7499 40.8748 24.6851V30.2713H53.0921V24.6935C53.0921 23.7583 53.8504 23.0084 54.7772 23.0084C55.7124 23.0084 56.4623 23.7583 56.4623 24.6935V30.2713H66.9101V24.6935C66.9101 23.7583 67.6602 23.0084 68.5952 23.0084C69.5222 23.0084 70.2803 23.7583 70.2803 24.6935V30.2713H75.6307V24.6935C75.6307 23.7583 76.3805 23.0084 77.3158 23.0084C78.2426 23.0084 79.0009 23.7583 79.0009 24.6935V30.2713H87.9743C88.9012 30.2713 89.6594 31.0296 89.6594 31.9564V102.202H95.8185C96.7458 102.202 97.5041 102.952 97.5041 103.887ZM51.663 82.6862C51.663 81.7556 50.9084 81.0011 49.9779 81.0011H47.93C46.9993 81.0011 46.2449 81.7557 46.2449 82.6862C46.2449 83.6168 46.9994 84.3713 47.93 84.3713H49.9779C50.9084 84.3713 51.663 83.6168 51.663 82.6862ZM51.663 71.9302C51.663 70.9995 50.9084 70.245 49.9779 70.245H47.93C46.9993 70.245 46.2449 70.9996 46.2449 71.9302C46.2449 72.8607 46.9994 73.6153 47.93 73.6153H49.9779C50.9084 73.6154 51.663 72.8608 51.663 71.9302ZM51.663 61.175C51.663 60.2443 50.9084 59.4899 49.9779 59.4899H47.93C46.9993 59.4899 46.2449 60.2445 46.2449 61.175C46.2449 62.1055 46.9994 62.8601 47.93 62.8601H49.9779C50.9084 62.8603 51.663 62.1057 51.663 61.175ZM53.0921 33.6417H40.8832V43.5671H53.0921V33.6417ZM56.4625 50.7459H66.9103V33.6417H56.4625V50.7459ZM61.4168 82.6862C61.4168 81.7556 60.6622 81.0011 59.7317 81.0011H57.6827C56.7521 81.0011 55.9976 81.7557 55.9976 82.6862C55.9976 83.6168 56.7522 84.3713 57.6827 84.3713H59.7315C60.6622 84.3713 61.4168 83.6168 61.4168 82.6862ZM61.4168 71.9302C61.4168 70.9995 60.6622 70.245 59.7317 70.245H57.6827C56.7521 70.245 55.9976 70.9996 55.9976 71.9302C55.9976 72.8607 56.7522 73.6153 57.6827 73.6153H59.7315C60.6622 73.6154 61.4168 72.8608 61.4168 71.9302ZM61.4168 61.175C61.4168 60.2443 60.6622 59.4899 59.7317 59.4899H57.6827C56.7521 59.4899 55.9976 60.2445 55.9976 61.175C55.9976 62.1055 56.7522 62.8601 57.6827 62.8601H59.7315C60.6622 62.8603 61.4168 62.1057 61.4168 61.175ZM71.1697 82.6862C71.1697 81.7556 70.4151 81.0011 69.4846 81.0011H67.4367C66.506 81.0011 65.7516 81.7557 65.7516 82.6862C65.7516 83.6168 66.5061 84.3713 67.4367 84.3713H69.4846C70.4151 84.3713 71.1697 83.6168 71.1697 82.6862ZM71.1697 71.9302C71.1697 70.9995 70.4151 70.245 69.4846 70.245H67.4367C66.506 70.245 65.7516 70.9996 65.7516 71.9302C65.7516 72.8607 66.5061 73.6153 67.4367 73.6153H69.4846C70.4151 73.6154 71.1697 72.8608 71.1697 71.9302ZM75.631 57.1158V33.6417H70.2807V51.7738L75.631 57.1158ZM80.9227 82.6862C80.9227 81.7556 80.1681 81.0011 79.2375 81.0011H77.1896C76.2589 81.0011 75.5045 81.7557 75.5045 82.6862C75.5045 83.6168 76.2591 84.3713 77.1896 84.3713H79.2375C80.1681 84.3713 80.9227 83.6168 80.9227 82.6862ZM80.9227 71.9302C80.9227 70.9995 80.1681 70.245 79.2375 70.245H77.1896C76.2589 70.245 75.5045 70.9996 75.5045 71.9302C75.5045 72.8607 76.2591 73.6153 77.1896 73.6153H79.2375C80.1681 73.6154 80.9227 72.8608 80.9227 71.9302ZM86.2895 33.6417H79.0012V59.4919H86.2895V33.6417Z" fill="url(#paint0_linear_162_56)"/>
<defs>
<linearGradient id="paint0_linear_162_56" x1="29.1033" y1="102.685" x2="95.0937" y2="36.6952" gradientUnits="userSpaceOnUse">
<stop stop-color="#881415"/>
<stop offset="1" stop-color="#FF5051"/>
</linearGradient>
</defs>
</svg>
