<svg width="129" height="130" viewBox="0 0 129 130" fill="none" xmlns="http://www.w3.org/2000/svg">
<circle cx="64.3598" cy="65.0031" r="61.761" stroke="#FF7C7D" stroke-width="5.14675"/>
<g clip-path="url(#clip0_17_4627)">
<path d="M64.1414 93.7656V94.2679C64.1475 94.4043 64.1263 94.5406 64.0793 94.6684C64.0323 94.7963 63.9604 94.9131 63.8679 95.0118C63.7754 95.1105 63.6643 95.1891 63.5412 95.2427C63.4182 95.2964 63.2857 95.3241 63.1519 95.3241C63.0181 95.3241 62.8856 95.2964 62.7626 95.2427C62.6395 95.1891 62.5284 95.1105 62.4359 95.0118C62.3434 94.9131 62.2715 94.7963 62.2245 94.6684C62.1775 94.5406 62.1564 94.4043 62.1624 94.2679V93.7656H64.1414Z" fill="#BF5354"/>
<path d="M69.0138 90.3111C69.0138 91.1208 68.3708 91.7769 67.5772 91.7769H58.7167C58.3357 91.7769 57.9703 91.6224 57.7009 91.3475C57.4315 91.0726 57.2802 90.6998 57.2802 90.3111C57.2802 89.9223 57.4315 89.5495 57.7009 89.2746C57.9703 88.9997 58.3357 88.8453 58.7167 88.8453H67.5772C68.3708 88.8453 69.0138 89.5013 69.0138 90.3111ZM71.2741 80.4604C71.2741 81.2702 70.6312 81.9365 69.8375 81.9365H56.4564C56.0834 81.9223 55.7303 81.7611 55.4713 81.4868C55.2123 81.2125 55.0676 80.8464 55.0676 80.4656C55.0676 80.0847 55.2123 79.7186 55.4713 79.4443C55.7303 79.17 56.0834 79.0088 56.4564 78.9946H69.8375C70.6312 78.9946 71.2741 79.6609 71.2741 80.4604Z" fill="#F15051"/>
<path d="M70.1489 85.391C70.1489 86.2008 69.4959 86.8568 68.7124 86.8568H57.5815C56.7979 86.8568 56.1449 86.2008 56.1449 85.391C56.1449 84.5812 56.7979 83.9252 57.5815 83.9252H68.7124C69.4959 83.9252 70.1489 84.5812 70.1489 85.391ZM59.6108 50.7447V52.6H57.7925C56.7879 52.6 55.9641 51.7698 55.9641 50.7447C55.9641 49.7197 56.7879 48.8792 57.7925 48.8792C58.7971 48.8792 59.6108 49.7197 59.6108 50.7447ZM70.3297 50.7447C70.3297 51.7698 69.506 52.6 68.5014 52.6H66.6831V50.7447C66.6831 49.7197 67.4968 48.8792 68.5014 48.8792C69.506 48.8792 70.3297 49.7197 70.3297 50.7447ZM61.5597 54.5886H64.7342V77.0062H61.5597V54.5886Z" fill="#FF7C7D"/>
<path d="M74.2677 68.7546C72.3289 70.1794 70.8421 71.9733 69.9581 73.9311C69.4558 75.0176 69.1745 76.0529 69.0941 77.0062H66.6831V54.5886H68.5014C69.5015 54.5886 70.4607 54.184 71.1688 53.4634C71.8769 52.7428 72.276 51.7651 72.2787 50.7447C72.2787 48.6229 70.5809 46.8906 68.5014 46.8906C67.5014 46.8933 66.5432 47.3005 65.837 48.023C65.1308 48.7455 64.7342 49.7243 64.7342 50.7447V52.6H61.5597V50.7447C61.5597 48.6229 59.872 46.8906 57.7925 46.8906C55.713 46.8906 54.0152 48.6229 54.0152 50.7447C54.0179 51.7651 54.417 52.7428 55.1251 53.4634C55.8332 54.184 56.7924 54.5886 57.7925 54.5886H59.6108V77.0062H57.1998C57.0993 75.9812 56.7577 74.8434 56.155 73.6133C55.2509 71.7477 53.8243 70.0974 51.9458 68.6829C49.5341 66.8832 47.5716 64.5292 46.2173 61.8117C44.8629 59.0942 44.1548 56.0895 44.1501 53.0408C44.1501 47.5363 46.4607 42.2676 50.4891 38.5877C54.5677 34.8669 59.8418 33.155 65.3269 33.7803C74.1773 34.7849 81.3802 42.3906 82.0835 51.4622C82.6058 58.289 79.6825 64.757 74.2677 68.7546Z" fill="#FF7C7D"/>
<path opacity="0.07" d="M75.4029 70.364C73.7454 71.5941 72.4695 73.1111 71.7261 74.7614C71.3042 75.6737 71.0731 76.504 71.0229 77.242C72.2987 77.734 73.223 78.9846 73.223 80.4606C73.223 81.7419 72.5298 82.849 71.5051 83.4538C71.8768 84.0073 72.0978 84.6736 72.0978 85.3911C72.0978 86.6724 71.3946 87.7794 70.38 88.3739C70.7241 88.8935 70.9232 89.4989 70.9559 90.1251C70.9887 90.7513 70.8538 91.3748 70.5658 91.9288C70.2778 92.4828 69.8476 92.9465 69.3211 93.27C68.7946 93.5936 68.1918 93.7649 67.5772 93.7657H66.0904V94.2679C66.1006 94.6683 66.0322 95.0666 65.8892 95.4395C65.7461 95.8125 65.5313 96.1524 65.2574 96.4392C64.9836 96.7261 64.6562 96.9541 64.2945 97.1097C63.9329 97.2654 63.5444 97.3456 63.152 97.3456C62.7595 97.3456 62.371 97.2654 62.0094 97.1097C61.6477 96.9541 61.3203 96.7261 61.0465 96.4392C60.7726 96.1524 60.5578 95.8125 60.4147 95.4395C60.2717 95.0666 60.2033 94.6683 60.2135 94.2679V93.7657H58.7167C58.1021 93.7649 57.4993 93.5936 56.9728 93.27C56.4463 92.9465 56.016 92.4828 55.728 91.9288C55.44 91.3748 55.3052 90.7513 55.3379 90.1251C55.3707 89.4989 55.5698 88.8935 55.9139 88.3739C54.8992 87.7794 54.196 86.6724 54.196 85.3911C54.196 84.6736 54.417 84.0073 54.7887 83.4538C53.7641 82.849 53.0709 81.7419 53.0709 80.4606C53.0709 78.9948 53.9851 77.7443 55.2609 77.242C55.1906 76.4527 54.9093 75.52 54.417 74.5052C53.6435 72.9266 52.428 71.5121 50.7905 70.2923C50.248 69.8925 49.7357 69.462 49.2434 69.011C49.8863 68.7035 50.5293 68.3857 51.1622 68.0577C54.1157 66.5509 56.9285 64.8186 59.6108 62.8915C60.2738 62.4097 60.9167 61.928 61.5597 61.4257C62.6446 60.5852 63.6995 59.7139 64.7342 58.8016C65.3972 58.2378 66.0401 57.6433 66.6831 57.0488C67.5571 56.2185 68.411 55.378 69.2448 54.5067C70.2846 53.4472 71.2865 52.3497 72.2485 51.2163C74.6193 48.4692 76.8495 45.5171 78.9491 42.36C79.361 41.7552 79.7528 41.1402 80.1446 40.5149C82.3245 43.6003 83.7109 47.3006 84.0223 51.3085C84.605 58.8323 81.3802 65.9564 75.4029 70.364Z" fill="black"/>
<path d="M84.0222 51.3084C83.7108 47.3005 82.3245 43.6001 80.1445 40.5147C76.7791 35.7688 71.5553 32.4887 65.5378 31.8019C59.4902 31.1151 53.6836 33.0012 49.1831 37.1116C46.9876 39.117 45.2311 41.5721 44.028 44.3168C42.825 47.0614 42.2025 50.034 42.2012 53.0407C42.2012 59.1602 44.8031 64.9927 49.2433 69.0108C49.7356 69.4618 50.2479 69.8923 50.7904 70.2921C52.4279 71.5119 53.6434 72.9265 54.417 74.505C54.9092 75.5198 55.1905 76.4526 55.2608 77.2419C53.985 77.7441 53.0708 78.9947 53.0708 80.4605C53.0708 81.7418 53.764 82.8488 54.7887 83.4536C54.417 84.0071 54.196 84.6734 54.196 85.3909C54.196 86.6722 54.8992 87.7793 55.9138 88.3738C55.5697 88.8934 55.3706 89.4987 55.3379 90.125C55.3051 90.7512 55.44 91.3747 55.728 91.9287C56.016 92.4827 56.4462 92.9463 56.9727 93.2699C57.4992 93.5934 58.102 93.7648 58.7166 93.7655H60.2135V94.2678C60.2032 94.6681 60.2716 95.0665 60.4147 95.4394C60.5577 95.8123 60.7725 96.1522 61.0464 96.4391C61.3203 96.7259 61.6477 96.9539 62.0093 97.1096C62.3709 97.2652 62.7594 97.3454 63.1519 97.3454C63.5444 97.3454 63.9329 97.2652 64.2945 97.1096C64.6561 96.9539 64.9835 96.7259 65.2574 96.4391C65.5312 96.1522 65.746 95.8123 65.8891 95.4394C66.0322 95.0665 66.1006 94.6681 66.0903 94.2678V93.7655H67.5771C68.1917 93.7648 68.7945 93.5934 69.321 93.2699C69.8475 92.9463 70.2778 92.4827 70.5658 91.9287C70.8538 91.3747 70.9886 90.7512 70.9559 90.125C70.9231 89.4987 70.724 88.8934 70.3799 88.3738C71.3946 87.7793 72.0978 86.6722 72.0978 85.3909C72.0978 84.6734 71.8768 84.0071 71.5051 83.4536C72.5297 82.8488 73.2229 81.7418 73.2229 80.4605C73.2229 78.9844 72.2987 77.7339 71.0229 77.2419C71.0731 76.5038 71.3041 75.6736 71.7261 74.7613C72.4695 73.111 73.7453 71.5939 75.4029 70.3639C81.3802 65.9562 84.6049 58.8322 84.0222 51.3084ZM64.1414 94.2678C64.1474 94.4042 64.1263 94.5404 64.0793 94.6683C64.0323 94.7961 63.9604 94.913 63.8679 95.0117C63.7754 95.1104 63.6643 95.1889 63.5412 95.2426C63.4182 95.2963 63.2857 95.324 63.1519 95.324C63.0181 95.324 62.8856 95.2963 62.7626 95.2426C62.6395 95.1889 62.5284 95.1104 62.4359 95.0117C62.3434 94.913 62.2715 94.7961 62.2245 94.6683C62.1775 94.5404 62.1563 94.4042 62.1624 94.2678V93.7655H64.1414V94.2678ZM67.5771 91.7769H58.7166C58.3356 91.7769 57.9702 91.6225 57.7008 91.3476C57.4314 91.0727 57.2801 90.6999 57.2801 90.3111C57.2801 89.9224 57.4314 89.5495 57.7008 89.2746C57.9702 88.9997 58.3356 88.8453 58.7166 88.8453H67.5771C67.9581 88.8453 68.3235 88.9997 68.5929 89.2746C68.8623 89.5495 69.0137 89.9224 69.0137 90.3111C69.0137 90.6999 68.8623 91.0727 68.5929 91.3476C68.3235 91.6225 67.9581 91.7769 67.5771 91.7769ZM68.7123 86.8567H57.5814C56.7979 86.8567 56.1449 86.2007 56.1449 85.3909C56.1449 84.5812 56.7979 83.9251 57.5814 83.9251H68.7123C69.4959 83.9251 70.1489 84.5812 70.1489 85.3909C70.1489 86.2007 69.4959 86.8567 68.7123 86.8567ZM71.274 80.4605C71.274 81.2703 70.6311 81.9366 69.8374 81.9366H56.4563C56.0833 81.9223 55.7302 81.7611 55.4712 81.4868C55.2122 81.2125 55.0675 80.8465 55.0675 80.4656C55.0675 80.0847 55.2122 79.7187 55.4712 79.4444C55.7302 79.1701 56.0833 79.0089 56.4563 78.9947H69.8374C70.6311 78.9947 71.274 79.661 71.274 80.4605ZM59.6107 52.5999H57.7924C56.7878 52.5999 55.9641 51.7697 55.9641 50.7446C55.9641 49.7196 56.7878 48.8791 57.7924 48.8791C58.797 48.8791 59.6107 49.7196 59.6107 50.7446V52.5999ZM61.5596 54.5885H64.7341V77.0061H61.5596V54.5885ZM74.2677 68.7546C72.3288 70.1794 70.842 71.9732 69.958 73.931C69.4557 75.0175 69.1744 76.0528 69.094 77.0061H66.683V54.5885H68.5013C68.7525 54.5885 69.0036 54.5578 69.2447 54.5065C70.0985 54.3336 70.8673 53.8644 71.4203 53.1786C71.9734 52.4928 72.2767 51.6328 72.2786 50.7446C72.2786 48.6228 70.5808 46.8905 68.5013 46.8905C67.5013 46.8932 66.5431 47.3004 65.8369 48.0229C65.1307 48.7454 64.7341 49.7242 64.7341 50.7446V52.5999H61.5596V50.7446C61.5596 48.6228 59.8719 46.8905 57.7924 46.8905C55.7129 46.8905 54.0151 48.6228 54.0151 50.7446C54.0178 51.765 54.4169 52.7427 55.125 53.4633C55.8331 54.1839 56.7924 54.5885 57.7924 54.5885H59.6107V77.0061H57.1997C57.0992 75.9811 56.7577 74.8433 56.1549 73.6132C55.2508 71.7477 53.8243 70.0974 51.9457 68.6828C51.6745 68.488 51.4133 68.283 51.1621 68.0575C48.9749 66.2419 47.2109 63.9525 45.9981 61.3551C44.7853 58.7578 44.154 55.9177 44.1501 53.0407C44.1501 47.5363 46.4606 42.2676 50.489 38.5877C54.5677 34.8668 59.8418 33.155 65.3268 33.7802C70.9425 34.4158 75.8951 37.7164 78.9491 42.3598C80.6971 45.0352 81.8222 48.141 82.0834 51.4621C82.6058 58.2889 79.6824 64.7569 74.2677 68.7546ZM68.5013 52.5999H66.683V50.7446C66.683 49.7196 67.4967 48.8791 68.5013 48.8791C69.5059 48.8791 70.3297 49.7196 70.3297 50.7446C70.3297 51.7697 69.5059 52.5999 68.5013 52.5999Z" fill="#881415"/>
</g>
<defs>
<clipPath id="clip0_17_4627">
<rect width="64.2937" height="65.6025" fill="white" transform="translate(31 31.6687)"/>
</clipPath>
</defs>
</svg>
