<svg width="52" height="52" viewBox="0 0 52 52" fill="none" xmlns="http://www.w3.org/2000/svg">
<circle cx="26" cy="26" r="26" fill="white"/>
<path d="M37.7 26C37.7 19.565 32.435 14.3 26 14.3C19.565 14.3 14.3 19.565 14.3 26C14.3 31.85 18.5413 36.6763 24.0988 37.5538V29.3638H21.1738V26H24.0988V23.3675C24.0988 20.4425 25.8538 18.8338 28.4863 18.8338C29.8025 18.8338 31.1188 19.1263 31.1188 19.1263V22.0513H29.6563C28.1938 22.0513 27.755 22.9288 27.755 23.8063V26H30.9725L30.3875 29.3638H27.6088V37.7C33.4588 36.8225 37.7 31.85 37.7 26Z" fill="#0C1518"/>
</svg>
