<svg width="62" height="61" viewBox="0 0 62 61" fill="none" xmlns="http://www.w3.org/2000/svg">
<path d="M0 0.548672C0 0.245649 0.245649 0 0.548673 0H61.4513C61.7543 0 62 0.245649 62 0.548673V44.5128C62 44.9514 61.5109 45.2127 61.1463 44.9689L19.237 16.9404C19.051 16.816 18.8081 16.817 18.6231 16.943L0.857556 29.0442C0.493324 29.2923 0 29.0314 0 28.5907V0.548672Z" fill="#FDF852"/>
<path d="M0 36.2376C0 36.0509 0.0949312 35.877 0.251974 35.776L18.9072 23.7834C19.0877 23.6673 19.3194 23.6672 19.5001 23.7831L33.7434 32.9203L61.7567 51.6865C61.9087 51.7884 62 51.9594 62 52.1424V59.5309C62 59.834 61.7543 60.0796 61.4513 60.0796H0.548673C0.245649 60.0796 0 59.834 0 59.5309V36.2376Z" fill="#881415"/>
<path d="M44.375 11.25L46.0968 15.9032L50.75 17.625L46.0968 19.3468L44.375 24L42.6532 19.3468L38 17.625L42.6532 15.9032L44.375 11.25Z" fill="#881415"/>
<path d="M50.75 7L51.8979 10.1021L55 11.25L51.8979 12.3979L50.75 15.5L49.6021 12.3979L46.5 11.25L49.6021 10.1021L50.75 7Z" fill="#881415"/>
</svg>
