<svg width="129" height="129" viewBox="0 0 129 129" fill="none" xmlns="http://www.w3.org/2000/svg">
<circle cx="64.4999" cy="64.3344" r="61.761" stroke="#FF7C7D" stroke-width="5.14675"/>
<g clip-path="url(#clip0_171_121)">
<path d="M65.0001 73.436C62.4006 73.436 60.2856 75.5505 60.2856 78.1505C60.2856 79.4645 60.8351 80.708 61.7816 81.5935V85.124C61.7816 85.8145 62.3411 86.374 63.0316 86.374H66.9681C67.6586 86.374 68.2181 85.8145 68.2181 85.124V81.5935C69.1651 80.708 69.7141 79.4645 69.7141 78.1505C69.7146 75.551 67.5996 73.436 65.0001 73.436ZM66.2571 79.972C65.9196 80.2055 65.7186 80.5895 65.7186 81V83.874H64.2821V81C64.2821 80.59 64.0811 80.2055 63.7436 79.972C63.1441 79.557 62.7861 78.8765 62.7861 78.1505C62.7861 76.9295 63.7791 75.936 65.0006 75.936C66.2221 75.936 67.2151 76.929 67.2151 78.1505C67.2146 78.876 66.8566 79.557 66.2571 79.972Z" fill="#881415"/>
<path d="M93.1193 98.6126C93.195 98.0876 93.2328 97.6001 93.2328 97.1126C93.2328 90.5877 87.8606 85.2627 81.2777 85.2627C80.313 85.2627 79.3671 85.394 78.3646 85.6565C74.4818 82.6119 69.6767 80.9539 64.7259 80.9503C63.8179 80.9503 62.9288 81.0065 62.0397 81.119V70.4316C62.0587 70.3754 62.0587 70.3191 62.0587 70.2629C62.0587 70.1879 62.0776 69.6816 62.0397 68.9129V59.7817C63.1747 57.4755 66.9013 55.3005 70.2116 54.138C70.7413 53.9505 71.252 53.7443 71.7628 53.538L73.5409 55.3005C75.2623 57.0068 77.589 57.9067 80.294 57.9067C83.8881 57.9067 87.7093 56.2755 90.7737 53.4255C91.1899 53.0318 91.6439 52.6006 92.1168 52.1131C104.053 40.3007 104.961 22.3758 104.999 21.6259C105.018 21.1009 104.81 20.5946 104.431 20.2196C104.072 19.8446 103.561 19.6571 103.013 19.6759C102.256 19.6946 84.1908 20.5946 72.2546 32.4257C71.7628 32.8945 71.3277 33.3445 70.9304 33.7757C65.823 39.1569 64.934 46.5069 68.8496 50.6318C66.8823 51.3256 64.7259 52.3568 62.8721 53.6505C62.7586 49.5818 61.2642 44.8944 56.6675 41.4819C59.6374 38.4069 59.051 32.932 55.2677 28.9383C55.0029 28.657 54.6813 28.3383 54.3597 28.0008C45.9419 19.6571 33.2112 19.0384 32.6626 19.0009C32.4005 18.993 32.1395 19.0386 31.896 19.135C31.6524 19.2314 31.4315 19.3764 31.2469 19.5611C31.0624 19.7458 30.9182 19.9661 30.8233 20.2085C30.7284 20.4508 30.6848 20.7099 30.6953 20.9696C30.7142 21.4946 31.3574 34.1132 39.7752 42.4569C40.1157 42.7944 40.4183 43.0944 40.721 43.3756C42.9531 45.4381 45.7338 46.6381 48.3821 46.6381C50.3683 46.6381 52.1654 45.9256 53.4517 44.6694L53.9435 44.1819C60.7156 48.7568 59.0888 56.3505 58.5213 58.2817C58.0484 57.6818 57.4998 57.1193 56.8945 56.613C53.83 54.0443 49.7252 53.5193 46.831 53.5193C44.3719 53.5193 42.5181 53.8943 42.4424 53.913C41.5912 54.0818 40.9858 54.813 40.948 55.6755C40.9291 56.0505 40.6832 64.8067 46.1122 69.3254C49.1766 71.8941 53.2815 72.4191 56.1757 72.4191C56.8704 72.4194 57.5647 72.3882 58.2565 72.3254V81.9253C54.9272 82.9378 51.8627 84.7377 49.3279 87.2127C47.4033 85.9494 45.148 85.2716 42.8396 85.2627C37.1836 85.2627 32.3032 89.2939 31.1872 94.7314C27.4985 97.7126 25.2474 102.156 25.0015 107.031C24.9914 107.285 25.0327 107.537 25.1229 107.775C25.2132 108.012 25.3506 108.229 25.527 108.412C25.7035 108.596 25.9153 108.743 26.15 108.844C26.3846 108.944 26.6373 108.998 26.8931 109H96.9783C97.5836 109 98.1322 108.738 98.4916 108.269C98.851 107.819 98.9645 107.219 98.8132 106.656C97.9282 103.395 95.9122 100.547 93.1193 98.6126Z" fill="#881415"/>
</g>
<defs>
<clipPath id="clip0_171_121">
<rect width="80" height="80" fill="white" transform="translate(25 24)"/>
</clipPath>
</defs>
</svg>
