<svg width="64" height="64" viewBox="0 0 64 64" fill="none" xmlns="http://www.w3.org/2000/svg">
<rect width="64" height="64" rx="32" fill="#F2994A" fill-opacity="0.2"/>
<path d="M13.4084 37.1104C13.2728 37.1104 13.1391 37.0783 13.0183 37.0167L6.52678 33.673C6.32664 33.57 6.17541 33.3919 6.10614 33.1778C6.03688 32.9636 6.05522 32.7307 6.15715 32.53L13.7831 17.4671C13.8338 17.3671 13.9036 17.278 13.9888 17.2051C14.0739 17.1321 14.1725 17.0767 14.2791 17.0419C14.3857 17.0072 14.4981 16.9939 14.6099 17.0027C14.7216 17.0114 14.8305 17.0422 14.9304 17.0932L21.1059 20.2444C21.3042 20.3453 21.4551 20.5198 21.5264 20.7305C21.5978 20.9413 21.5838 21.1715 21.4875 21.3721L14.1766 36.6241C14.1272 36.7266 14.0579 36.8183 13.9726 36.8938C13.8873 36.9692 13.7879 37.0269 13.6801 37.0635C13.5926 37.0934 13.5009 37.1092 13.4084 37.1104ZM8.05896 32.5453L13.0192 35.1004L19.5925 21.3883L14.9167 19.0035L8.05896 32.5453Z" fill="#F39C12"/>
<path d="M22.2319 25.2583C22.0854 25.2583 21.9414 25.2204 21.8138 25.1484L19.3388 23.7542C19.2413 23.6994 19.1556 23.6259 19.0865 23.5379C19.0175 23.4499 18.9664 23.3492 18.9363 23.2414C18.9061 23.1337 18.8975 23.0211 18.9109 22.9101C18.9243 22.799 18.9594 22.6917 19.0143 22.5942C19.0691 22.4968 19.1427 22.4111 19.2306 22.342C19.3186 22.2729 19.4193 22.2219 19.5271 22.1917C19.6348 22.1616 19.7474 22.153 19.8584 22.1664C19.9695 22.1798 20.0768 22.2149 20.1743 22.2697L22.2183 23.4204C23.0163 22.9366 24.7436 21.895 25.8491 21.2707C27.6538 20.2487 28.9245 20.3892 30.3834 21.7715C30.5432 21.9278 30.6351 22.1406 30.6393 22.364C30.6436 22.5875 30.5598 22.8036 30.4062 22.9659C30.2525 23.1281 30.0413 23.2235 29.8179 23.2314C29.5946 23.2393 29.3771 23.1591 29.2124 23.0082C28.3062 22.1497 27.8343 22.1054 26.6871 22.7527C25.2665 23.5558 22.7038 25.1178 22.6774 25.1374C22.5429 25.2179 22.3887 25.2598 22.2319 25.2583Z" fill="#F39C12"/>
<path d="M44.6372 40.0768C44.0166 40.0927 43.4043 39.9311 42.8725 39.6109C42.0889 39.088 38.6413 35.7068 37.9583 35.0348C37.8077 34.8745 37.7249 34.6622 37.7273 34.4423C37.7298 34.2224 37.8172 34.0119 37.9712 33.855C38.1253 33.6981 38.3341 33.6068 38.5539 33.6003C38.7738 33.5939 38.9876 33.6727 39.1506 33.8203C40.6836 35.3338 43.3137 37.859 43.8153 38.1937C44.1386 38.3431 44.4962 38.4027 44.8505 38.3661C45.2048 38.3295 45.5427 38.1982 45.8287 37.9859C45.9626 37.8698 46.0694 37.7256 46.1415 37.5637C46.2136 37.4018 46.2493 37.226 46.2461 37.0487C46.2428 36.8715 46.2007 36.6971 46.1227 36.538C46.0447 36.3788 45.9327 36.2387 45.7946 36.1275C44.9242 35.1481 41.3079 31.6689 40.5142 30.9058C37.7444 29.8906 35.0585 28.6598 32.4811 27.2248L31.5851 27.8108C31.3839 28.7446 30.8472 29.5722 30.0767 30.1368C29.8063 30.3498 29.4923 30.5008 29.1571 30.5791C28.8218 30.6574 28.4734 30.6611 28.1366 30.5899C27.7279 30.5389 27.3343 30.4032 26.981 30.1915C26.6277 29.9797 26.3225 29.6965 26.0849 29.36C25.632 28.3923 25.5811 27.2846 25.9435 26.2795C26.67 23.3718 27.8487 22.6232 29.4797 21.5875L29.8383 21.3584C31.6353 20.2044 33.1777 19.5895 34.8709 20.3517C35.9236 20.8261 39.6599 22.2731 40.7211 22.6837L44.2778 21.5177C44.4908 21.4529 44.7208 21.4741 44.9184 21.5768C45.116 21.6796 45.2655 21.8556 45.3349 22.0672C45.4042 22.2788 45.388 22.5091 45.2896 22.7089C45.1912 22.9087 45.0184 23.062 44.8084 23.1359L40.963 24.3964C40.7768 24.4571 40.5754 24.4523 40.3924 24.3828C40.1905 24.3044 35.4398 22.4767 34.1751 21.9061C33.4162 21.5654 32.6148 21.6003 30.7615 22.791L30.3953 23.0252C28.9074 23.9697 28.1605 24.4449 27.5983 26.6925C27.3105 27.844 27.4433 28.3107 27.5481 28.4811C27.6827 28.7059 27.9944 28.7971 28.4909 28.9214C28.5975 28.9394 28.7067 28.9334 28.8107 28.9039C28.9147 28.8745 29.0109 28.8223 29.0922 28.7511C29.3324 28.5701 29.5331 28.3418 29.6817 28.0804C29.8304 27.8189 29.924 27.5298 29.9567 27.2308C29.9678 27.1024 30.0079 26.9782 30.074 26.8676C30.1401 26.7569 30.2304 26.6627 30.3382 26.592L31.9777 25.5198C32.1069 25.4357 32.2565 25.3883 32.4106 25.3826C32.5646 25.3769 32.7173 25.4131 32.8524 25.4874C32.9103 25.5189 38.6524 28.6591 41.1674 29.32C41.3072 29.3573 41.4355 29.4291 41.5404 29.5287C41.7244 29.705 46.0544 33.851 47.0713 34.9982C47.3531 35.2709 47.5765 35.5981 47.7281 35.9598C47.8796 36.3215 47.9561 36.7102 47.9529 37.1023C47.9497 37.4945 47.8669 37.8819 47.7095 38.2411C47.5521 38.6003 47.3234 38.9238 47.0372 39.1919C46.3819 39.7864 45.5216 40.1036 44.6372 40.0768Z" fill="#F39C12"/>
<path d="M46.4343 36.4137C46.2392 36.4136 46.05 36.3464 45.8984 36.2235C45.7469 36.1005 45.6421 35.9293 45.6017 35.7383C45.5613 35.5474 45.5877 35.3484 45.6765 35.1746C45.7653 35.0008 45.911 34.8627 46.0894 34.7836L49.0771 33.4601C49.1798 33.4116 49.2912 33.3841 49.4046 33.3793C49.5181 33.3744 49.6314 33.3924 49.7378 33.432C49.8443 33.4716 49.9417 33.5321 50.0244 33.6099C50.1071 33.6877 50.1734 33.7813 50.2195 33.8852C50.2655 33.989 50.2902 34.101 50.2923 34.2145C50.2944 34.3281 50.2738 34.4409 50.2316 34.5464C50.1895 34.6518 50.1266 34.7478 50.0468 34.8286C49.967 34.9094 49.8719 34.9734 49.767 35.0169L46.7784 36.3439C46.6698 36.3908 46.5526 36.4146 46.4343 36.4137Z" fill="#F39C12"/>
<path d="M50.3409 37.1104C50.1712 37.1103 50.0053 37.0595 49.8646 36.9645C49.724 36.8695 49.6149 36.7346 49.5514 36.5772L43.1229 20.6285C43.0799 20.5222 43.0589 20.4082 43.061 20.2935C43.0632 20.1789 43.0885 20.0658 43.1354 19.9611C43.1823 19.8564 43.2499 19.7623 43.3341 19.6844C43.4183 19.6065 43.5174 19.5464 43.6254 19.5077L50.4951 17.0498C50.7029 16.9754 50.9314 16.9847 51.1326 17.0755C51.3337 17.1664 51.4917 17.3318 51.5733 17.5369L57.8758 33.3561C57.917 33.4607 57.9371 33.5724 57.935 33.6848C57.9328 33.7972 57.9084 33.9081 57.8632 34.011C57.818 34.114 57.7529 34.2069 57.6716 34.2845C57.5903 34.3622 57.4944 34.4229 57.3895 34.4633L50.6458 37.0508C50.5487 37.0892 50.4453 37.1094 50.3409 37.1104ZM45.0315 20.8125L50.8153 35.1609L55.9714 33.1849L50.2949 18.9303L45.0315 20.8125ZM40.8003 42.66C40.0982 42.681 39.4126 42.4451 38.8721 41.9965C37.7317 40.983 34.8002 38.0532 34.6758 37.9288C34.5207 37.7682 34.4349 37.5531 34.4368 37.3298C34.4387 37.1065 34.5283 36.8928 34.6862 36.7349C34.8441 36.577 35.0577 36.4875 35.2811 36.4855C35.5044 36.4836 35.7195 36.5694 35.8801 36.7246C35.9099 36.7544 38.9011 39.7438 40.0031 40.7275C40.2316 40.8667 40.4902 40.9486 40.7571 40.9664C41.024 40.9842 41.2913 40.9373 41.5362 40.8297C41.9361 40.6933 42.2909 40.4496 42.5618 40.1254C42.8328 39.8011 43.0095 39.4087 43.0726 38.9909C43.0916 38.8807 43.1322 38.7753 43.1919 38.6807C43.2517 38.5862 43.3295 38.5043 43.4208 38.4398C43.5122 38.3753 43.6154 38.3294 43.7245 38.3048C43.8336 38.2802 43.9465 38.2773 44.0567 38.2963C44.167 38.3154 44.2724 38.3559 44.3669 38.4156C44.4615 38.4754 44.5433 38.5532 44.6078 38.6446C44.6723 38.7359 44.7182 38.8391 44.7428 38.9482C44.7674 39.0574 44.7703 39.1702 44.7513 39.2805C44.6355 39.996 44.3281 40.6667 43.8618 41.2216C43.3954 41.7764 42.7875 42.1946 42.1026 42.4317C41.6843 42.5802 41.2441 42.6573 40.8003 42.66Z" fill="#F39C12"/>
<path d="M36.8367 44.7244C36.136 44.7543 35.4513 44.5099 34.928 44.0431L31.9028 41.0179L33.108 39.8128L36.1332 42.838C36.3204 42.9431 36.5275 43.0077 36.7413 43.0277C36.9551 43.0476 37.1706 43.0225 37.3741 42.9538C37.7648 42.8579 38.1225 42.6587 38.4099 42.3772C38.6972 42.0957 38.9037 41.7421 39.0076 41.3535C39.0391 41.2451 39.0918 41.144 39.1627 41.0561C39.2336 40.9683 39.3213 40.8954 39.4206 40.8418C39.52 40.7881 39.629 40.7547 39.7413 40.7436C39.8537 40.7324 39.9671 40.7437 40.075 40.7768C40.183 40.8099 40.2833 40.8641 40.3701 40.9363C40.4569 41.0085 40.5284 41.0972 40.5806 41.1973C40.6328 41.2974 40.6646 41.4069 40.6741 41.5194C40.6836 41.6319 40.6707 41.7451 40.636 41.8526C40.3991 42.6779 39.9007 43.4041 39.2157 43.922C38.5307 44.4399 37.6954 44.7215 36.8367 44.7244Z" fill="#F39C12"/>
<path d="M33.5899 46.9993C32.8937 47.0141 32.2128 46.7936 31.6575 46.3733C30.8902 45.7591 30.1194 45.1492 29.3451 44.5439C29.2552 44.4757 29.1796 44.3903 29.1229 44.2927C29.0663 44.1951 29.0296 44.0871 29.015 43.9752C29.0004 43.8632 29.0082 43.7495 29.0379 43.6406C29.0677 43.5317 29.1188 43.4298 29.1883 43.3408C29.2578 43.2518 29.3443 43.1776 29.4427 43.1223C29.5412 43.0671 29.6497 43.0319 29.7618 43.019C29.874 43.0061 29.9876 43.0155 30.096 43.0469C30.2045 43.0782 30.3056 43.1308 30.3936 43.2016C30.3936 43.2016 31.4573 44.032 32.7221 45.0438C32.9915 45.2042 33.298 45.2919 33.6115 45.2983C33.925 45.3047 34.2348 45.2297 34.5106 45.0805C34.7572 44.9744 34.9659 44.7962 35.1091 44.5692C35.2523 44.3422 35.3234 44.0771 35.3129 43.8089C35.306 43.5831 35.3891 43.3639 35.5439 43.1994C35.6986 43.0348 35.9124 42.9386 36.1382 42.9317C36.3633 42.9277 36.581 43.0118 36.7449 43.1662C36.9088 43.3205 37.0059 43.5329 37.0154 43.7578C37.0355 44.351 36.8809 44.9371 36.5708 45.4433C36.2607 45.9495 35.8088 46.3534 35.2712 46.605C34.7485 46.8637 34.1732 46.9987 33.5899 46.9993Z" fill="#F39C12"/>
<path d="M27.2074 46.605C26.9306 46.604 26.6566 46.549 26.4009 46.4431C25.7064 46.1024 25.1339 45.5557 24.7614 44.8777C24.1569 44.995 23.5306 44.9009 22.9873 44.6112C22.5316 44.3125 22.1399 43.9261 21.8348 43.4746C21.5298 43.0231 21.3177 42.5154 21.2107 41.9812C21.1658 41.7636 21.2077 41.5372 21.3274 41.3501C22.0198 40.2701 23.064 38.5915 23.2198 38.2414C23.3601 37.9621 23.559 37.7165 23.803 37.5213C24.047 37.3261 24.3304 37.1859 24.6336 37.1104C25.0461 37.0023 25.4775 36.9878 25.8963 37.0679C26.3151 37.1481 26.7107 37.3209 27.0541 37.5737C27.4347 37.8256 27.7403 38.1755 27.9387 38.5865C28.1372 38.9974 28.2211 39.4543 28.1817 39.909C28.5868 39.9265 28.9835 40.0306 29.3449 40.2144C29.7064 40.3982 30.0242 40.6574 30.2769 40.9745C30.5224 41.3581 30.6791 41.7917 30.7355 42.2436C30.7919 42.6956 30.7467 43.1544 30.6031 43.5866C30.1564 44.8334 29.2392 45.8557 28.048 46.4346C27.782 46.5471 27.4962 46.605 27.2074 46.605ZM26.1956 43.9469C26.463 44.3991 26.9408 45.0481 27.388 44.8616C28.1303 44.4749 28.7019 43.8254 28.9908 43.0398C29.0477 42.866 29.0695 42.6826 29.0548 42.5002C29.0402 42.3179 28.9895 42.1403 28.9057 41.9778C28.7761 41.8509 28.6223 41.7514 28.4534 41.6852C28.2846 41.6191 28.1041 41.5877 27.9228 41.5928L26.1956 43.9469ZM22.9669 41.9454C23.1024 42.4186 23.3961 42.8311 23.799 43.1139C23.9247 43.1784 24.0624 43.2165 24.2035 43.2257C24.3446 43.235 24.486 43.2152 24.6191 43.1676L26.4375 40.0504C26.5098 39.8578 26.5144 39.6463 26.4506 39.4507C26.3869 39.255 26.2585 39.0869 26.0866 38.9739C25.9558 38.8708 25.8049 38.7962 25.6435 38.755C25.4822 38.7138 25.314 38.7068 25.1497 38.7345C25.0048 38.7584 24.8724 38.8315 24.775 38.9415C24.5502 39.4397 23.4685 41.1567 22.9669 41.9454Z" fill="#F39C12"/>
<path d="M20.698 43.2757C20.4962 43.2763 20.2954 43.2476 20.1018 43.1906C18.6429 42.7519 18.0714 40.8629 18.0109 40.6491C17.9804 40.5407 17.9716 40.4273 17.9852 40.3154C17.9988 40.2036 18.0345 40.0955 18.0901 39.9976C18.814 38.7401 19.6147 37.5284 20.4876 36.3694C20.9258 35.7993 21.5608 35.413 22.2685 35.2859C22.9762 35.1588 23.7059 35.3001 24.3151 35.6821C25.1191 36.2399 25.7084 37.4536 24.7222 39.0394C24.6632 39.1345 24.5861 39.217 24.4952 39.2823C24.4043 39.3475 24.3014 39.3942 24.1925 39.4197C24.0835 39.4453 23.9706 39.449 23.8602 39.4309C23.7498 39.4128 23.6441 39.3731 23.549 39.3141C23.4539 39.2551 23.3714 39.178 23.3062 39.0871C23.2409 38.9962 23.1942 38.8933 23.1687 38.7844C23.1432 38.6754 23.1394 38.5626 23.1575 38.4521C23.1756 38.3417 23.2153 38.236 23.2743 38.1409C23.4932 37.7875 23.6831 37.3182 23.3433 37.0823C23.095 36.9466 22.8061 36.9048 22.5295 36.9646C22.2528 37.0243 22.0069 37.1815 21.8367 37.4076C21.0885 38.4018 20.3961 39.4367 19.7628 40.5077C19.9493 40.9532 20.267 41.4633 20.5915 41.5596C20.8785 41.6447 21.2729 41.3501 21.4866 41.1678C21.6576 41.0201 21.8803 40.9463 22.1057 40.9628C22.331 40.9792 22.5406 41.0845 22.6884 41.2555C22.8361 41.4265 22.9098 41.6492 22.8934 41.8746C22.8769 42.0999 22.7716 42.3095 22.6006 42.4573C22.0886 42.9546 21.4112 43.246 20.698 43.2757Z" fill="#F39C12"/>
<path d="M18.8286 41.2666C18.735 41.2665 18.6421 41.251 18.5535 41.2206C18.4096 41.1721 15.0148 39.9857 15.0148 37.3267C15.0147 37.2374 15.0285 37.1486 15.0557 37.0635C15.3638 36.2154 15.7859 35.4132 16.3102 34.6788C16.7004 34.2126 17.2393 33.895 17.8362 33.7796C18.4331 33.6642 19.0516 33.758 19.5875 34.0452C20.0919 34.2687 20.4942 34.6732 20.715 35.1789C20.9357 35.6846 20.9589 36.2546 20.7798 36.7765C20.2228 38.5702 19.6514 40.6202 19.6454 40.6415C19.5954 40.8205 19.4881 40.9783 19.34 41.0907C19.192 41.2032 19.0111 41.264 18.8252 41.2641L18.8286 41.2666ZM16.725 37.4587C16.8101 38.2559 17.626 38.8623 18.2801 39.226C18.5024 38.4492 18.832 37.319 19.1557 36.274C19.1854 36.2076 19.2006 36.1357 19.2002 36.063C19.1999 35.9902 19.1841 35.9184 19.1537 35.8523C19.1234 35.7862 19.0793 35.7273 19.0245 35.6796C18.9696 35.6319 18.9051 35.5964 18.8354 35.5756C18.6595 35.4764 18.458 35.4315 18.2566 35.4466C18.0551 35.4618 17.8627 35.5363 17.7035 35.6608C17.3087 36.2201 16.9803 36.8235 16.725 37.4587Z" fill="#F39C12"/>
<path d="M16.5657 36.7092C16.3942 36.709 16.2268 36.6571 16.0853 36.5602L13.8514 35.0272C13.6649 34.8995 13.5368 34.7031 13.4952 34.481C13.4536 34.2589 13.5019 34.0293 13.6295 33.8429C13.7571 33.6564 13.9536 33.5283 14.1757 33.4867C14.3978 33.4451 14.6273 33.4934 14.8138 33.621L17.0477 35.1541C17.1982 35.2567 17.3118 35.405 17.3718 35.577C17.4318 35.749 17.4351 35.9357 17.3812 36.1097C17.3272 36.2837 17.2189 36.4358 17.0722 36.5437C16.9254 36.6517 16.7479 36.7097 16.5657 36.7092Z" fill="#F39C12"/>
</svg>
