<svg width="52" height="52" viewBox="0 0 52 52" fill="none" xmlns="http://www.w3.org/2000/svg">
<circle cx="26" cy="26" r="26" fill="white"/>
<path d="M26 16.4145C29.1013 16.4145 29.5241 16.4145 30.7928 16.4145C31.9205 16.4145 32.4844 16.6964 32.9073 16.8374C33.4711 17.1193 33.894 17.2603 34.3169 17.6832C34.7398 18.1061 35.0217 18.529 35.1627 19.0928C35.3037 19.5157 35.4446 20.0796 35.5856 21.2073C35.5856 22.476 35.5856 22.7579 35.5856 26C35.5856 29.2422 35.5856 29.5241 35.5856 30.7928C35.5856 31.9205 35.3037 32.4844 35.1627 32.9073C34.8808 33.4711 34.7398 33.894 34.3169 34.3169C33.894 34.7398 33.4711 35.0217 32.9073 35.1627C32.4844 35.3037 31.9205 35.4446 30.7928 35.5856C29.5241 35.5856 29.2422 35.5856 26 35.5856C22.7579 35.5856 22.476 35.5856 21.2073 35.5856C20.0796 35.5856 19.5157 35.3037 19.0928 35.1627C18.529 34.8808 18.1061 34.7398 17.6832 34.3169C17.2603 33.894 16.9784 33.4711 16.8374 32.9073C16.6964 32.4844 16.5555 31.9205 16.4145 30.7928C16.4145 29.5241 16.4145 29.2422 16.4145 26C16.4145 22.7579 16.4145 22.476 16.4145 21.2073C16.4145 20.0796 16.6964 19.5157 16.8374 19.0928C17.1193 18.529 17.2603 18.1061 17.6832 17.6832C18.1061 17.2603 18.529 16.9784 19.0928 16.8374C19.5157 16.6964 20.0796 16.5555 21.2073 16.4145C22.476 16.4145 22.8988 16.4145 26 16.4145ZM26 14.3C22.7579 14.3 22.476 14.3 21.2073 14.3C19.9386 14.3 19.0928 14.582 18.388 14.8639C17.6832 15.1458 16.9784 15.5687 16.2735 16.2735C15.5687 16.9784 15.2868 17.5422 14.8639 18.388C14.582 19.0928 14.441 19.9386 14.3 21.2073C14.3 22.476 14.3 22.8988 14.3 26C14.3 29.2422 14.3 29.5241 14.3 30.7928C14.3 32.0615 14.582 32.9073 14.8639 33.6121C15.1458 34.3169 15.5687 35.0217 16.2735 35.7266C16.9784 36.4314 17.5422 36.7133 18.388 37.1362C19.0928 37.4181 19.9386 37.5591 21.2073 37.7C22.476 37.7 22.8988 37.7 26 37.7C29.1013 37.7 29.5241 37.7 30.7928 37.7C32.0615 37.7 32.9073 37.4181 33.6121 37.1362C34.3169 36.8543 35.0217 36.4314 35.7266 35.7266C36.4314 35.0217 36.7133 34.4579 37.1362 33.6121C37.4181 32.9073 37.5591 32.0615 37.7 30.7928C37.7 29.5241 37.7 29.1013 37.7 26C37.7 22.8988 37.7 22.476 37.7 21.2073C37.7 19.9386 37.4181 19.0928 37.1362 18.388C36.8543 17.6832 36.4314 16.9784 35.7266 16.2735C35.0217 15.5687 34.4579 15.2868 33.6121 14.8639C32.9073 14.582 32.0615 14.441 30.7928 14.3C29.5241 14.3 29.2422 14.3 26 14.3Z" fill="#0C1518"/>
<path d="M26 19.9386C22.6169 19.9386 19.9386 22.6169 19.9386 26C19.9386 29.3832 22.6169 32.0615 26 32.0615C29.3832 32.0615 32.0615 29.3832 32.0615 26C32.0615 22.6169 29.3832 19.9386 26 19.9386ZM26 29.947C23.8856 29.947 22.0531 28.2555 22.0531 26C22.0531 23.8856 23.7446 22.0531 26 22.0531C28.1145 22.0531 29.947 23.7446 29.947 26C29.947 28.1145 28.1145 29.947 26 29.947Z" fill="#0C1518"/>
<path d="M32.2025 21.2073C32.981 21.2073 33.6121 20.5762 33.6121 19.7976C33.6121 19.0191 32.981 18.388 32.2025 18.388C31.4239 18.388 30.7928 19.0191 30.7928 19.7976C30.7928 20.5762 31.4239 21.2073 32.2025 21.2073Z" fill="#0C1518"/>
</svg>
