<svg width="129" height="129" viewBox="0 0 129 129" fill="none" xmlns="http://www.w3.org/2000/svg">
<circle cx="64.4999" cy="64.3344" r="61.761" stroke="#FF7C7D" stroke-width="5.14675"/>
<path d="M42.3801 103C41.961 103 41.5591 102.834 41.2628 102.537C40.9665 102.241 40.8001 101.839 40.8001 101.42V30.32C40.8001 29.4819 40.4671 28.6782 39.8745 28.0855C39.2819 27.4929 38.4782 27.16 37.6401 27.16C36.802 27.16 35.9982 27.4929 35.4056 28.0855C34.813 28.6782 34.4801 29.4819 34.4801 30.32V101.42C34.4801 101.839 34.3136 102.241 34.0173 102.537C33.721 102.834 33.3191 103 32.9001 103C32.481 103 32.0791 102.834 31.7828 102.537C31.4865 102.241 31.3201 101.839 31.3201 101.42V30.32C31.3201 28.6438 31.9859 27.0363 33.1712 25.8511C34.3564 24.6659 35.9639 24 37.6401 24C39.3162 24 40.9238 24.6659 42.109 25.8511C43.2942 27.0363 43.9601 28.6438 43.9601 30.32V101.42C43.9601 101.839 43.7936 102.241 43.4973 102.537C43.201 102.834 42.7991 103 42.3801 103Z" fill="#881415"/>
<path d="M32.9 41.38H29.74C28.4829 41.38 27.2772 40.8806 26.3883 39.9917C25.4994 39.1028 25 37.8972 25 36.64C25 35.3829 25.4994 34.1773 26.3883 33.2883C27.2772 32.3994 28.4829 31.9 29.74 31.9H32.9C33.319 31.9 33.7209 32.0665 34.0172 32.3628C34.3135 32.6591 34.48 33.061 34.48 33.48V39.8C34.48 40.2191 34.3135 40.6209 34.0172 40.9173C33.7209 41.2136 33.319 41.38 32.9 41.38ZM29.74 35.06C29.5365 35.0567 29.3344 35.0957 29.1468 35.1746C28.9591 35.2535 28.7899 35.3705 28.6498 35.5182C28.4976 35.6632 28.376 35.8371 28.2919 36.0298C28.2077 36.2224 28.1629 36.4299 28.16 36.64C28.16 37.0591 28.3265 37.4609 28.6228 37.7573C28.9191 38.0536 29.321 38.22 29.74 38.22H31.32V35.06H29.74ZM99.26 41.38H42.38C41.961 41.38 41.5591 41.2136 41.2628 40.9173C40.9665 40.6209 40.8 40.2191 40.8 39.8V33.48C40.8 33.061 40.9665 32.6591 41.2628 32.3628C41.5591 32.0665 41.961 31.9 42.38 31.9H99.26C100.517 31.9 101.723 32.3994 102.612 33.2883C103.501 34.1773 104 35.3829 104 36.64C104 37.8972 103.501 39.1028 102.612 39.9917C101.723 40.8806 100.517 41.38 99.26 41.38ZM43.96 38.22H99.26C99.679 38.22 100.081 38.0536 100.377 37.7573C100.674 37.4609 100.84 37.0591 100.84 36.64C100.84 36.221 100.674 35.8191 100.377 35.5228C100.081 35.2265 99.679 35.06 99.26 35.06H43.96V38.22ZM92.94 82.46H55.02C53.3438 82.46 51.7363 81.7942 50.5511 80.6089C49.3659 79.4237 48.7 77.8162 48.7 76.14V52.44C48.7 50.7639 49.3659 49.1563 50.5511 47.9711C51.7363 46.7859 53.3438 46.12 55.02 46.12H92.94C94.6162 46.12 96.2237 46.7859 97.4089 47.9711C98.5941 49.1563 99.26 50.7639 99.26 52.44V76.14C99.26 77.8162 98.5941 79.4237 97.4089 80.6089C96.2237 81.7942 94.6162 82.46 92.94 82.46ZM55.02 49.28C54.1819 49.28 53.3782 49.613 52.7855 50.2056C52.1929 50.7982 51.86 51.6019 51.86 52.44V76.14C51.86 76.9781 52.1929 77.7819 52.7855 78.3745C53.3782 78.9671 54.1819 79.3 55.02 79.3H92.94C93.7781 79.3 94.5818 78.9671 95.1745 78.3745C95.7671 77.7819 96.1 76.9781 96.1 76.14V52.44C96.1 51.6019 95.7671 50.7982 95.1745 50.2056C94.5818 49.613 93.7781 49.28 92.94 49.28H55.02Z" fill="#881415"/>
<path d="M58.1799 54.0199C57.7608 54.0199 57.3589 53.8535 57.0626 53.5572C56.7663 53.2609 56.5999 52.859 56.5999 52.4399V31.8999C56.5999 31.4809 56.7663 31.079 57.0626 30.7827C57.3589 30.4864 57.7608 30.3199 58.1799 30.3199C58.5989 30.3199 59.0008 30.4864 59.2971 30.7827C59.5934 31.079 59.7599 31.4809 59.7599 31.8999V52.4399C59.7599 52.859 59.5934 53.2609 59.2971 53.5572C59.0008 53.8535 58.5989 54.0199 58.1799 54.0199ZM89.7799 54.0199C89.3608 54.0199 88.9589 53.8535 88.6626 53.5572C88.3663 53.2609 88.1999 52.859 88.1999 52.4399V31.8999C88.1999 31.4809 88.3663 31.079 88.6626 30.7827C88.9589 30.4864 89.3608 30.3199 89.7799 30.3199C90.1989 30.3199 90.6008 30.4864 90.8971 30.7827C91.1934 31.079 91.3599 31.4809 91.3599 31.8999V52.4399C91.3599 52.859 91.1934 53.2609 90.8971 53.5572C90.6008 53.8535 90.1989 54.0199 89.7799 54.0199ZM62.9199 63.4999C62.5008 63.4999 62.0989 63.3335 61.8026 63.0372C61.5063 62.7409 61.3399 62.339 61.3399 61.9199V54.0199C61.3399 53.6009 61.5063 53.199 61.8026 52.9027C62.0989 52.6064 62.5008 52.4399 62.9199 52.4399C63.3389 52.4399 63.7408 52.6064 64.0371 52.9027C64.3334 53.199 64.4999 53.6009 64.4999 54.0199V61.9199C64.4999 62.339 64.3334 62.7409 64.0371 63.0372C63.7408 63.3335 63.3389 63.4999 62.9199 63.4999Z" fill="#881415"/>
<path d="M67.6598 55.5999H62.9198C62.5008 55.5999 62.0989 55.4335 61.8026 55.1372C61.5063 54.8409 61.3398 54.439 61.3398 54.0199C61.3398 53.6009 61.5063 53.199 61.8026 52.9027C62.0989 52.6064 62.5008 52.4399 62.9198 52.4399H67.6598C68.0789 52.4399 68.4808 52.6064 68.7771 52.9027C69.0734 53.199 69.2398 53.6009 69.2398 54.0199C69.2398 54.439 69.0734 54.8409 68.7771 55.1372C68.4808 55.4335 68.0789 55.5999 67.6598 55.5999ZM66.0798 60.3399H62.9198C62.5008 60.3399 62.0989 60.1735 61.8026 59.8772C61.5063 59.5809 61.3398 59.179 61.3398 58.7599C61.3398 58.3409 61.5063 57.939 61.8026 57.6427C62.0989 57.3464 62.5008 57.1799 62.9198 57.1799H66.0798C66.4989 57.1799 66.9008 57.3464 67.1971 57.6427C67.4934 57.939 67.6598 58.3409 67.6598 58.7599C67.6598 59.179 67.4934 59.5809 67.1971 59.8772C66.9008 60.1735 66.4989 60.3399 66.0798 60.3399ZM73.1898 63.4999C72.1422 63.4999 71.1375 63.0838 70.3968 62.343C69.656 61.6022 69.2398 60.5975 69.2398 59.5499V56.3899C69.2398 55.3423 69.656 54.3376 70.3968 53.5969C71.1375 52.8561 72.1422 52.4399 73.1898 52.4399C74.2374 52.4399 75.2421 52.8561 75.9829 53.5969C76.7237 54.3376 77.1398 55.3423 77.1398 56.3899V59.5499C77.1398 60.5975 76.7237 61.6022 75.9829 62.343C75.2421 63.0838 74.2374 63.4999 73.1898 63.4999ZM73.1898 55.5999C72.9803 55.5999 72.7794 55.6832 72.6312 55.8313C72.4831 55.9795 72.3998 56.1804 72.3998 56.3899V59.5499C72.3998 59.7595 72.4831 59.9604 72.6312 60.1086C72.7794 60.2567 72.9803 60.3399 73.1898 60.3399C73.3994 60.3399 73.6003 60.2567 73.7485 60.1086C73.8966 59.9604 73.9798 59.7595 73.9798 59.5499V56.3899C73.9798 56.1804 73.8966 55.9795 73.7485 55.8313C73.6003 55.6832 73.3994 55.5999 73.1898 55.5999ZM82.6698 60.3399H80.2998C79.8808 60.3399 79.4789 60.1735 79.1826 59.8772C78.8863 59.5809 78.7198 59.179 78.7198 58.7599V54.0199C78.7198 53.6009 78.8863 53.199 79.1826 52.9027C79.4789 52.6064 79.8808 52.4399 80.2998 52.4399H82.6698C83.7174 52.4399 84.7221 52.8561 85.4629 53.5969C86.2037 54.3376 86.6198 55.3423 86.6198 56.3899C86.6198 57.4375 86.2037 58.4422 85.4629 59.183C84.7221 59.9238 83.7174 60.3399 82.6698 60.3399ZM81.8798 57.1799H82.6698C82.8794 57.1799 83.0803 57.0967 83.2285 56.9486C83.3766 56.8004 83.4598 56.5995 83.4598 56.3899C83.4598 56.1804 83.3766 55.9795 83.2285 55.8313C83.0803 55.6832 82.8794 55.5999 82.6698 55.5999H81.8798V57.1799Z" fill="#881415"/>
<path d="M85.0399 63.5001C84.6208 63.5001 84.2189 63.3336 83.9226 63.0373C83.6263 62.741 83.4599 62.3391 83.4599 61.9201C83.4599 61.501 83.2934 61.0991 82.9971 60.8028C82.7008 60.5065 82.2989 60.3401 81.8799 60.3401V61.9201C81.8799 62.3391 81.7134 62.741 81.4171 63.0373C81.1208 63.3336 80.7189 63.5001 80.2999 63.5001C79.8808 63.5001 79.4789 63.3336 79.1826 63.0373C78.8863 62.741 78.7199 62.3391 78.7199 61.9201V58.7601C78.7199 58.341 78.8863 57.9391 79.1826 57.6428C79.4789 57.3465 79.8808 57.1801 80.2999 57.1801H81.8799C83.137 57.1801 84.3426 57.6794 85.2315 58.5684C86.1205 59.4573 86.6199 60.6629 86.6199 61.9201C86.6199 62.3391 86.4534 62.741 86.1571 63.0373C85.8608 63.3336 85.4589 63.5001 85.0399 63.5001ZM60.5499 77.7201H58.1799C57.7608 77.7201 57.3589 77.5536 57.0626 77.2573C56.7663 76.961 56.5999 76.5591 56.5999 76.1401C56.5999 75.721 56.7663 75.3191 57.0626 75.0228C57.3589 74.7265 57.7608 74.5601 58.1799 74.5601H60.5499C60.7594 74.5601 60.9603 74.4768 61.1085 74.3287C61.2566 74.1805 61.3399 73.9796 61.3399 73.7701C61.3399 73.5605 61.2566 73.3596 61.1085 73.2114C60.9603 73.0633 60.7594 72.9801 60.5499 72.9801C59.5022 72.9801 58.4976 72.5639 57.7568 71.8231C57.016 71.0824 56.5999 70.0777 56.5999 69.0301C56.5999 67.9824 57.016 66.9777 57.7568 66.237C58.4976 65.4962 59.5022 65.0801 60.5499 65.0801H62.9199C63.3389 65.0801 63.7408 65.2465 64.0371 65.5428C64.3334 65.8391 64.4999 66.241 64.4999 66.6601C64.4999 67.0791 64.3334 67.481 64.0371 67.7773C63.7408 68.0736 63.3389 68.2401 62.9199 68.2401H60.5499C60.3403 68.2401 60.1394 68.3233 59.9912 68.4714C59.8431 68.6196 59.7599 68.8205 59.7599 69.0301C59.7599 69.2396 59.8431 69.4405 59.9912 69.5887C60.1394 69.7368 60.3403 69.8201 60.5499 69.8201C61.5975 69.8201 62.6022 70.2362 63.3429 70.977C64.0837 71.7177 64.4999 72.7224 64.4999 73.7701C64.4999 74.8177 64.0837 75.8224 63.3429 76.5631C62.6022 77.3039 61.5975 77.7201 60.5499 77.7201ZM72.3999 77.7201C71.9808 77.7201 71.5789 77.5536 71.2826 77.2573C70.9863 76.961 70.8199 76.5591 70.8199 76.1401V69.0301C70.8199 68.8205 70.7366 68.6196 70.5885 68.4714C70.4403 68.3233 70.2394 68.2401 70.0299 68.2401C69.8203 68.2401 69.6194 68.3233 69.4712 68.4714C69.3231 68.6196 69.2399 68.8205 69.2399 69.0301V76.1401C69.2399 76.5591 69.0734 76.961 68.7771 77.2573C68.4808 77.5536 68.0789 77.7201 67.6599 77.7201C67.2408 77.7201 66.8389 77.5536 66.5426 77.2573C66.2463 76.961 66.0799 76.5591 66.0799 76.1401V69.0301C66.0799 67.9824 66.496 66.9777 67.2368 66.237C67.9775 65.4962 68.9822 65.0801 70.0299 65.0801C71.0775 65.0801 72.0822 65.4962 72.8229 66.237C73.5637 66.9777 73.9799 67.9824 73.9799 69.0301V76.1401C73.9799 76.5591 73.8134 76.961 73.5171 77.2573C73.2208 77.5536 72.8189 77.7201 72.3999 77.7201Z" fill="#881415"/>
<path d="M72.4001 74.5601H67.6601C67.241 74.5601 66.8392 74.3936 66.5428 74.0973C66.2465 73.801 66.0801 73.3991 66.0801 72.9801C66.0801 72.561 66.2465 72.1592 66.5428 71.8628C66.8392 71.5665 67.241 71.4001 67.6601 71.4001H72.4001C72.8191 71.4001 73.221 71.5665 73.5173 71.8628C73.8136 72.1592 73.9801 72.561 73.9801 72.9801C73.9801 73.3991 73.8136 73.801 73.5173 74.0973C73.221 74.3936 72.8191 74.5601 72.4001 74.5601ZM80.3001 77.7201H77.1401C76.721 77.7201 76.3192 77.5536 76.0228 77.2573C75.7265 76.961 75.5601 76.5591 75.5601 76.1401V66.6601C75.5601 66.241 75.7265 65.8392 76.0228 65.5428C76.3192 65.2465 76.721 65.0801 77.1401 65.0801C77.5591 65.0801 77.961 65.2465 78.2573 65.5428C78.5536 65.8392 78.7201 66.241 78.7201 66.6601V74.5601H80.3001C80.7191 74.5601 81.121 74.7265 81.4173 75.0228C81.7136 75.3192 81.8801 75.721 81.8801 76.1401C81.8801 76.5591 81.7136 76.961 81.4173 77.2573C81.121 77.5536 80.7191 77.7201 80.3001 77.7201ZM89.7801 77.7201H85.0401C84.621 77.7201 84.2192 77.5536 83.9228 77.2573C83.6265 76.961 83.4601 76.5591 83.4601 76.1401V66.6601C83.4601 66.241 83.6265 65.8392 83.9228 65.5428C84.2192 65.2465 84.621 65.0801 85.0401 65.0801H89.7801C90.1991 65.0801 90.601 65.2465 90.8973 65.5428C91.1936 65.8392 91.3601 66.241 91.3601 66.6601C91.3601 67.0791 91.1936 67.481 90.8973 67.7773C90.601 68.0736 90.1991 68.2401 89.7801 68.2401H86.6201V74.5601H89.7801C90.1991 74.5601 90.601 74.7265 90.8973 75.0228C91.1936 75.3192 91.3601 75.721 91.3601 76.1401C91.3601 76.5591 91.1936 76.961 90.8973 77.2573C90.601 77.5536 90.1991 77.7201 89.7801 77.7201Z" fill="#881415"/>
<path d="M88.2 72.9799H85.04C84.6209 72.9799 84.219 72.8135 83.9227 72.5172C83.6264 72.2209 83.46 71.819 83.46 71.3999C83.46 70.9809 83.6264 70.579 83.9227 70.2827C84.219 69.9864 84.6209 69.8199 85.04 69.8199H88.2C88.619 69.8199 89.0209 69.9864 89.3172 70.2827C89.6135 70.579 89.78 70.9809 89.78 71.3999C89.78 71.819 89.6135 72.2209 89.3172 72.5172C89.0209 72.8135 88.619 72.9799 88.2 72.9799Z" fill="#881415"/>
</svg>
