<svg width="129" height="129" viewBox="0 0 129 129" fill="none" xmlns="http://www.w3.org/2000/svg">
<circle cx="64.4999" cy="64.3344" r="61.761" stroke="#FF7C7D" stroke-width="5.14675"/>
<g clip-path="url(#clip0_171_48)">
<path d="M102.67 34.3292L93.6707 25.3295C91.898 23.5568 89.0144 23.5568 87.2417 25.3295L82.7418 29.8294C80.1109 32.4602 79.4418 36.3146 80.7182 39.5782L49.9915 70.3045L45.9206 66.2319C43.7934 64.1047 40.3335 64.1047 38.2062 66.2319L30.6464 73.7917C27.3555 77.0825 25.1847 81.2351 24.3701 85.795C23.5392 90.3585 24.1138 95.0038 26.0283 99.2164C26.5883 100.471 27.5464 101.429 28.7864 101.984C37.3499 105.876 47.5715 104.024 54.2241 97.371L61.784 89.8112C63.9112 87.684 63.9112 84.2241 61.784 82.0969L57.7059 78.0188L88.438 47.287C91.698 48.5543 95.5433 47.8852 98.1706 45.258L102.67 40.7581C104.443 38.9855 104.443 36.1019 102.67 34.3292ZM59.5677 71.0136L56.9968 68.4428L77.7946 47.6452L80.3654 50.216L59.5677 71.0136ZM50.1006 80.4806C49.3915 81.1897 48.2388 81.1897 47.5297 80.4806C46.8206 79.7715 46.8206 78.6188 47.5297 77.9098L54.4259 71.0136L56.9968 73.5844L50.1006 80.4806ZM59.2131 84.6677C59.9331 85.3877 59.9331 86.5186 59.2131 87.2386L51.6533 94.7983C46.0679 100.384 37.4826 101.94 30.2809 98.6655C29.8537 98.4746 29.5409 98.1619 29.3446 97.7219C27.7319 94.1766 27.2501 90.2767 27.9482 86.4386C28.6319 82.6078 30.4537 79.1243 33.2172 76.3607L40.7771 68.8009C41.4971 68.081 42.628 68.081 43.348 68.8009L47.4206 72.8717L44.957 75.3353C42.8298 77.4625 42.8298 80.9224 44.957 83.0496C47.0842 85.1768 50.5442 85.1768 52.6714 83.0496L55.135 80.586L59.2131 84.6641V84.6677ZM82.9381 47.6452L80.3673 45.0744L82.749 42.6926L85.3144 45.258C85.3144 45.258 85.3181 45.2616 85.3199 45.2635L82.9363 47.647L82.9381 47.6452ZM87.8853 42.6854L85.3144 40.1145C83.1872 37.9873 83.1872 34.5274 85.3144 32.4002L85.9526 31.762L96.2379 42.0472L95.5997 42.6854C93.4725 44.8126 90.0125 44.8126 87.8853 42.6854ZM100.1 38.1855L98.8087 39.4764L88.5235 29.1912L89.8144 27.9003C90.1689 27.5458 90.7453 27.5458 91.0998 27.9003L100.1 36.9001C100.454 37.2546 100.454 37.831 100.1 38.1855Z" fill="#881415"/>
</g>
<defs>
<clipPath id="clip0_171_48">
<rect width="80" height="80" fill="white" transform="translate(24 24)"/>
</clipPath>
</defs>
</svg>
