<svg width="637" height="431" viewBox="0 0 637 431" fill="none" xmlns="http://www.w3.org/2000/svg">
<path d="M1 127C1 118.583 1.00078 112.33 1.4054 107.377C1.80908 102.437 2.60971 98.8785 4.16081 95.8343C6.94114 90.3776 11.3776 85.9411 16.8343 83.1608C19.8785 81.6097 23.4368 80.8091 28.3775 80.4054C33.3299 80.0008 39.5827 80 48 80H472H472.209C480.845 80.0001 485.375 80.0001 489.131 79.0462C500.147 76.2485 508.748 67.6467 511.546 56.6308C512.5 52.8746 512.5 48.345 512.5 39.7088V39.5C512.5 30.6056 512.508 26.3445 513.392 22.8616C516.01 12.5563 524.056 4.50951 534.362 1.8923C537.844 1.00776 542.106 1 551 1H617C625.417 1 631.67 1.00078 636.622 1.4054C641.563 1.80908 645.122 2.60971 648.166 4.16081C653.622 6.94114 658.059 11.3776 660.839 16.8343C662.39 19.8785 663.191 23.4368 663.595 28.3775C663.999 33.3299 664 39.5827 664 48V434H1V127Z" stroke="#881415" stroke-width="2"/>
</svg>
