<svg width="283" height="61" viewBox="0 0 283 61" fill="none" xmlns="http://www.w3.org/2000/svg">
<path d="M0 0.548672C0 0.245649 0.245649 0 0.548673 0H61.4513C61.7543 0 62 0.245649 62 0.548673V44.5128C62 44.9514 61.5109 45.2127 61.1463 44.9689L19.237 16.9404C19.051 16.816 18.8081 16.817 18.6231 16.943L0.857556 29.0442C0.493324 29.2923 0 29.0314 0 28.5907V0.548672Z" fill="#FDF852"/>
<path d="M0 36.2376C0 36.0509 0.0949312 35.877 0.251974 35.776L18.9072 23.7834C19.0877 23.6673 19.3194 23.6672 19.5001 23.7831L33.7434 32.9203L61.7567 51.6865C61.9087 51.7884 62 51.9594 62 52.1424V59.5309C62 59.834 61.7543 60.0796 61.4513 60.0796H0.548673C0.245649 60.0796 0 59.834 0 59.5309V36.2376Z" fill="#881415"/>
<path d="M44.375 11.25L46.0968 15.9032L50.75 17.625L46.0968 19.3468L44.375 24L42.6532 19.3468L38 17.625L42.6532 15.9032L44.375 11.25Z" fill="#881415"/>
<path d="M50.75 7L51.8979 10.1021L55 11.25L51.8979 12.3979L50.75 15.5L49.6021 12.3979L46.5 11.25L49.6021 10.1021L50.75 7Z" fill="#881415"/>
<path d="M78.3596 31.7606C76.7892 31.7606 75.5215 31.4335 74.5563 30.7792C73.6076 30.1085 73.0023 29.2333 72.7406 28.1537C72.4789 27.0577 72.5852 25.88 73.0596 24.6204L77.2554 24.4487C76.7483 25.79 76.642 26.796 76.9364 27.4667C77.2472 28.1374 77.8279 28.4727 78.6785 28.4727C79.4146 28.4727 79.9544 28.211 80.298 27.6875C80.6415 27.1477 80.9523 26.2726 81.2304 25.0621L83.4632 15.3455H87.6835L85.2789 25.7982C85.099 26.5834 84.8536 27.3358 84.5428 28.0556C84.232 28.759 83.8149 29.3969 83.2915 29.9694C82.768 30.5256 82.1055 30.9673 81.304 31.2944C80.5024 31.6052 79.521 31.7606 78.3596 31.7606ZM94.7891 31.8097C93.6767 31.8097 92.6216 31.6625 91.6238 31.368C90.6423 31.0572 89.7427 30.6074 88.9248 30.0185C88.1232 29.4133 87.4444 28.669 86.8882 27.7857L89.3419 25.3565C89.7345 26.0599 90.2252 26.6488 90.8141 27.1232C91.403 27.5975 92.0409 27.9574 92.728 28.2028C93.4314 28.4318 94.1184 28.5463 94.7891 28.5463C95.2634 28.5463 95.656 28.4727 95.9668 28.3255C96.2776 28.1783 96.5066 27.982 96.6539 27.7366C96.8174 27.4912 96.8992 27.2295 96.8992 26.9514C96.8992 26.6079 96.7684 26.3298 96.5066 26.1172C96.2613 25.9045 95.8932 25.7164 95.4025 25.5528L93.0224 24.7676C91.9428 24.4078 91.0349 23.868 90.2988 23.1482C89.5627 22.4121 89.1947 21.4633 89.1947 20.3019C89.1947 19.206 89.4727 18.2736 90.0289 17.5047C90.5851 16.7196 91.3539 16.1225 92.3354 15.7135C93.3168 15.3046 94.4292 15.1001 95.6724 15.1001C97.3409 15.1001 98.7395 15.4027 99.8682 16.008C101.013 16.5969 101.962 17.4311 102.714 18.5107L100.138 20.8663C99.8109 20.2774 99.4102 19.803 98.9358 19.4431C98.4614 19.0669 97.9379 18.797 97.3654 18.6334C96.8093 18.4535 96.2449 18.3635 95.6724 18.3635C95.198 18.3635 94.8054 18.429 94.4946 18.5598C94.1838 18.6907 93.9548 18.8706 93.8076 19.0996C93.6604 19.3123 93.5868 19.5658 93.5868 19.8603C93.5868 20.2038 93.734 20.5064 94.0284 20.7681C94.3392 21.0135 94.7482 21.2262 95.2553 21.4061L97.6353 22.1913C98.8458 22.5839 99.7537 23.1237 100.359 23.8107C100.981 24.4814 101.291 25.3565 101.291 26.4361C101.291 27.5648 100.997 28.5299 100.408 29.3315C99.8355 30.133 99.0585 30.7464 98.077 31.1717C97.0955 31.597 95.9995 31.8097 94.7891 31.8097ZM114.835 31.7852C113.199 31.7852 111.915 31.368 110.983 30.5338C110.067 29.6995 109.609 28.6281 109.609 27.3195C109.609 26.2889 109.838 25.4138 110.296 24.694C110.754 23.9579 111.392 23.369 112.209 22.9274C113.027 22.4694 113.976 22.1586 115.056 21.995L116.209 21.4552C116.831 21.3407 117.387 21.2016 117.877 21.038C118.385 20.8581 118.777 20.6127 119.055 20.3019C119.35 19.9911 119.497 19.5822 119.497 19.0751C119.497 18.6661 119.382 18.3553 119.153 18.1427C118.924 17.93 118.646 17.8237 118.319 17.8237C117.796 17.8237 117.395 18.0037 117.117 18.3635C116.839 18.7234 116.7 19.1814 116.7 19.7376C116.7 20.0975 116.757 20.5146 116.871 20.989C116.986 21.4633 117.199 22.0359 117.509 22.7065C117.82 23.3609 118.27 24.1706 118.859 25.1357C119.333 25.9209 119.824 26.6243 120.331 27.2459C120.838 27.8511 121.386 28.3255 121.975 28.669C122.564 28.9961 123.21 29.127 123.913 29.0616L123.153 31.7852H122.736C121.427 31.7852 120.282 31.3844 119.301 30.5829C118.319 29.765 117.338 28.5872 116.356 27.0496C115.62 25.8881 115.039 24.8903 114.614 24.0561C114.205 23.2055 113.911 22.4448 113.731 21.7741C113.551 21.1035 113.461 20.4655 113.461 19.8603C113.461 18.9115 113.665 18.0854 114.074 17.3821C114.5 16.6623 115.088 16.1061 115.841 15.7135C116.61 15.3046 117.501 15.1001 118.515 15.1001C119.791 15.1001 120.797 15.4027 121.533 16.008C122.286 16.5969 122.662 17.3821 122.662 18.3635C122.662 19.2959 122.417 20.1056 121.926 20.7927C121.452 21.4797 120.781 22.044 119.914 22.4857C119.047 22.9274 118.033 23.2545 116.871 23.4672L116.7 23.9334C116.045 24.0806 115.456 24.2851 114.933 24.5468C114.426 24.7922 114.025 25.103 113.731 25.4792C113.436 25.8554 113.289 26.3298 113.289 26.9023C113.289 27.6057 113.518 28.1455 113.976 28.5218C114.434 28.898 115.039 29.0861 115.792 29.0861C116.413 29.0861 116.953 28.9553 117.411 28.6935C117.869 28.4154 118.319 28.0719 118.761 27.663L119.276 27.3685C119.701 26.9923 120.069 26.5097 120.38 25.9209C120.691 25.332 120.928 24.6286 121.092 23.8107L123.889 23.8843C123.611 25.013 123.194 26.0517 122.638 27.0005C122.081 27.9492 121.443 28.7099 120.724 29.2824L120.208 29.6259C119.505 30.2148 118.736 30.7219 117.902 31.1472C117.068 31.5725 116.045 31.7852 114.835 31.7852ZM132.206 31.5398L135.96 15.3455H141.603C143.124 15.3455 144.392 15.6236 145.406 16.1797C146.437 16.7359 147.214 17.5047 147.737 18.4862C148.261 19.4677 148.523 20.6127 148.523 21.9214C148.523 23.3445 148.318 24.6449 147.909 25.8227C147.5 27.0005 146.903 28.0147 146.118 28.8653C145.349 29.7159 144.417 30.3784 143.321 30.8528C142.225 31.3108 140.982 31.5398 139.591 31.5398H132.206ZM137.162 28.35H139.444C140.229 28.35 140.924 28.1701 141.53 27.8102C142.135 27.434 142.634 26.9432 143.026 26.338C143.435 25.7164 143.738 25.0294 143.934 24.2769C144.147 23.5081 144.253 22.7393 144.253 21.9704C144.253 21.2834 144.139 20.6863 143.91 20.1792C143.681 19.6558 143.337 19.255 142.879 18.9769C142.421 18.6825 141.84 18.5353 141.137 18.5353H139.444L137.162 28.35ZM147.549 31.5398L156.8 15.3455H161.903L163.596 31.5398H159.597L159.327 27.7366H153.953L151.941 31.5398H147.549ZM155.475 24.8658H159.18L158.763 18.5844L155.475 24.8658ZM172.088 31.7852C170.502 31.7852 169.169 31.4907 168.089 30.9018C167.026 30.2966 166.29 29.4378 165.881 28.3255C165.472 27.2131 165.447 25.8881 165.807 24.3505L167.917 15.3455H172.138L169.954 24.9394C169.79 25.6919 169.79 26.338 169.954 26.8778C170.117 27.4013 170.42 27.802 170.862 28.0801C171.303 28.3418 171.843 28.4727 172.481 28.4727C173.348 28.4727 174.019 28.2028 174.493 27.663C174.984 27.1232 175.352 26.3298 175.597 25.2829L177.904 15.3455H182.099L179.768 25.4056C179.294 27.483 178.443 29.0698 177.217 30.1657C175.99 31.2454 174.28 31.7852 172.088 31.7852ZM189.216 31.7606C188.038 31.7606 186.967 31.4825 186.002 30.9264C185.053 30.3538 184.3 29.5523 183.744 28.5218C183.188 27.4749 182.91 26.2317 182.91 24.7922C182.91 23.4835 183.098 22.2485 183.474 21.0871C183.867 19.9093 184.439 18.8706 185.192 17.9709C185.944 17.0713 186.869 16.3679 187.965 15.8608C189.061 15.3537 190.312 15.1001 191.719 15.1001C192.896 15.1001 193.952 15.2964 194.884 15.689C195.833 16.0652 196.61 16.6296 197.215 17.3821C197.837 18.1182 198.229 19.0424 198.393 20.1547L194.418 20.9154C194.32 20.0975 194.025 19.4759 193.534 19.0506C193.06 18.6253 192.414 18.4126 191.596 18.4126C190.942 18.4126 190.336 18.5762 189.78 18.9033C189.24 19.2141 188.774 19.6476 188.382 20.2038C187.989 20.76 187.686 21.4061 187.474 22.1422C187.261 22.8619 187.155 23.6308 187.155 24.4487C187.155 25.2829 187.278 26.0108 187.523 26.6324C187.768 27.254 188.144 27.7366 188.652 28.0801C189.159 28.4073 189.797 28.5708 190.565 28.5708C191.171 28.5708 191.694 28.4727 192.136 28.2764C192.577 28.0801 192.946 27.8102 193.24 27.4667C193.534 27.1068 193.755 26.6979 193.902 26.2398L194.074 25.7H190.296L190.958 22.9028H198.049L195.89 31.5398H193.093L193.902 27.7366L194.271 28.1292C193.992 28.9144 193.624 29.5768 193.166 30.1167C192.725 30.6565 192.177 31.0654 191.522 31.3435C190.868 31.6216 190.099 31.7606 189.216 31.7606ZM217.239 15.3455L213.485 31.5398H209.264L213.019 15.3455H217.239ZM207.105 15.3455L203.351 31.5398H199.131L202.885 15.3455H207.105ZM213.804 21.7496L213.043 25.013H202.713L203.474 21.7496H213.804ZM234.084 15.3455L233.299 18.6089H228.195L225.226 31.5398H221.006L223.975 18.6089H218.822L219.607 15.3455H234.084ZM232.677 31.5398L236.431 15.3455H248.871L248.062 18.6089H239.891L239.13 21.8968H245.608L244.872 24.9639H238.419L237.658 28.2764H246.123L245.338 31.5398H232.677ZM247.869 31.5398L251.623 15.3455H258.493C260.113 15.3455 261.397 15.7463 262.346 16.5478C263.311 17.3493 263.793 18.478 263.793 19.9339C263.793 21.0953 263.523 22.0931 262.984 22.9274C262.444 23.7453 261.708 24.3832 260.775 24.8412C259.859 25.2829 258.812 25.5365 257.635 25.6019L256.727 25.8227H252.973L253.66 22.8292H256.776C257.381 22.8292 257.888 22.7229 258.297 22.5102C258.722 22.2976 259.049 22.0032 259.278 21.6269C259.508 21.2343 259.622 20.8008 259.622 20.3265C259.622 19.7049 259.418 19.255 259.009 18.9769C258.6 18.6825 258.076 18.5353 257.438 18.5353H255.009L252.016 31.5398H247.869ZM258.125 31.5398L255.573 24.5223L259.401 23.9334L262.395 31.5398H258.125ZM271.938 31.8097C270.826 31.8097 269.771 31.6625 268.773 31.368C267.791 31.0572 266.892 30.6074 266.074 30.0185C265.272 29.4133 264.593 28.669 264.037 27.7857L266.491 25.3565C266.884 26.0599 267.374 26.6488 267.963 27.1232C268.552 27.5975 269.19 27.9574 269.877 28.2028C270.58 28.4318 271.267 28.5463 271.938 28.5463C272.413 28.5463 272.805 28.4727 273.116 28.3255C273.427 28.1783 273.656 27.982 273.803 27.7366C273.967 27.4912 274.048 27.2295 274.048 26.9514C274.048 26.6079 273.917 26.3298 273.656 26.1172C273.41 25.9045 273.042 25.7164 272.552 25.5528L270.171 24.7676C269.092 24.4078 268.184 23.868 267.448 23.1482C266.712 22.4121 266.344 21.4633 266.344 20.3019C266.344 19.206 266.622 18.2736 267.178 17.5047C267.734 16.7196 268.503 16.1225 269.484 15.7135C270.466 15.3046 271.578 15.1001 272.821 15.1001C274.49 15.1001 275.889 15.4027 277.017 16.008C278.162 16.5969 279.111 17.4311 279.864 18.5107L277.287 20.8663C276.96 20.2774 276.559 19.803 276.085 19.4431C275.61 19.0669 275.087 18.797 274.515 18.6334C273.958 18.4535 273.394 18.3635 272.821 18.3635C272.347 18.3635 271.955 18.429 271.644 18.5598C271.333 18.6907 271.104 18.8706 270.957 19.0996C270.809 19.3123 270.736 19.5658 270.736 19.8603C270.736 20.2038 270.883 20.5064 271.178 20.7681C271.488 21.0135 271.897 21.2262 272.404 21.4061L274.784 22.1913C275.995 22.5839 276.903 23.1237 277.508 23.8107C278.13 24.4814 278.44 25.3565 278.44 26.4361C278.44 27.5648 278.146 28.5299 277.557 29.3315C276.985 30.133 276.208 30.7464 275.226 31.1717C274.245 31.597 273.149 31.8097 271.938 31.8097Z" fill="#881415"/>
<path d="M112.812 49.5398L113.997 42.4018H116.673C117.222 42.4018 117.665 42.504 118.005 42.7085C118.344 42.9107 118.58 43.1907 118.712 43.5485C118.845 43.904 118.873 44.3095 118.796 44.7649C118.721 45.2226 118.558 45.6292 118.304 45.9847C118.053 46.3402 117.722 46.6202 117.311 46.8247C116.9 47.0269 116.419 47.1279 115.868 47.1279H114.094L114.272 46.0649H115.872C116.192 46.0649 116.464 46.0091 116.687 45.8976C116.913 45.7861 117.09 45.6327 117.22 45.4375C117.351 45.2424 117.437 45.0181 117.478 44.7649C117.518 44.5116 117.505 44.2885 117.44 44.0957C117.375 43.9028 117.248 43.753 117.06 43.6461C116.874 43.5369 116.62 43.4823 116.297 43.4823H115.112L114.105 49.5398H112.812ZM119.118 49.5398L120.303 42.4018H122.98C123.528 42.4018 123.973 42.4971 124.315 42.6876C124.656 42.8781 124.895 43.1454 125.029 43.4892C125.164 43.8308 125.193 44.2293 125.117 44.6847C125.042 45.1401 124.88 45.5363 124.629 45.8732C124.38 46.2078 124.051 46.4669 123.642 46.6504C123.236 46.834 122.758 46.9258 122.21 46.9258H120.303L120.484 45.8523H122.22C122.541 45.8523 122.81 45.8082 123.029 45.7199C123.247 45.6292 123.419 45.498 123.545 45.326C123.672 45.1517 123.757 44.938 123.799 44.6847C123.839 44.4314 123.823 44.2154 123.754 44.0364C123.686 43.8552 123.557 43.7181 123.367 43.6252C123.179 43.5299 122.924 43.4823 122.604 43.4823H121.419L120.411 49.5398H119.118ZM123.342 46.3054L124.573 49.5398H123.13L121.931 46.3054H123.342ZM132.497 46.0545C132.371 46.8119 132.124 47.4579 131.754 47.9923C131.387 48.5244 130.939 48.9322 130.409 49.2157C129.882 49.4968 129.313 49.6374 128.705 49.6374C128.066 49.6374 127.517 49.4887 127.06 49.1913C126.602 48.8915 126.272 48.4628 126.07 47.9052C125.87 47.3475 125.835 46.6783 125.965 45.8976C126.091 45.1425 126.337 44.4965 126.704 43.9598C127.071 43.423 127.521 43.0129 128.053 42.7294C128.585 42.446 129.159 42.3042 129.775 42.3042C130.409 42.3042 130.953 42.4541 131.406 42.7538C131.861 43.0512 132.189 43.4799 132.389 44.0399C132.591 44.5999 132.627 45.2714 132.497 46.0545ZM131.225 45.8976C131.311 45.3702 131.302 44.9252 131.2 44.5627C131.1 44.2002 130.923 43.9272 130.667 43.7437C130.411 43.5578 130.096 43.4648 129.722 43.4648C129.318 43.4648 128.944 43.5659 128.6 43.7681C128.259 43.9679 127.968 44.2607 127.729 44.6464C127.492 45.0321 127.329 45.5014 127.241 46.0545C127.148 46.5842 127.154 47.0292 127.258 47.3893C127.363 47.7495 127.544 48.0213 127.802 48.2049C128.06 48.3861 128.375 48.4768 128.746 48.4768C129.148 48.4768 129.52 48.3769 129.862 48.177C130.203 47.9772 130.493 47.6856 130.73 47.3022C130.969 46.9188 131.134 46.4506 131.225 45.8976ZM133.141 49.5398L134.326 42.4018H137.002C137.551 42.4018 137.995 42.504 138.334 42.7085C138.673 42.9107 138.909 43.1907 139.041 43.5485C139.174 43.904 139.202 44.3095 139.125 44.7649C139.051 45.2226 138.887 45.6292 138.634 45.9847C138.383 46.3402 138.051 46.6202 137.64 46.8247C137.229 47.0269 136.748 47.1279 136.197 47.1279H134.423L134.601 46.0649H136.201C136.521 46.0649 136.793 46.0091 137.016 45.8976C137.242 45.7861 137.419 45.6327 137.55 45.4375C137.68 45.2424 137.766 45.0181 137.808 44.7649C137.847 44.5116 137.834 44.2885 137.769 44.0957C137.704 43.9028 137.577 43.753 137.389 43.6461C137.203 43.5369 136.949 43.4823 136.626 43.4823H135.441L134.434 49.5398H133.141ZM139.447 49.5398L140.632 42.4018H145.275L145.094 43.4858H141.744L141.424 45.4236H144.532L144.351 46.5075H141.242L140.922 48.4559H144.299L144.118 49.5398H139.447ZM145.409 49.5398L146.594 42.4018H149.271C149.819 42.4018 150.264 42.4971 150.606 42.6876C150.947 42.8781 151.185 43.1454 151.32 43.4892C151.455 43.8308 151.484 44.2293 151.407 44.6847C151.333 45.1401 151.17 45.5363 150.919 45.8732C150.671 46.2078 150.342 46.4669 149.933 46.6504C149.526 46.834 149.049 46.9258 148.501 46.9258H146.594L146.775 45.8523H148.511C148.832 45.8523 149.101 45.8082 149.32 45.7199C149.538 45.6292 149.71 45.498 149.835 45.326C149.963 45.1517 150.048 44.938 150.09 44.6847C150.129 44.4314 150.114 44.2154 150.045 44.0364C149.977 43.8552 149.848 43.7181 149.658 43.6252C149.469 43.5299 149.215 43.4823 148.894 43.4823H147.709L146.702 49.5398H145.409ZM149.633 46.3054L150.864 49.5398H149.421L148.222 46.3054H149.633ZM152.521 43.4858L152.702 42.4018H158.397L158.216 43.4858H156.01L155.006 49.5398H153.723L154.727 43.4858H152.521ZM159.007 42.4018H160.467L161.691 45.5595H161.768L164.029 42.4018H165.49L162.151 46.877L161.708 49.5398H160.419L160.861 46.877L159.007 42.4018ZM168.84 42.4018H170.422L171.688 47.5741H171.771L174.744 42.4018H176.327L175.142 49.5398H173.901L174.716 44.6359H174.654L171.865 49.5189H170.942L169.785 44.6255H169.718L168.896 49.5398H167.655L168.84 42.4018ZM177.466 49.5398H176.086L179.784 42.4018H181.38L182.712 49.5398H181.332L180.373 43.8657H180.317L177.466 49.5398ZM177.975 46.7411H181.739L181.565 47.7797H177.801L177.975 46.7411ZM190.703 42.4018L189.518 49.5398H188.368L185.813 44.6777H185.757L184.945 49.5398H183.652L184.837 42.4018H185.994L188.545 47.2674H188.612L189.417 42.4018H190.703ZM191.843 49.5398H190.463L194.161 42.4018H195.757L197.089 49.5398H195.709L194.75 43.8657H194.694L191.843 49.5398ZM192.352 46.7411H196.116L195.942 47.7797H192.178L192.352 46.7411ZM203.277 44.6812C203.252 44.493 203.205 44.3246 203.138 44.1759C203.07 44.0248 202.98 43.897 202.866 43.7925C202.752 43.6856 202.614 43.6043 202.451 43.5485C202.288 43.4927 202.099 43.4648 201.883 43.4648C201.5 43.4648 201.136 43.5613 200.792 43.7541C200.448 43.947 200.154 44.2305 199.91 44.6045C199.666 44.9763 199.5 45.4294 199.412 45.9638C199.324 46.5029 199.328 46.9595 199.426 47.3336C199.523 47.7077 199.702 47.9923 199.963 48.1875C200.225 48.3803 200.555 48.4768 200.952 48.4768C201.317 48.4768 201.648 48.4071 201.946 48.2676C202.243 48.1282 202.489 47.9307 202.685 47.6751C202.882 47.4172 203.008 47.1152 203.061 46.7689L203.347 46.8143H201.405L201.58 45.8035H204.476L204.33 46.6609C204.23 47.2743 204.012 47.8041 203.678 48.2502C203.346 48.694 202.931 49.0367 202.434 49.2784C201.939 49.5177 201.396 49.6374 200.806 49.6374C200.151 49.6374 199.599 49.4898 199.15 49.1947C198.704 48.8973 198.388 48.4756 198.202 47.9296C198.017 47.3812 197.986 46.7306 198.112 45.9778C198.205 45.4015 198.37 44.8869 198.607 44.4338C198.846 43.9807 199.139 43.5961 199.485 43.2801C199.834 42.9618 200.22 42.7201 200.646 42.5552C201.071 42.3879 201.517 42.3042 201.984 42.3042C202.377 42.3042 202.735 42.3623 203.057 42.4785C203.38 42.5923 203.657 42.755 203.887 42.9664C204.119 43.1779 204.297 43.4288 204.42 43.7193C204.543 44.0097 204.602 44.3304 204.595 44.6812H203.277ZM205.103 49.5398L206.288 42.4018H210.93L210.749 43.4858H207.399L207.079 45.4236H210.188L210.006 46.5075H206.897L206.577 48.4559H209.954L209.773 49.5398H205.103ZM212.249 42.4018H213.832L215.097 47.5741H215.18L218.153 42.4018H219.736L218.551 49.5398H217.31L218.126 44.6359H218.063L215.274 49.5189H214.351L213.194 44.6255H213.128L212.305 49.5398H211.064L212.249 42.4018ZM219.959 49.5398L221.144 42.4018H225.786L225.605 43.4858H222.256L221.935 45.4236H225.044L224.863 46.5075H221.754L221.433 48.4559H224.81L224.629 49.5398H219.959ZM232.971 42.4018L231.786 49.5398H230.636L228.081 44.6777H228.026L227.214 49.5398H225.92L227.105 42.4018H228.263L230.814 47.2674H230.88L231.685 42.4018H232.971ZM233.885 43.4858L234.067 42.4018H239.762L239.58 43.4858H237.374L236.37 49.5398H235.088L236.092 43.4858H233.885Z" fill="white"/>
</svg>
