<svg width="283" height="61" viewBox="0 0 283 61" fill="none" xmlns="http://www.w3.org/2000/svg">
<path d="M0.686279 0.548672C0.686279 0.245649 0.931928 0 1.23495 0H62.1376C62.4406 0 62.6863 0.245649 62.6863 0.548673V44.5128C62.6863 44.9514 62.1972 45.2127 61.8326 44.9689L19.9233 16.9404C19.7373 16.816 19.4944 16.817 19.3094 16.943L1.54384 29.0442C1.1796 29.2923 0.686279 29.0314 0.686279 28.5907V0.548672Z" fill="#881415"/>
<path d="M0.686279 36.2376C0.686279 36.0509 0.781211 35.877 0.938253 35.776L19.5934 23.7834C19.774 23.6673 20.0057 23.6672 20.1864 23.7831L34.4296 32.9203L62.443 51.6865C62.595 51.7884 62.6863 51.9594 62.6863 52.1424V59.5309C62.6863 59.834 62.4406 60.0796 62.1376 60.0796H1.23495C0.931929 60.0796 0.686279 59.834 0.686279 59.5309V36.2376Z" fill="#282A36"/>
<path d="M79.0458 31.7606C77.4755 31.7606 76.2077 31.4335 75.2426 30.7792C74.2939 30.1085 73.6886 29.2333 73.4269 28.1537C73.1652 27.0577 73.2715 25.88 73.7459 24.6204L77.9417 24.4487C77.4346 25.79 77.3283 26.796 77.6227 27.4667C77.9335 28.1374 78.5142 28.4727 79.3648 28.4727C80.1009 28.4727 80.6407 28.211 80.9842 27.6875C81.3278 27.1477 81.6386 26.2726 81.9166 25.0621L84.1495 15.3455H88.3698L85.9652 25.7982C85.7853 26.5834 85.5399 27.3358 85.2291 28.0556C84.9183 28.759 84.5012 29.3969 83.9777 29.9694C83.4543 30.5256 82.7918 30.9673 81.9902 31.2944C81.1887 31.6052 80.2072 31.7606 79.0458 31.7606ZM95.4753 31.8097C94.363 31.8097 93.3079 31.6625 92.3101 31.368C91.3286 31.0572 90.4289 30.6074 89.611 30.0185C88.8095 29.4133 88.1306 28.669 87.5745 27.7857L90.0282 25.3565C90.4208 26.0599 90.9115 26.6488 91.5004 27.1232C92.0893 27.5975 92.7272 27.9574 93.4142 28.2028C94.1176 28.4318 94.8047 28.5463 95.4753 28.5463C95.9497 28.5463 96.3423 28.4727 96.6531 28.3255C96.9639 28.1783 97.1929 27.982 97.3401 27.7366C97.5037 27.4912 97.5855 27.2295 97.5855 26.9514C97.5855 26.6079 97.4546 26.3298 97.1929 26.1172C96.9475 25.9045 96.5795 25.7164 96.0888 25.5528L93.7087 24.7676C92.6291 24.4078 91.7212 23.868 90.9851 23.1482C90.249 22.4121 89.8809 21.4633 89.8809 20.3019C89.8809 19.206 90.159 18.2736 90.7152 17.5047C91.2714 16.7196 92.0402 16.1225 93.0217 15.7135C94.0031 15.3046 95.1155 15.1001 96.3587 15.1001C98.0272 15.1001 99.4258 15.4027 100.554 16.008C101.7 16.5969 102.648 17.4311 103.401 18.5107L100.824 20.8663C100.497 20.2774 100.096 19.803 99.6221 19.4431C99.1477 19.0669 98.6242 18.797 98.0517 18.6334C97.4955 18.4535 96.9312 18.3635 96.3587 18.3635C95.8843 18.3635 95.4917 18.429 95.1809 18.5598C94.8701 18.6907 94.6411 18.8706 94.4939 19.0996C94.3466 19.3123 94.273 19.5658 94.273 19.8603C94.273 20.2038 94.4203 20.5064 94.7147 20.7681C95.0255 21.0135 95.4344 21.2262 95.9415 21.4061L98.3216 22.1913C99.5321 22.5839 100.44 23.1237 101.045 23.8107C101.667 24.4814 101.978 25.3565 101.978 26.4361C101.978 27.5648 101.683 28.5299 101.094 29.3315C100.522 30.133 99.7447 30.7464 98.7633 31.1717C97.7818 31.597 96.6858 31.8097 95.4753 31.8097ZM115.521 31.7852C113.885 31.7852 112.601 31.368 111.669 30.5338C110.753 29.6995 110.295 28.6281 110.295 27.3195C110.295 26.2889 110.524 25.4138 110.982 24.694C111.44 23.9579 112.078 23.369 112.896 22.9274C113.714 22.4694 114.662 22.1586 115.742 21.995L116.895 21.4552C117.517 21.3407 118.073 21.2016 118.564 21.038C119.071 20.8581 119.463 20.6127 119.741 20.3019C120.036 19.9911 120.183 19.5822 120.183 19.0751C120.183 18.6661 120.069 18.3553 119.84 18.1427C119.611 17.93 119.333 17.8237 119.005 17.8237C118.482 17.8237 118.081 18.0037 117.803 18.3635C117.525 18.7234 117.386 19.1814 117.386 19.7376C117.386 20.0975 117.443 20.5146 117.558 20.989C117.672 21.4633 117.885 22.0359 118.196 22.7065C118.506 23.3609 118.956 24.1706 119.545 25.1357C120.02 25.9209 120.51 26.6243 121.017 27.2459C121.524 27.8511 122.072 28.3255 122.661 28.669C123.25 28.9961 123.896 29.127 124.6 29.0616L123.839 31.7852H123.422C122.113 31.7852 120.968 31.3844 119.987 30.5829C119.005 29.765 118.024 28.5872 117.042 27.0496C116.306 25.8881 115.726 24.8903 115.3 24.0561C114.891 23.2055 114.597 22.4448 114.417 21.7741C114.237 21.1035 114.147 20.4655 114.147 19.8603C114.147 18.9115 114.352 18.0854 114.761 17.3821C115.186 16.6623 115.775 16.1061 116.527 15.7135C117.296 15.3046 118.187 15.1001 119.202 15.1001C120.478 15.1001 121.484 15.4027 122.22 16.008C122.972 16.5969 123.348 17.3821 123.348 18.3635C123.348 19.2959 123.103 20.1056 122.612 20.7927C122.138 21.4797 121.467 22.044 120.6 22.4857C119.733 22.9274 118.719 23.2545 117.558 23.4672L117.386 23.9334C116.732 24.0806 116.143 24.2851 115.619 24.5468C115.112 24.7922 114.711 25.103 114.417 25.4792C114.123 25.8554 113.975 26.3298 113.975 26.9023C113.975 27.6057 114.204 28.1455 114.662 28.5218C115.12 28.898 115.726 29.0861 116.478 29.0861C117.1 29.0861 117.639 28.9553 118.098 28.6935C118.556 28.4154 119.005 28.0719 119.447 27.663L119.962 27.3685C120.388 26.9923 120.756 26.5097 121.066 25.9209C121.377 25.332 121.614 24.6286 121.778 23.8107L124.575 23.8843C124.297 25.013 123.88 26.0517 123.324 27.0005C122.768 27.9492 122.13 28.7099 121.41 29.2824L120.895 29.6259C120.191 30.2148 119.423 30.7219 118.588 31.1472C117.754 31.5725 116.732 31.7852 115.521 31.7852ZM132.892 31.5398L136.646 15.3455H142.289C143.811 15.3455 145.078 15.6236 146.093 16.1797C147.123 16.7359 147.9 17.5047 148.424 18.4862C148.947 19.4677 149.209 20.6127 149.209 21.9214C149.209 23.3445 149.004 24.6449 148.595 25.8227C148.186 27.0005 147.589 28.0147 146.804 28.8653C146.035 29.7159 145.103 30.3784 144.007 30.8528C142.911 31.3108 141.668 31.5398 140.277 31.5398H132.892ZM137.848 28.35H140.13C140.915 28.35 141.611 28.1701 142.216 27.8102C142.821 27.434 143.32 26.9432 143.713 26.338C144.122 25.7164 144.424 25.0294 144.62 24.2769C144.833 23.5081 144.939 22.7393 144.939 21.9704C144.939 21.2834 144.825 20.6863 144.596 20.1792C144.367 19.6558 144.023 19.255 143.565 18.9769C143.107 18.6825 142.527 18.5353 141.823 18.5353H140.13L137.848 28.35ZM148.236 31.5398L157.486 15.3455H162.59L164.283 31.5398H160.283L160.013 27.7366H154.64L152.628 31.5398H148.236ZM156.161 24.8658H159.866L159.449 18.5844L156.161 24.8658ZM172.775 31.7852C171.188 31.7852 169.855 31.4907 168.775 30.9018C167.712 30.2966 166.976 29.4378 166.567 28.3255C166.158 27.2131 166.133 25.8881 166.493 24.3505L168.603 15.3455H172.824L170.64 24.9394C170.476 25.6919 170.476 26.338 170.64 26.8778C170.804 27.4013 171.106 27.802 171.548 28.0801C171.99 28.3418 172.529 28.4727 173.167 28.4727C174.034 28.4727 174.705 28.2028 175.179 27.663C175.67 27.1232 176.038 26.3298 176.284 25.2829L178.59 15.3455H182.786L180.455 25.4056C179.98 27.483 179.13 29.0698 177.903 30.1657C176.676 31.2454 174.967 31.7852 172.775 31.7852ZM189.902 31.7606C188.724 31.7606 187.653 31.4825 186.688 30.9264C185.739 30.3538 184.987 29.5523 184.43 28.5218C183.874 27.4749 183.596 26.2317 183.596 24.7922C183.596 23.4835 183.784 22.2485 184.161 21.0871C184.553 19.9093 185.126 18.8706 185.878 17.9709C186.631 17.0713 187.555 16.3679 188.651 15.8608C189.747 15.3537 190.998 15.1001 192.405 15.1001C193.583 15.1001 194.638 15.2964 195.57 15.689C196.519 16.0652 197.296 16.6296 197.901 17.3821C198.523 18.1182 198.915 19.0424 199.079 20.1547L195.104 20.9154C195.006 20.0975 194.711 19.4759 194.221 19.0506C193.746 18.6253 193.1 18.4126 192.282 18.4126C191.628 18.4126 191.023 18.5762 190.467 18.9033C189.927 19.2141 189.461 19.6476 189.068 20.2038C188.675 20.76 188.373 21.4061 188.16 22.1422C187.947 22.8619 187.841 23.6308 187.841 24.4487C187.841 25.2829 187.964 26.0108 188.209 26.6324C188.455 27.254 188.831 27.7366 189.338 28.0801C189.845 28.4073 190.483 28.5708 191.252 28.5708C191.857 28.5708 192.38 28.4727 192.822 28.2764C193.264 28.0801 193.632 27.8102 193.926 27.4667C194.221 27.1068 194.442 26.6979 194.589 26.2398L194.76 25.7H190.982L191.644 22.9028H198.735L196.576 31.5398H193.779L194.589 27.7366L194.957 28.1292C194.679 28.9144 194.311 29.5768 193.853 30.1167C193.411 30.6565 192.863 31.0654 192.209 31.3435C191.554 31.6216 190.786 31.7606 189.902 31.7606ZM217.925 15.3455L214.171 31.5398H209.951L213.705 15.3455H217.925ZM207.791 15.3455L204.037 31.5398H199.817L203.571 15.3455H207.791ZM214.49 21.7496L213.729 25.013H203.399L204.16 21.7496H214.49ZM234.77 15.3455L233.985 18.6089H228.881L225.912 31.5398H221.692L224.661 18.6089H219.508L220.293 15.3455H234.77ZM233.363 31.5398L237.118 15.3455H249.558L248.748 18.6089H240.577L239.817 21.8968H246.294L245.558 24.9639H239.105L238.344 28.2764H246.81L246.024 31.5398H233.363ZM248.555 31.5398L252.309 15.3455H259.18C260.799 15.3455 262.083 15.7463 263.032 16.5478C263.997 17.3493 264.48 18.478 264.48 19.9339C264.48 21.0953 264.21 22.0931 263.67 22.9274C263.13 23.7453 262.394 24.3832 261.462 24.8412C260.545 25.2829 259.499 25.5365 258.321 25.6019L257.413 25.8227H253.659L254.346 22.8292H257.462C258.067 22.8292 258.574 22.7229 258.983 22.5102C259.409 22.2976 259.736 22.0032 259.965 21.6269C260.194 21.2343 260.308 20.8008 260.308 20.3265C260.308 19.7049 260.104 19.255 259.695 18.9769C259.286 18.6825 258.762 18.5353 258.125 18.5353H255.695L252.702 31.5398H248.555ZM258.812 31.5398L256.26 24.5223L260.087 23.9334L263.081 31.5398H258.812ZM272.624 31.8097C271.512 31.8097 270.457 31.6625 269.459 31.368C268.478 31.0572 267.578 30.6074 266.76 30.0185C265.959 29.4133 265.28 28.669 264.724 27.7857L267.177 25.3565C267.57 26.0599 268.061 26.6488 268.649 27.1232C269.238 27.5975 269.876 27.9574 270.563 28.2028C271.267 28.4318 271.954 28.5463 272.624 28.5463C273.099 28.5463 273.491 28.4727 273.802 28.3255C274.113 28.1783 274.342 27.982 274.489 27.7366C274.653 27.4912 274.735 27.2295 274.735 26.9514C274.735 26.6079 274.604 26.3298 274.342 26.1172C274.097 25.9045 273.729 25.7164 273.238 25.5528L270.858 24.7676C269.778 24.4078 268.87 23.868 268.134 23.1482C267.398 22.4121 267.03 21.4633 267.03 20.3019C267.03 19.206 267.308 18.2736 267.864 17.5047C268.42 16.7196 269.189 16.1225 270.171 15.7135C271.152 15.3046 272.265 15.1001 273.508 15.1001C275.176 15.1001 276.575 15.4027 277.704 16.008C278.849 16.5969 279.797 17.4311 280.55 18.5107L277.973 20.8663C277.646 20.2774 277.246 19.803 276.771 19.4431C276.297 19.0669 275.773 18.797 275.201 18.6334C274.645 18.4535 274.08 18.3635 273.508 18.3635C273.033 18.3635 272.641 18.429 272.33 18.5598C272.019 18.6907 271.79 18.8706 271.643 19.0996C271.496 19.3123 271.422 19.5658 271.422 19.8603C271.422 20.2038 271.569 20.5064 271.864 20.7681C272.175 21.0135 272.584 21.2262 273.091 21.4061L275.471 22.1913C276.681 22.5839 277.589 23.1237 278.194 23.8107C278.816 24.4814 279.127 25.3565 279.127 26.4361C279.127 27.5648 278.832 28.5299 278.243 29.3315C277.671 30.133 276.894 30.7464 275.912 31.1717C274.931 31.597 273.835 31.8097 272.624 31.8097Z" fill="#282A36"/>
<path d="M113.498 49.5398L114.683 42.4018H117.36C117.908 42.4018 118.352 42.504 118.691 42.7085C119.03 42.9107 119.266 43.1907 119.398 43.5485C119.531 43.904 119.559 44.3095 119.482 44.7649C119.408 45.2226 119.244 45.6292 118.991 45.9847C118.74 46.3402 118.409 46.6202 117.997 46.8247C117.586 47.0269 117.105 47.1279 116.554 47.1279H114.78L114.958 46.0649H116.558C116.879 46.0649 117.15 46.0091 117.373 45.8976C117.599 45.7861 117.777 45.6327 117.907 45.4375C118.037 45.2424 118.123 45.0181 118.165 44.7649C118.204 44.5116 118.191 44.2885 118.126 44.0957C118.061 43.9028 117.935 43.753 117.746 43.6461C117.561 43.5369 117.306 43.4823 116.983 43.4823H115.798L114.791 49.5398H113.498ZM119.805 49.5398L120.99 42.4018H123.666C124.215 42.4018 124.66 42.4971 125.001 42.6876C125.343 42.8781 125.581 43.1454 125.716 43.4892C125.85 43.8308 125.879 44.2293 125.803 44.6847C125.728 45.1401 125.566 45.5363 125.315 45.8732C125.066 46.2078 124.737 46.4669 124.328 46.6504C123.922 46.834 123.444 46.9258 122.896 46.9258H120.99L121.171 45.8523H122.906C123.227 45.8523 123.497 45.8082 123.715 45.7199C123.933 45.6292 124.105 45.498 124.231 45.326C124.359 45.1517 124.444 44.938 124.485 44.6847C124.525 44.4314 124.51 44.2154 124.44 44.0364C124.373 43.8552 124.244 43.7181 124.053 43.6252C123.865 43.5299 123.611 43.4823 123.29 43.4823H122.105L121.098 49.5398H119.805ZM124.029 46.3054L125.259 49.5398H123.816L122.617 46.3054H124.029ZM133.183 46.0545C133.058 46.8119 132.81 47.4579 132.441 47.9923C132.074 48.5244 131.625 48.9322 131.095 49.2157C130.568 49.4968 130 49.6374 129.391 49.6374C128.752 49.6374 128.204 49.4887 127.746 49.1913C127.288 48.8915 126.958 48.4628 126.756 47.9052C126.556 47.3475 126.521 46.6783 126.651 45.8976C126.777 45.1425 127.023 44.4965 127.39 43.9598C127.757 43.423 128.207 43.0129 128.739 42.7294C129.271 42.446 129.845 42.3042 130.461 42.3042C131.095 42.3042 131.639 42.4541 132.092 42.7538C132.548 43.0512 132.875 43.4799 133.075 44.0399C133.277 44.5999 133.313 45.2714 133.183 46.0545ZM131.911 45.8976C131.997 45.3702 131.989 44.9252 131.886 44.5627C131.787 44.2002 131.609 43.9272 131.353 43.7437C131.098 43.5578 130.783 43.4648 130.409 43.4648C130.004 43.4648 129.63 43.5659 129.286 43.7681C128.945 43.9679 128.654 44.2607 128.415 44.6464C128.178 45.0321 128.015 45.5014 127.927 46.0545C127.834 46.5842 127.84 47.0292 127.945 47.3893C128.049 47.7495 128.23 48.0213 128.488 48.2049C128.746 48.3861 129.061 48.4768 129.433 48.4768C129.835 48.4768 130.207 48.3769 130.548 48.177C130.89 47.9772 131.179 47.6856 131.416 47.3022C131.655 46.9188 131.82 46.4506 131.911 45.8976ZM133.827 49.5398L135.012 42.4018H137.689C138.237 42.4018 138.681 42.504 139.02 42.7085C139.359 42.9107 139.595 43.1907 139.728 43.5485C139.86 43.904 139.888 44.3095 139.811 44.7649C139.737 45.2226 139.573 45.6292 139.32 45.9847C139.069 46.3402 138.738 46.6202 138.326 46.8247C137.915 47.0269 137.434 47.1279 136.884 47.1279H135.11L135.287 46.0649H136.887C137.208 46.0649 137.48 46.0091 137.703 45.8976C137.928 45.7861 138.106 45.6327 138.236 45.4375C138.366 45.2424 138.452 45.0181 138.494 44.7649C138.533 44.5116 138.521 44.2885 138.455 44.0957C138.39 43.9028 138.264 43.753 138.076 43.6461C137.89 43.5369 137.635 43.4823 137.312 43.4823H136.127L135.12 49.5398H133.827ZM140.134 49.5398L141.319 42.4018H145.961L145.78 43.4858H142.43L142.11 45.4236H145.219L145.038 46.5075H141.929L141.608 48.4559H144.985L144.804 49.5398H140.134ZM146.095 49.5398L147.28 42.4018H149.957C150.505 42.4018 150.95 42.4971 151.292 42.6876C151.634 42.8781 151.872 43.1454 152.006 43.4892C152.141 43.8308 152.17 44.2293 152.094 44.6847C152.019 45.1401 151.857 45.5363 151.606 45.8732C151.357 46.2078 151.028 46.4669 150.619 46.6504C150.213 46.834 149.735 46.9258 149.187 46.9258H147.28L147.462 45.8523H149.197C149.518 45.8523 149.787 45.8082 150.006 45.7199C150.224 45.6292 150.396 45.498 150.522 45.326C150.65 45.1517 150.734 44.938 150.776 44.6847C150.816 44.4314 150.801 44.2154 150.731 44.0364C150.663 43.8552 150.534 43.7181 150.344 43.6252C150.156 43.5299 149.901 43.4823 149.581 43.4823H148.396L147.388 49.5398H146.095ZM150.32 46.3054L151.55 49.5398H150.107L148.908 46.3054H150.32ZM153.207 43.4858L153.388 42.4018H159.083L158.902 43.4858H156.696L155.692 49.5398H154.41L155.413 43.4858H153.207ZM159.693 42.4018H161.154L162.377 45.5595H162.454L164.716 42.4018H166.176L162.837 46.877L162.395 49.5398H161.105L161.548 46.877L159.693 42.4018ZM169.526 42.4018H171.109L172.374 47.5741H172.458L175.431 42.4018H177.013L175.828 49.5398H174.587L175.403 44.6359H175.34L172.552 49.5189H171.628L170.471 44.6255H170.405L169.582 49.5398H168.341L169.526 42.4018ZM178.153 49.5398H176.772L180.47 42.4018H182.067L183.398 49.5398H182.018L181.059 43.8657H181.004L178.153 49.5398ZM178.662 46.7411H182.426L182.251 47.7797H178.487L178.662 46.7411ZM191.389 42.4018L190.204 49.5398H189.054L186.499 44.6777H186.443L185.631 49.5398H184.338L185.523 42.4018H186.68L189.232 47.2674H189.298L190.103 42.4018H191.389ZM192.53 49.5398H191.149L194.847 42.4018H196.444L197.775 49.5398H196.395L195.436 43.8657H195.381L192.53 49.5398ZM193.039 46.7411H196.803L196.628 47.7797H192.864L193.039 46.7411ZM203.963 44.6812C203.938 44.493 203.891 44.3246 203.824 44.1759C203.757 44.0248 203.666 43.897 203.552 43.7925C203.438 43.6856 203.3 43.6043 203.137 43.5485C202.975 43.4927 202.785 43.4648 202.569 43.4648C202.186 43.4648 201.822 43.5613 201.478 43.7541C201.134 43.947 200.84 44.2305 200.597 44.6045C200.353 44.9763 200.186 45.4294 200.098 45.9638C200.01 46.5029 200.014 46.9595 200.112 47.3336C200.21 47.7077 200.389 47.9923 200.649 48.1875C200.911 48.3803 201.241 48.4768 201.639 48.4768C202.003 48.4768 202.335 48.4071 202.632 48.2676C202.929 48.1282 203.176 47.9307 203.371 47.6751C203.568 47.4172 203.694 47.1152 203.747 46.7689L204.033 46.8143H202.092L202.266 45.8035H205.162L205.016 46.6609C204.916 47.2743 204.699 47.8041 204.364 48.2502C204.032 48.694 203.617 49.0367 203.12 49.2784C202.625 49.5177 202.082 49.6374 201.492 49.6374C200.837 49.6374 200.285 49.4898 199.837 49.1947C199.391 48.8973 199.075 48.4756 198.889 47.9296C198.703 47.3812 198.673 46.7306 198.798 45.9778C198.891 45.4015 199.056 44.8869 199.293 44.4338C199.532 43.9807 199.825 43.5961 200.171 43.2801C200.52 42.9618 200.907 42.7201 201.332 42.5552C201.757 42.3879 202.203 42.3042 202.67 42.3042C203.063 42.3042 203.421 42.3623 203.744 42.4785C204.067 42.5923 204.343 42.755 204.573 42.9664C204.806 43.1779 204.983 43.4288 205.107 43.7193C205.23 44.0097 205.288 44.3304 205.281 44.6812H203.963ZM205.789 49.5398L206.974 42.4018H211.616L211.435 43.4858H208.086L207.765 45.4236H210.874L210.693 46.5075H207.584L207.263 48.4559H210.64L210.459 49.5398H205.789ZM212.936 42.4018H214.518L215.783 47.5741H215.867L218.84 42.4018H220.422L219.237 49.5398H217.996L218.812 44.6359H218.749L215.961 49.5189H215.037L213.88 44.6255H213.814L212.991 49.5398H211.75L212.936 42.4018ZM220.645 49.5398L221.83 42.4018H226.473L226.291 43.4858H222.942L222.621 45.4236H225.73L225.549 46.5075H222.44L222.119 48.4559H225.497L225.315 49.5398H220.645ZM233.658 42.4018L232.473 49.5398H231.322L228.768 44.6777H228.712L227.9 49.5398H226.607L227.792 42.4018H228.949L231.5 47.2674H231.566L232.372 42.4018H233.658ZM234.572 43.4858L234.753 42.4018H240.448L240.267 43.4858H238.06L237.057 49.5398H235.774L236.778 43.4858H234.572Z" fill="#881415"/>
</svg>
