<svg width="129" height="129" viewBox="0 0 129 129" fill="none" xmlns="http://www.w3.org/2000/svg">
<circle cx="64.5" cy="64.3344" r="61.761" stroke="#FF7C7D" stroke-width="5.14675"/>
<path d="M65.3562 33.3633C64.7142 33.3635 64.0865 33.5494 63.5516 33.8977C63.0168 34.2461 62.5986 34.7413 62.3493 35.3215H54.2741C52.939 35.3215 52.939 37.2834 54.2741 37.2834H62.1753C62.336 37.9939 62.7385 38.6296 63.3166 39.086C63.8947 39.5423 64.6141 39.7921 65.3562 39.7942C66.0991 39.793 66.8193 39.5436 67.3982 39.0872C67.9771 38.6307 68.3801 37.9945 68.5409 37.2834H76.2908C77.626 37.2834 77.626 35.3178 76.2908 35.3178H68.3632C68.1131 34.7377 67.6941 34.2428 67.1585 33.8952C66.623 33.5475 65.9947 33.3625 65.3525 33.3633H65.3562ZM62.2775 40.7511V44.7862C60.1535 45.5107 58.3591 46.948 57.2111 48.8441C56.0632 50.7402 55.6356 52.9732 56.004 55.1485C56.3724 57.3238 57.513 59.3014 59.2243 60.732C60.9356 62.1625 63.1075 62.954 65.3562 62.9665C67.6252 62.9641 69.8188 62.1682 71.5428 60.7217C73.2668 59.2753 74.408 57.2733 74.7612 55.0756C75.1145 52.8779 74.6566 50.6287 73.47 48.7324C72.2833 46.8362 70.4457 45.4172 68.2875 44.7306V40.8735C67.4478 41.4298 66.438 41.7636 65.36 41.7636C64.2102 41.7636 63.1512 41.3779 62.2775 40.7511ZM37.2577 46.1214C36.4624 46.1262 35.7013 46.4387 35.1396 46.9908C34.578 47.5429 34.2613 48.29 34.2583 49.0698V58.872C34.2583 60.4853 35.6124 61.8205 37.2577 61.8205H44.27C45.9153 61.8205 47.2656 60.489 47.2694 58.8757H55.197C54.296 57.2089 53.8379 55.3463 53.865 53.46C53.8921 51.5737 54.4036 49.7246 55.3521 48.0833H47.084C46.8775 47.512 46.4966 47.0169 45.9932 46.6653C45.4897 46.3136 44.8881 46.1224 44.27 46.1177L37.2577 46.1214ZM75.3642 48.0833C76.313 49.7244 76.8247 51.5737 76.8518 53.46C76.8789 55.3464 76.4206 57.209 75.5192 58.8757H77.3801C79.12 58.8757 80.2887 60.0329 80.2887 61.75V63.9196C78.5715 64.3647 77.2893 65.8927 77.2893 67.7063C77.2893 69.8647 79.0935 71.6301 81.2986 71.6301H90.3004C92.5017 71.6301 94.3021 69.8647 94.3021 67.7063C94.3021 65.889 93.0199 64.3647 91.3027 63.9233V61.3383C91.3027 58.0116 90.5236 54.6997 88.379 52.1889C86.2344 49.6781 82.7434 48.0833 77.7697 48.0833H75.3642ZM38.26 49.0587H43.2715C44.6066 49.0587 44.6066 51.0243 43.2715 51.0243H38.26C36.9248 51.0243 36.9248 49.0587 38.26 49.0587ZM38.26 52.99H43.2715C44.6331 52.99 44.6331 54.9519 43.2715 54.9519H38.26C36.8983 54.9519 36.8983 52.99 38.26 52.99ZM38.26 56.9138H43.2715C44.6331 56.9138 44.6331 58.8794 43.2715 58.8794H38.26C36.8983 58.8794 36.8983 56.9138 38.26 56.9138ZM86.2647 75.5948C86.125 75.5997 85.9878 75.6333 85.8621 75.6933C85.7364 75.7534 85.6249 75.8386 85.5347 75.9434C85.5347 75.9434 84.1239 77.5715 82.7131 79.5854C81.985 80.6039 81.3279 81.6695 80.7463 82.7749C80.1979 83.8504 79.7856 84.8815 79.7856 85.9162C79.7856 89.4024 82.7169 92.2396 86.295 92.2396C89.873 92.2396 92.8118 89.4024 92.8118 85.9162C92.8118 84.8777 92.3958 83.8504 91.8436 82.7712C91.2618 81.667 90.6048 80.6027 89.8768 79.5854C88.9942 78.3312 88.0552 77.116 87.0628 75.9434C86.9656 75.8305 86.8437 75.7405 86.7062 75.6801C86.5687 75.6198 86.4153 75.5906 86.2647 75.5948ZM89.4872 84.8963C89.6214 84.8938 89.7547 84.9177 89.8792 84.9667C90.0038 85.0157 90.117 85.0887 90.2123 85.1814C90.3075 85.2741 90.3828 85.3846 90.4337 85.5064C90.4846 85.6281 90.51 85.7587 90.5084 85.8902C90.5084 87.7446 88.9917 89.3023 87.1082 89.3023C85.7465 89.3282 85.7465 87.307 87.1082 87.3366C87.876 87.3366 88.5038 86.7136 88.5038 85.8902C88.5008 85.6308 88.6024 85.3808 88.7867 85.1946C88.9709 85.0084 89.2227 84.9012 89.4872 84.8963Z" fill="#881415"/>
</svg>
