<svg width="130" height="130" viewBox="0 0 130 130" fill="none" xmlns="http://www.w3.org/2000/svg">
<circle cx="65.2194" cy="65.0031" r="61.761" stroke="#FF7C7D" stroke-width="5.14675"/>
<path d="M95.3596 95.2687L91.4596 86.0687C91.3596 85.8687 91.1596 85.7687 91.0596 85.7687C90.9596 85.7687 90.9596 85.7687 90.8596 85.7687L88.8596 86.5687C88.7596 86.6687 88.6596 86.6687 88.6596 86.7687C88.6596 86.8687 88.5596 86.9687 88.6596 87.0687L92.5596 96.2687C92.6596 96.4687 92.8596 96.5687 93.0596 96.4687L95.0596 95.6687C95.3596 95.6687 95.4596 95.4687 95.3596 95.2687ZM88.1596 84.6687L87.5596 83.2687C87.0596 81.9687 86.0596 81.0687 84.7596 80.5687C83.4596 80.0687 82.1596 80.0687 80.8596 80.5687L70.4596 84.9687C68.7596 85.6687 66.9596 85.6687 65.2596 84.9687C63.5596 84.2687 62.2596 82.9687 61.5596 81.2687C60.8596 79.5687 60.8596 77.7687 61.5596 76.0687C62.2596 74.3687 63.5596 73.0687 65.2596 72.3687L66.1596 71.9687L65.6596 70.6687C65.2596 69.6687 65.2596 68.5687 65.6596 67.5687C66.0596 66.5687 66.8596 65.7687 67.8596 65.3687L87.0596 57.3687L84.2596 54.5687C84.2596 54.5687 84.2596 54.4687 84.1596 54.4687L63.1596 33.5687C61.9596 32.3687 59.7596 32.3687 58.5596 33.5687L34.8596 57.2687V88.9687H41.7596V70.0687C41.7596 67.0687 44.1596 64.6687 47.1596 64.6687H59.1596C60.6596 64.6687 62.0596 65.2687 63.0596 66.3687C63.4596 66.7687 63.4596 67.4687 63.0596 67.8687C62.6596 68.2687 61.9596 68.2687 61.5596 67.8687C60.9596 67.2687 60.1596 66.8687 59.2596 66.8687H47.2596C45.4596 66.8687 44.0596 68.2687 44.0596 70.0687V88.9687H62.4596V87.6687C62.4596 87.0687 62.9596 86.5687 63.5596 86.5687C64.1596 86.5687 64.6596 87.0687 64.6596 87.6687V88.9687H87.2596L86.8596 88.0687C86.5596 87.4687 86.5596 86.7687 86.8596 86.0687C86.9596 85.4687 87.4596 84.9687 88.1596 84.6687ZM56.1596 59.9687C54.3596 59.9687 52.8596 58.4687 52.8596 56.6687V47.3687C52.8596 45.5687 54.3596 44.0687 56.1596 44.0687H65.4596C67.2596 44.0687 68.7596 45.5687 68.7596 47.3687V56.6687C68.7596 58.4687 67.2596 59.9687 65.4596 59.9687H56.1596ZM66.5596 56.7687V47.4687C66.5596 46.8687 66.0596 46.3687 65.4596 46.3687H56.1596C55.5596 46.3687 55.0596 46.8687 55.0596 47.4687V56.7687C55.0596 57.3687 55.5596 57.8687 56.1596 57.8687H65.4596C66.0596 57.8687 66.5596 57.3687 66.5596 56.7687ZM81.5596 33.1687H77.6596C76.4596 33.1687 75.3596 34.1687 75.3596 35.4687V42.6687L83.7596 51.0687V35.4687C83.7596 34.2687 82.7596 33.1687 81.5596 33.1687ZM95.9596 63.3687L94.0596 58.7687C93.7596 58.0687 93.0596 57.5687 92.2596 57.5687C91.9596 57.5687 91.7596 57.5687 91.5596 57.6687L68.5596 67.2687C68.0596 67.4687 67.7596 67.8687 67.5596 68.2687C67.3596 68.7687 67.3596 69.2687 67.5596 69.6687L68.5596 71.9687L69.4596 74.2687C69.8596 75.1687 70.9596 75.6687 71.9596 75.2687L94.9596 65.6687C95.8596 65.4687 96.3596 64.3687 95.9596 63.3687ZM72.7596 77.4687C72.2596 77.6687 71.7596 77.7687 71.1596 77.7687C69.5596 77.7687 68.0596 76.7687 67.3596 75.2687L66.8596 73.9687L65.9596 74.3687C64.8596 74.8687 63.9596 75.7687 63.4596 76.8687C62.9596 78.0687 62.9596 79.2687 63.4596 80.4687C63.9596 81.5687 64.8596 82.4687 65.9596 82.9687C67.1596 83.4687 68.3596 83.4687 69.4596 82.9687L79.9596 78.5687C81.7596 77.7687 83.7596 77.7687 85.5596 78.5687C85.9596 78.7687 86.4596 78.9687 86.8596 79.2687V71.6687L72.7596 77.4687Z" fill="#881415"/>
</svg>
