<svg width="129" height="129" viewBox="0 0 129 129" fill="none" xmlns="http://www.w3.org/2000/svg">
<circle cx="64.3598" cy="64.3342" r="61.761" stroke="#FF7C7D" stroke-width="5.14675"/>
<g clip-path="url(#clip0_11_2944)">
<path d="M96 60.2999L69.7001 33.8999C68.4001 32.6999 66.8 31.9999 65 31.9999C63.2001 31.9999 61.6 32.6999 60.3 33.8999L34 60.2999C33.6 60.6999 33.3 61.2999 33.3 61.8999C33.3 62.4999 33.5 63.0999 34 63.4999C34.8 64.2999 36.3 64.2999 37.2 63.4999L63.5 37.0999C63.9 36.6999 64.5 36.4999 65 36.4999C65.6 36.4999 66.1 36.6999 66.5 37.0999L92.9001 63.3999C93.7001 64.1999 95.2 64.1999 96.1 63.3999C96.5 62.9999 96.8 62.3999 96.8 61.7999C96.7001 61.2999 96.5 60.6999 96 60.2999ZM78.7001 80.9999L66.4001 68.6999C65.5 67.7999 65.1 66.4999 65.2001 65.1999C65.5 62.8999 64.7001 60.5999 63.1 58.8999C61.8001 57.5999 60.1 56.7999 58.3 56.6999L59.5 57.8999C61.7001 60.0999 61.7001 63.7999 59.5 65.9999C58.4 67.0999 57 67.6999 55.4 67.6999C53.9 67.6999 52.4 67.0999 51.4 65.9999L50.2001 64.7999C50.3001 66.5999 51.1 68.2999 52.4 69.5999C54.1 71.2999 56.4001 72.0999 58.7001 71.6999C58.9001 71.6999 59.1 71.6999 59.2001 71.6999C60.3001 71.6999 61.4 72.0999 62.1 72.8999L74.6 85.3999C75.8 86.5999 77.8001 86.4999 78.9001 85.2999C80 84.0999 79.9001 82.1999 78.7001 80.9999ZM77.2001 83.6999C77 83.8999 76.7001 83.9999 76.4001 83.9999C76.1001 83.9999 75.9001 83.8999 75.7001 83.6999L74.8 82.7999C74.4 82.3999 74.4 81.6999 74.8 81.2999C75.2001 80.8999 75.9 80.8999 76.3 81.2999L77.2001 82.1999C77.6001 82.5999 77.6001 83.2999 77.2001 83.6999ZM78.7001 80.9999L66.4001 68.6999C65.5 67.7999 65.1 66.4999 65.2001 65.1999C65.5 62.8999 64.7001 60.5999 63.1 58.8999C61.8001 57.5999 60.1 56.7999 58.3 56.6999L59.5 57.8999C61.7001 60.0999 61.7001 63.7999 59.5 65.9999C58.4 67.0999 57 67.6999 55.4 67.6999C53.9 67.6999 52.4 67.0999 51.4 65.9999L50.2001 64.7999C50.3001 66.5999 51.1 68.2999 52.4 69.5999C54.1 71.2999 56.4001 72.0999 58.7001 71.6999C58.9001 71.6999 59.1 71.6999 59.2001 71.6999C60.3001 71.6999 61.4 72.0999 62.1 72.8999L74.6 85.3999C75.8 86.5999 77.8001 86.4999 78.9001 85.2999C80 84.0999 79.9001 82.1999 78.7001 80.9999ZM77.2001 83.6999C77 83.8999 76.7001 83.9999 76.4001 83.9999C76.1001 83.9999 75.9001 83.8999 75.7001 83.6999L74.8 82.7999C74.4 82.3999 74.4 81.6999 74.8 81.2999C75.2001 80.8999 75.9 80.8999 76.3 81.2999L77.2001 82.1999C77.6001 82.5999 77.6001 83.2999 77.2001 83.6999ZM78.7001 80.9999L66.4001 68.6999C65.5 67.7999 65.1 66.4999 65.2001 65.1999C65.5 62.8999 64.7001 60.5999 63.1 58.8999C61.8001 57.5999 60.1 56.7999 58.3 56.6999L59.5 57.8999C61.7001 60.0999 61.7001 63.7999 59.5 65.9999C58.4 67.0999 57 67.6999 55.4 67.6999C53.9 67.6999 52.4 67.0999 51.4 65.9999L50.2001 64.7999C50.3001 66.5999 51.1 68.2999 52.4 69.5999C54.1 71.2999 56.4001 72.0999 58.7001 71.6999C58.9001 71.6999 59.1 71.6999 59.2001 71.6999C60.3001 71.6999 61.4 72.0999 62.1 72.8999L74.6 85.3999C75.8 86.5999 77.8001 86.4999 78.9001 85.2999C80 84.0999 79.9001 82.1999 78.7001 80.9999ZM77.2001 83.6999C77 83.8999 76.7001 83.9999 76.4001 83.9999C76.1001 83.9999 75.9001 83.8999 75.7001 83.6999L74.8 82.7999C74.4 82.3999 74.4 81.6999 74.8 81.2999C75.2001 80.8999 75.9 80.8999 76.3 81.2999L77.2001 82.1999C77.6001 82.5999 77.6001 83.2999 77.2001 83.6999ZM78.7001 80.9999L66.4001 68.6999C65.5 67.7999 65.1 66.4999 65.2001 65.1999C65.5 62.8999 64.7001 60.5999 63.1 58.8999C61.8001 57.5999 60.1 56.7999 58.3 56.6999L59.5 57.8999C61.7001 60.0999 61.7001 63.7999 59.5 65.9999C58.4 67.0999 57 67.6999 55.4 67.6999C53.9 67.6999 52.4 67.0999 51.4 65.9999L50.2001 64.7999C50.3001 66.5999 51.1 68.2999 52.4 69.5999C54.1 71.2999 56.4001 72.0999 58.7001 71.6999C58.9001 71.6999 59.1 71.6999 59.2001 71.6999C60.3001 71.6999 61.4 72.0999 62.1 72.8999L74.6 85.3999C75.8 86.5999 77.8001 86.4999 78.9001 85.2999C80 84.0999 79.9001 82.1999 78.7001 80.9999ZM77.2001 83.6999C77 83.8999 76.7001 83.9999 76.4001 83.9999C76.1001 83.9999 75.9001 83.8999 75.7001 83.6999L74.8 82.7999C74.4 82.3999 74.4 81.6999 74.8 81.2999C75.2001 80.8999 75.9 80.8999 76.3 81.2999L77.2001 82.1999C77.6001 82.5999 77.6001 83.2999 77.2001 83.6999ZM78.7001 80.9999L66.4001 68.6999C65.5 67.7999 65.1 66.4999 65.2001 65.1999C65.5 62.8999 64.7001 60.5999 63.1 58.8999C61.8001 57.5999 60.1 56.7999 58.3 56.6999L59.5 57.8999C61.7001 60.0999 61.7001 63.7999 59.5 65.9999C58.4 67.0999 57 67.6999 55.4 67.6999C53.9 67.6999 52.4 67.0999 51.4 65.9999L50.2001 64.7999C50.3001 66.5999 51.1 68.2999 52.4 69.5999C54.1 71.2999 56.4001 72.0999 58.7001 71.6999C58.9001 71.6999 59.1 71.6999 59.2001 71.6999C60.3001 71.6999 61.4 72.0999 62.1 72.8999L74.6 85.3999C75.8 86.5999 77.8001 86.4999 78.9001 85.2999C80 84.0999 79.9001 82.1999 78.7001 80.9999ZM77.2001 83.6999C77 83.8999 76.7001 83.9999 76.4001 83.9999C76.1001 83.9999 75.9001 83.8999 75.7001 83.6999L74.8 82.7999C74.4 82.3999 74.4 81.6999 74.8 81.2999C75.2001 80.8999 75.9 80.8999 76.3 81.2999L77.2001 82.1999C77.6001 82.5999 77.6001 83.2999 77.2001 83.6999ZM86.9001 34.4999H84.6C83.4 34.4999 82.4001 35.4999 82.4001 36.6999V43.3999C82.4001 43.4999 82.4001 43.4999 82.4001 43.5999L89.2001 50.3999V36.6999C89.2001 35.4999 88.2001 34.4999 86.9001 34.4999Z" fill="#881415"/>
<path d="M93.4999 93.8999H90.6999V64.5999C90.6999 64.4999 90.6999 64.3999 90.7999 64.2999L64.9999 38.5999L39.2999 64.2999C39.2999 64.3999 39.3999 64.4999 39.3999 64.5999V93.8999H37.4999C36.8999 93.8999 36.3999 94.3999 36.3999 94.9999C36.4999 95.4999 36.9999 95.9999 37.4999 95.9999H93.4999C94.0999 95.9999 94.5999 95.4999 94.5999 94.8999C94.5999 94.3999 94.0999 93.8999 93.4999 93.8999ZM47.9999 63.5999C48.0999 62.6999 48.7999 61.9999 49.6999 61.9999C50.0999 61.9999 50.5999 62.1999 50.8999 62.4999L52.7999 64.3999C54.1999 65.7999 56.4999 65.7999 57.8999 64.3999C59.2999 62.9999 59.2999 60.6999 57.8999 59.2999L55.9999 57.3999C55.4999 56.8999 55.3999 56.1999 55.5999 55.5999C55.7999 54.9999 56.3999 54.5999 57.0999 54.4999C59.8999 54.2999 62.5999 55.2999 64.4999 57.2999C66.5999 59.3999 67.5999 62.3999 67.2999 65.3999C67.1999 65.9999 67.3999 66.6999 67.8999 67.0999L80.1999 79.3999C82.1999 81.3999 82.2999 84.5999 80.3999 86.5999C79.3999 87.5999 78.0999 88.1999 76.6999 88.1999C75.2999 88.1999 74.0999 87.6999 73.0999 86.6999L60.6999 74.3999C60.1999 73.8999 59.5999 73.6999 58.9999 73.7999C55.9999 74.1999 52.9999 73.1999 50.8999 70.9999C48.8999 69.0999 47.8999 66.3999 47.9999 63.5999Z" fill="#881415"/>
</g>
<defs>
<clipPath id="clip0_11_2944">
<rect width="64" height="64" fill="white" transform="translate(33 31.9999)"/>
</clipPath>
</defs>
</svg>
