<svg width="129" height="129" viewBox="0 0 129 129" fill="none" xmlns="http://www.w3.org/2000/svg">
<circle cx="64.4999" cy="64.3344" r="61.761" stroke="#FF7C7D" stroke-width="5.14675"/>
<path d="M100.282 58.261L90.8376 49.8605C90.8381 49.845 90.8421 49.831 90.8421 49.8155V33.571C90.8421 32.6045 90.0586 31.821 89.0921 31.821H78.9061C77.9396 31.821 77.1561 32.6045 77.1561 33.571V37.691L65.1631 27.023C65.1441 27.0065 65.1226 26.9955 65.1036 26.98C65.0556 26.941 65.0066 26.906 64.9556 26.873C64.9086 26.842 64.8616 26.8125 64.8126 26.787C64.7616 26.76 64.7091 26.7375 64.6561 26.716C64.6031 26.6945 64.5501 26.674 64.4956 26.658C64.4426 26.6425 64.3896 26.631 64.3356 26.6205C64.2791 26.6095 64.2231 26.5995 64.1661 26.594C64.1116 26.589 64.0571 26.588 64.0026 26.588C63.9456 26.588 63.8896 26.589 63.8331 26.5945C63.7776 26.6 63.7236 26.6095 63.6691 26.62C63.6131 26.6305 63.5586 26.6425 63.5036 26.6585C63.4506 26.674 63.3991 26.694 63.3476 26.715C63.2931 26.737 63.2396 26.76 63.1871 26.7875C63.1386 26.813 63.0926 26.842 63.0466 26.8725C62.9951 26.9055 62.9451 26.9405 62.8966 26.98C62.8771 26.9955 62.8556 27.0065 62.8371 27.023L27.7186 58.261C26.8971 58.9915 26.4126 60.0415 26.3891 61.141C26.3651 62.24 26.8046 63.3095 27.5941 64.075L30.4361 66.8285C31.2006 67.569 32.1986 67.942 33.1981 67.942C34.1456 67.942 35.0941 67.607 35.8451 66.9335L38.1661 64.8535V99.662C38.1661 100.629 38.9496 101.412 39.9161 101.412H87.9551C88.9216 101.412 89.7051 100.629 89.7051 99.662V64.738L92.1541 66.9335C92.9061 67.6075 93.8541 67.9425 94.8016 67.9425C95.8011 67.9425 96.7996 67.5695 97.5636 66.8285L100.406 64.075C101.196 63.3095 101.635 62.24 101.611 61.1405C101.588 60.041 101.103 58.9915 100.282 58.261ZM80.6566 35.321H87.3426V46.751L80.6566 40.804V35.321ZM86.2051 97.9125H41.6661V61.7165L64.0001 41.6975L86.2051 61.601V97.9125ZM97.9701 61.5615L95.1281 64.315C94.9521 64.485 94.6731 64.491 94.4906 64.327L65.1681 38.044C65.1476 38.026 65.1241 38.014 65.1031 37.9965C65.0551 37.9575 65.0061 37.922 64.9551 37.8885C64.9081 37.858 64.8616 37.829 64.8126 37.8035C64.7606 37.776 64.7081 37.7525 64.6541 37.731C64.6016 37.71 64.5496 37.6905 64.4961 37.6745C64.4421 37.6585 64.3881 37.6465 64.3326 37.6355C64.2771 37.625 64.2226 37.6155 64.1666 37.6105C64.1106 37.605 64.0546 37.6035 63.9981 37.6035C63.9431 37.6035 63.8886 37.605 63.8336 37.61C63.7766 37.6155 63.7206 37.6245 63.6641 37.6355C63.6101 37.646 63.5571 37.658 63.5046 37.6735C63.4496 37.6895 63.3966 37.7095 63.3431 37.731C63.2901 37.7525 63.2386 37.7755 63.1881 37.802C63.1386 37.828 63.0906 37.8575 63.0431 37.8885C62.9926 37.9215 62.9441 37.9565 62.8966 37.9955C62.8756 38.0125 62.8516 38.025 62.8316 38.043L33.5096 64.3275C33.3271 64.4905 33.0471 64.485 32.8721 64.315L30.0306 61.562C29.9096 61.4445 29.8861 61.309 29.8881 61.216C29.8901 61.123 29.9191 60.9885 30.0446 60.8765L64.0001 30.673L97.9556 60.876C98.0816 60.988 98.1106 61.1225 98.1121 61.2155C98.1136 61.3085 98.0916 61.444 97.9701 61.5615Z" fill="#881415"/>
<path d="M54.6691 66.348V66.956C52.5776 67.22 50.9531 69.0065 50.9531 71.1685V88.835C50.9531 91.1785 52.8596 93.085 55.2031 93.085H72.7966C75.1401 93.085 77.0466 91.1785 77.0466 88.835V71.1685C77.0466 69.0065 75.4221 67.22 73.3306 66.956V66.348C73.3306 61.2025 69.1446 57.0165 63.9996 57.0165C58.8546 57.0165 54.6691 61.2025 54.6691 66.348ZM74.5471 71.1685V73.4685H72.2241C71.5336 73.4685 70.9741 74.028 70.9741 74.7185C70.9741 75.409 71.5336 75.9685 72.2241 75.9685H74.5471V79.1H72.2241C71.5336 79.1 70.9741 79.6595 70.9741 80.35C70.9741 81.0405 71.5336 81.6 72.2241 81.6H74.5471V84.7315H72.2241C71.5336 84.7315 70.9741 85.291 70.9741 85.9815C70.9741 86.672 71.5336 87.2315 72.2241 87.2315H74.5471V88.8355C74.5471 89.8005 73.7621 90.5855 72.7971 90.5855H55.2031C54.2381 90.5855 53.4531 89.8005 53.4531 88.8355V87.2315H55.7761C56.4666 87.2315 57.0261 86.672 57.0261 85.9815C57.0261 85.291 56.4666 84.7315 55.7761 84.7315H53.4531V81.6H55.7761C56.4666 81.6 57.0261 81.0405 57.0261 80.35C57.0261 79.6595 56.4666 79.1 55.7761 79.1H53.4531V75.9685H55.7761C56.4666 75.9685 57.0261 75.409 57.0261 74.7185C57.0261 74.028 56.4666 73.4685 55.7761 73.4685H53.4531V71.1685C53.4531 70.2035 54.2381 69.4185 55.2031 69.4185H55.9191H72.0811H72.7971C73.7616 69.4185 74.5471 70.204 74.5471 71.1685ZM70.8311 66.348V66.919H57.1691V66.348C57.1691 62.581 60.2336 59.5165 64.0001 59.5165C67.7666 59.5165 70.8311 62.581 70.8311 66.348Z" fill="#881415"/>
<path d="M63.9999 73.436C61.4004 73.436 59.2854 75.5505 59.2854 78.1505C59.2854 79.4645 59.8349 80.708 60.7814 81.5935V85.124C60.7814 85.8145 61.3409 86.374 62.0314 86.374H65.9679C66.6584 86.374 67.2179 85.8145 67.2179 85.124V81.5935C68.1649 80.708 68.7139 79.4645 68.7139 78.1505C68.7144 75.551 66.5994 73.436 63.9999 73.436ZM65.2569 79.972C64.9194 80.2055 64.7184 80.5895 64.7184 81V83.874H63.2819V81C63.2819 80.59 63.0809 80.2055 62.7434 79.972C62.1439 79.557 61.7859 78.8765 61.7859 78.1505C61.7859 76.9295 62.7789 75.936 64.0004 75.936C65.2219 75.936 66.2149 76.929 66.2149 78.1505C66.2144 78.876 65.8564 79.557 65.2569 79.972Z" fill="#881415"/>
</svg>
