<svg width="52" height="52" viewBox="0 0 52 52" fill="none" xmlns="http://www.w3.org/2000/svg">
<rect width="52" height="52" rx="26" fill="white"/>
<path d="M15.6499 24.6447C22.0923 21.8928 26.3883 20.0786 28.5378 19.2021C34.675 16.6994 35.9503 16.2646 36.7815 16.2501C36.9643 16.2471 37.3731 16.2916 37.6379 16.5022C37.8614 16.6801 37.9229 16.9203 37.9524 17.089C37.9818 17.2576 38.0185 17.6417 37.9893 17.9419C37.6568 21.3679 36.2177 29.6818 35.4856 33.519C35.1758 35.1427 34.5658 35.6871 33.9753 35.7403C32.6919 35.8561 31.7174 34.9088 30.4744 34.11C28.5294 32.86 27.4305 32.0818 25.5425 30.862C23.3606 29.4524 24.7751 28.6776 26.0185 27.4114C26.344 27.08 31.9985 22.0375 32.1079 21.5801C32.1216 21.5229 32.1343 21.3097 32.0051 21.1971C31.8759 21.0845 31.6851 21.123 31.5475 21.1536C31.3524 21.197 28.2452 23.2105 22.2258 27.1942C21.3439 27.7879 20.545 28.0772 19.8292 28.0621C19.0402 28.0454 17.5223 27.6247 16.394 27.2651C15.01 26.824 13.91 26.5908 14.0058 25.8417C14.0557 25.4516 14.6037 25.0526 15.6499 24.6447Z" fill="#0C1518"/>
</svg>
