<svg width="53" height="55" viewBox="0 0 53 55" fill="none" xmlns="http://www.w3.org/2000/svg">
<ellipse cx="26.5" cy="27.5" rx="26.5" ry="27.5" fill="white"/>
<path d="M41 26.0037V21.1162C38.4139 21.1162 36.4403 20.5052 35.1667 19.3178C33.8595 17.9625 33.1272 16.2463 33.0958 14.4647V14.1119L27.875 14V33.8513C27.6959 34.7174 27.2209 35.514 26.514 36.1336C25.8072 36.7532 24.9026 37.166 23.9223 37.3161C22.942 37.4663 21.9333 37.3466 21.0323 36.9733C20.1312 36.6 19.3814 35.991 18.8838 35.2285C18.3863 34.466 18.165 33.5868 18.2499 32.7095C18.3349 31.8322 18.7219 30.9991 19.3587 30.3226C19.9956 29.6462 20.8516 29.1589 21.8112 28.9267C22.7708 28.6945 23.7879 28.7284 24.725 29.024V24.2913C24.1786 24.2121 23.6259 24.1718 23.0722 24.1709C21.0801 24.1709 19.1328 24.6937 17.4764 25.6732C15.82 26.6528 14.529 28.0451 13.7667 29.674C13.0044 31.3029 12.8049 33.0953 13.1935 34.8246C13.5822 36.5538 14.5415 38.1423 15.9501 39.389C17.3587 40.6357 19.1534 41.4847 21.1072 41.8287C23.0611 42.1727 25.0862 41.9961 26.9267 41.3214C28.7672 40.6467 30.3402 39.5041 31.447 38.0381C32.5537 36.5721 33.1444 34.8486 33.1444 33.0854C33.1434 32.7201 33.1174 32.3552 33.0667 31.9926V24.1192C35.4407 25.4314 38.2027 26.0875 41 26.0037Z" fill="black"/>
</svg>
