<svg width="64" height="64" viewBox="0 0 64 64" fill="none" xmlns="http://www.w3.org/2000/svg">
<rect width="64" height="64" rx="32" fill="#F2994A" fill-opacity="0.2"/>
<path fill-rule="evenodd" clip-rule="evenodd" d="M48.1963 43.1499L42.3356 37.2892C41.9885 36.9576 41.527 36.7725 41.0469 36.7725C40.5668 36.7725 40.1052 36.9576 39.7581 37.2892L39.1627 37.8847L34.6634 33.385L37.2917 30.4504C37.6676 30.0351 37.9104 29.5167 37.9888 28.9621C38.1605 28.9894 38.334 29.0037 38.5078 29.0049H38.8141C38.8964 29.0049 38.9778 29.0213 39.0537 29.0531C39.1296 29.0848 39.1984 29.1313 39.2562 29.1899C39.314 29.2485 39.3596 29.3179 39.3903 29.3943C39.421 29.4706 39.4363 29.5522 39.4352 29.6345C39.4344 30.0599 39.5182 30.4813 39.6817 30.8741C39.8453 31.2669 40.0853 31.6232 40.3878 31.9224L41.0683 32.6114C41.3687 32.9134 41.7259 33.1531 42.1193 33.3166C42.5127 33.4802 42.9346 33.5643 43.3606 33.5643C43.7867 33.5643 44.2085 33.4802 44.6019 33.3166C44.9953 33.1531 45.3525 32.9134 45.653 32.6114L47.975 30.2893C48.2801 29.9814 48.5213 29.6163 48.6848 29.2148C48.8483 28.8134 48.9308 28.3836 48.9276 27.9502C48.9284 27.5235 48.8447 27.1008 48.6812 26.7066C48.5177 26.3125 48.2777 25.9546 47.975 25.6538L47.4731 25.1519C47.1746 24.8514 46.8195 24.6132 46.4282 24.4511C46.0369 24.2891 45.6173 24.2064 45.1938 24.2078C45.0293 24.2069 44.8719 24.1412 44.7556 24.0249C44.6393 23.9086 44.5736 23.7512 44.5727 23.5867V23.2719C44.5742 22.8471 44.4915 22.4262 44.3294 22.0335C44.1673 21.6408 43.929 21.2841 43.6282 20.984L42.6419 19.9973C42.0334 19.3933 41.211 19.054 40.3536 19.0533H39.2225C37.5809 16.68 35.5489 15.5232 33.0385 15.5232C31.5182 15.5848 30.0158 15.8744 28.5815 16.3822C28.4246 16.4321 28.2855 16.5262 28.1808 16.6533C28.0762 16.7804 28.0105 16.935 27.9916 17.0985C27.9727 17.262 28.0015 17.4275 28.0745 17.5751C28.1475 17.7227 28.2615 17.846 28.4029 17.9303C30.9975 19.4446 34.3913 21.7072 33.9317 23.7653C33.8453 24.1512 33.8396 24.5509 33.915 24.9391C33.3748 25.019 32.871 25.259 32.4686 25.6281L29.534 28.2565L25.6302 24.3522L26.7019 23.2719C26.8746 23.1011 27.0116 22.8978 27.1051 22.6737C27.1986 22.4496 27.2468 22.2091 27.2468 21.9663C27.2468 21.7235 27.1986 21.483 27.1051 21.2589C27.0116 21.0348 26.8746 20.8315 26.7019 20.6607L21.5641 15.5232C21.2123 15.1874 20.7447 15 20.2584 15C19.7721 15 19.3045 15.1874 18.9528 15.5232L15.6017 18.8658C15.2582 19.2153 15.0656 19.6857 15.0656 20.1759C15.0656 20.666 15.2582 21.1365 15.6017 21.486L20.7392 26.6234C21.0888 26.9668 21.5591 27.1592 22.0491 27.1592C22.5391 27.1592 23.0094 26.9668 23.359 26.6234L24.4307 25.5517L28.2667 29.3876L25.2641 32.0757C25.1133 32.2311 25.0271 32.438 25.023 32.6545C25.0189 32.8711 25.0972 33.0811 25.242 33.2421C25.3869 33.4031 25.5874 33.5031 25.8032 33.5218C26.019 33.5406 26.2338 33.4767 26.4042 33.3431L29.4747 30.5956L30.742 29.4559L33.6002 26.8955C33.7973 26.7116 34.0568 26.6094 34.3264 26.6094C34.5959 26.6094 34.8554 26.7116 35.0525 26.8955L36.0222 27.8652C36.2066 28.0607 36.3093 28.3194 36.3093 28.5882C36.3093 28.8569 36.2066 29.1156 36.0222 29.3111L33.4532 32.1778L32.3221 33.4452L21.7067 45.2938C21.433 45.5999 21.0991 45.8463 20.7259 46.0175C20.3527 46.1888 19.9481 46.2812 19.5376 46.2891C19.1673 46.3005 18.7987 46.2354 18.4548 46.0978C18.1109 45.9602 17.7991 45.7531 17.5389 45.4894L17.4283 45.3788C17.1666 45.1167 16.9603 44.8048 16.8215 44.4614C16.6826 44.1181 16.6142 43.7504 16.6201 43.3801C16.6296 42.969 16.7236 42.5643 16.8963 42.1911C17.069 41.8179 17.3167 41.4843 17.6239 41.211L22.2343 37.0855C22.4015 36.9327 22.5016 36.7201 22.5127 36.4939C22.5238 36.2677 22.4451 36.0463 22.2936 35.8779C22.2189 35.7951 22.1285 35.7279 22.0277 35.68C21.9269 35.6322 21.8177 35.6048 21.7063 35.5992C21.5949 35.5936 21.4835 35.6101 21.3784 35.6477C21.2734 35.6852 21.1768 35.7431 21.0942 35.8181L16.4843 39.9436C16.005 40.3757 15.619 40.9011 15.3499 41.4876C15.0807 42.0741 14.9342 42.7094 14.9191 43.3545C14.9109 43.9513 15.0217 44.5439 15.2451 45.0974C15.4685 45.6509 15.8 46.1544 16.2203 46.5783L16.3309 46.6889C17.1726 47.5234 18.3101 47.9911 19.4953 47.9901H19.5547C20.1999 47.9802 20.836 47.8368 21.4231 47.5689C22.0101 47.301 22.5353 46.9144 22.9656 46.4335L33.5335 34.6494L37.9653 39.0812L37.3784 39.6681C37.2085 39.8378 37.0737 40.0393 36.9817 40.2611C36.8897 40.483 36.8424 40.7207 36.8424 40.9609C36.8424 41.201 36.8897 41.4388 36.9817 41.6607C37.0737 41.8825 37.2085 42.084 37.3784 42.2537L43.2305 48.1058C43.5137 48.3893 43.85 48.6142 44.2201 48.7676C44.5903 48.921 44.987 49 45.3877 49C45.7884 49 46.1851 48.921 46.5553 48.7676C46.9254 48.6142 47.2617 48.3893 47.5449 48.1058L48.2001 47.451C48.7655 46.8777 49.0822 46.1048 49.0814 45.2996C49.0807 44.4945 48.7627 43.7221 48.1963 43.1499ZM25.5029 22.0716L23.8272 23.7469L22.1514 25.4129C22.1408 25.4305 22.1258 25.445 22.1079 25.4551C22.0901 25.4652 22.0699 25.4705 22.0493 25.4705C22.0288 25.4705 22.0086 25.4652 21.9907 25.4551C21.9728 25.445 21.9578 25.4305 21.9472 25.4129L16.8097 20.2754C16.7849 20.2454 16.7713 20.2076 16.7713 20.1686C16.7713 20.1296 16.7849 20.0918 16.8097 20.0618L20.1527 16.7193C20.1799 16.6923 20.2165 16.677 20.2548 16.6766C20.2957 16.6767 20.3351 16.6919 20.3654 16.7193L25.5029 21.8589C25.5256 21.8897 25.5378 21.927 25.5378 21.9652C25.5378 22.0035 25.5256 22.0408 25.5029 22.0716ZM36.2541 25.6952L36.0248 25.4569C35.8479 25.2909 35.7155 25.0832 35.6397 24.8528C35.5638 24.6225 35.547 24.3768 35.5908 24.1382C36.1691 21.5355 33.7967 19.3412 30.9381 17.4869C31.6263 17.3206 32.331 17.2322 33.0389 17.2233C35.0893 17.2233 36.6796 18.2182 38.0491 20.3531C38.1245 20.4749 38.2297 20.5755 38.3547 20.6454C38.4797 20.7153 38.6205 20.7524 38.7637 20.753H40.354C40.7621 20.7544 41.1532 20.9162 41.4429 21.2036L42.4211 22.1822C42.565 22.3244 42.679 22.494 42.7564 22.6809C42.8338 22.8678 42.873 23.0683 42.8717 23.2706V23.5859C42.874 24.2011 43.1194 24.7905 43.5545 25.2255C43.9895 25.6605 44.579 25.9058 45.1942 25.9079C45.3933 25.9064 45.5908 25.9448 45.7748 26.0208C45.9589 26.0968 46.1259 26.2089 46.2659 26.3505L46.776 26.8609C47.0654 27.1595 47.2273 27.5591 47.2273 27.975C47.2273 28.3908 47.0654 28.7904 46.776 29.089L44.4539 31.4029C44.1618 31.6856 43.7712 31.8437 43.3647 31.8437C42.9581 31.8437 42.5675 31.6856 42.2754 31.4029L41.5864 30.7225C41.4426 30.5783 41.3287 30.4072 41.2512 30.2188C41.1738 30.0305 41.1344 29.8287 41.1353 29.6251C41.1356 29.3201 41.0758 29.018 40.9592 28.7361C40.8427 28.4542 40.6716 28.1981 40.456 27.9824C40.2403 27.7667 39.9841 27.5957 39.7023 27.4791C39.4204 27.3625 39.1183 27.3027 38.8133 27.303H38.507C38.096 27.3031 37.7017 27.141 37.4096 26.852C37.3417 26.784 37.2815 26.7161 37.2229 26.6563L36.2541 25.6952ZM46.9887 46.2536L46.3339 46.9085C46.0772 47.1503 45.738 47.2849 45.3854 47.2849C45.0328 47.2849 44.6935 47.1503 44.4368 46.9085L38.5741 41.0482C38.5535 41.0245 38.5421 40.9942 38.5421 40.9628C38.5421 40.9314 38.5535 40.9011 38.5741 40.8774L39.765 39.6869L40.9559 38.496C40.9668 38.4844 40.9801 38.4754 40.9949 38.4695C41.0096 38.4636 41.0255 38.461 41.0413 38.4618C41.0585 38.4602 41.0758 38.4624 41.0919 38.4683C41.1081 38.4742 41.1228 38.4837 41.1349 38.496L46.987 44.3481C47.2381 44.6015 47.3792 44.9437 47.3796 45.3004C47.38 45.6572 47.2393 45.9997 46.9887 46.2536Z" fill="#F39C12"/>
</svg>
