<svg width="129" height="129" viewBox="0 0 129 129" fill="none" xmlns="http://www.w3.org/2000/svg">
<circle cx="64.4999" cy="64.3344" r="61.761" stroke="#FF7C7D" stroke-width="5.14675"/>
<g clip-path="url(#clip0_171_100)">
<path d="M64.0001 73.436C61.4006 73.436 59.2856 75.5505 59.2856 78.1505C59.2856 79.4645 59.8351 80.708 60.7816 81.5935V85.124C60.7816 85.8145 61.3411 86.374 62.0316 86.374H65.9681C66.6586 86.374 67.2181 85.8145 67.2181 85.124V81.5935C68.1651 80.708 68.7141 79.4645 68.7141 78.1505C68.7146 75.551 66.5996 73.436 64.0001 73.436ZM65.2571 79.972C64.9196 80.2055 64.7186 80.5895 64.7186 81V83.874H63.2821V81C63.2821 80.59 63.0811 80.2055 62.7436 79.972C62.1441 79.557 61.7861 78.8765 61.7861 78.1505C61.7861 76.9295 62.7791 75.936 64.0006 75.936C65.2221 75.936 66.2151 76.929 66.2151 78.1505C66.2146 78.876 65.8566 79.557 65.2571 79.972Z" fill="#881415"/>
<g clip-path="url(#clip1_171_100)">
<path d="M96.6838 102C97.0982 102 97.4956 101.837 97.7886 101.548C98.0816 101.259 98.2463 100.866 98.2463 100.457V81.0721C98.244 78.7132 97.4724 76.4177 96.0458 74.5257C94.6191 72.6337 92.6133 71.2457 90.3255 70.5674L75.7609 66.2309C74.7804 65.9402 73.9208 65.3453 73.3093 64.5344C72.6979 63.7236 72.3672 62.7398 72.3663 61.7288V51.9109H58.8291V61.7288C58.8281 62.7398 58.4974 63.7235 57.886 64.5344C57.2746 65.3453 56.415 65.9401 55.4345 66.2309L40.87 70.5674C38.5822 71.2457 36.5764 72.6336 35.1498 74.5256C33.7231 76.4176 32.9515 78.713 32.9492 81.0719V100.457C32.9492 100.866 33.1138 101.259 33.4069 101.548C33.6999 101.837 34.0973 102 34.5117 102L96.6838 102Z" fill="#FE5758"/>
<path d="M73.7257 65.0107C72.8551 64.1345 72.3671 62.9563 72.3663 61.7288V54.219L70.0218 51.9109H61.1738L58.8291 54.219V61.7288C58.8283 62.9563 58.3403 64.1345 57.4697 65.0107C59.6277 67.1351 62.5506 68.3281 65.5977 68.3281C68.6448 68.3281 71.5677 67.1351 73.7257 65.0107Z" fill="#F9ACAD"/>
<path d="M44.6865 102V68.7802C44.6865 68.649 44.7289 68.5212 44.8074 68.4154C44.8859 68.3096 44.9966 68.2312 45.1232 68.1917L49.3521 66.8728C49.4458 66.8436 49.5451 66.8366 49.642 66.8523C49.7389 66.8681 49.8307 66.9062 49.9099 66.9635C49.9891 67.0208 50.0535 67.0958 50.0979 67.1823C50.1423 67.2688 50.1655 67.3644 50.1654 67.4614L50.165 74.8853C50.165 75.1717 50.2802 75.4464 50.4853 75.649C50.6904 75.8516 50.9686 75.9653 51.2587 75.9653H79.9359C80.226 75.9653 80.5042 75.8516 80.7093 75.649C80.9144 75.4464 81.0296 75.1717 81.0296 74.8853V67.4614C81.0296 67.3644 81.0528 67.2688 81.0971 67.1823C81.1415 67.0958 81.206 67.0208 81.2852 66.9635C81.3644 66.9062 81.4562 66.8681 81.5531 66.8523C81.65 66.8366 81.7493 66.8436 81.8429 66.8728L86.0718 68.1917C86.1986 68.2312 86.3092 68.3096 86.3878 68.4154C86.4663 68.5212 86.5087 68.649 86.5087 68.7802V102L44.6865 102Z" fill="#D17A7B"/>
<path d="M44.6867 91.7649H32.9492V100.457C32.9492 100.866 33.1138 101.259 33.4069 101.548C33.6999 101.837 34.0973 102 34.5117 102H44.6867V91.7649Z" fill="#F9ACAD"/>
<path d="M63.0818 23.5944H68.114C69.6029 23.5943 71.0772 23.8839 72.4527 24.4465C73.8283 25.0092 75.0781 25.8338 76.1309 26.8735C77.1837 27.9131 78.0188 29.1473 78.5886 30.5057C79.1584 31.864 79.4516 33.3199 79.4516 34.7901V44.7242H51.7441V34.7903C51.7441 33.32 52.0374 31.8642 52.6072 30.5058C53.1769 29.1475 54.0121 27.9133 55.0649 26.8736C56.1177 25.834 57.3675 25.0093 58.7431 24.4467C60.1186 23.8841 61.5929 23.5943 63.0818 23.5944Z" fill="#881415"/>
<path d="M79.4518 34.7903C79.4545 32.6997 78.8614 30.6505 77.7404 28.877C76.8864 30.5757 75.6157 32.0365 74.0439 33.1263L74.7205 40.289L79.4518 42.8549V34.7903Z" fill="#472424"/>
<path d="M72.3664 61.7288V54.219L70.0219 51.9111H61.1739L58.8292 54.219V61.7288C58.829 61.8965 58.8197 62.0641 58.8013 62.2308C59.4248 62.7676 60.0862 63.2598 60.7806 63.7037C62.5416 64.8288 64.5942 65.4273 66.6916 65.4273C68.7889 65.4273 70.8416 64.8288 72.6025 63.7037C72.6566 63.6691 72.7089 63.6324 72.7625 63.5974C72.5014 63.0081 72.3666 62.372 72.3664 61.7288Z" fill="#E57B7C"/>
<path d="M77.9349 53.6719C76.5624 56.701 74.3304 59.2724 71.509 61.0751C69.748 62.2002 67.6954 62.7988 65.598 62.7988C63.5006 62.7988 61.4479 62.2002 59.687 61.0751C56.8655 59.2724 54.6335 56.701 53.2609 53.6719C52.261 51.4655 51.7441 49.0755 51.7441 46.6582V40.2754C54.1246 40.243 56.4972 39.9979 58.8329 39.5431C64.296 38.4595 69.4742 36.2752 74.044 33.1265L79.4518 40.2756V46.6584C79.4517 49.0756 78.9348 51.4657 77.9349 53.6721V53.6719Z" fill="#F9ACAD"/>
<path d="M67.7876 50.0899V51.1928C67.7876 51.7662 67.5569 52.3161 67.1464 52.7215C66.7358 53.1269 66.179 53.3547 65.5983 53.3547H65.5972C65.3097 53.3547 65.025 53.2988 64.7594 53.1902C64.4938 53.0815 64.2524 52.9223 64.0491 52.7215C63.8458 52.5208 63.6846 52.2825 63.5745 52.0202C63.4645 51.7579 63.4079 51.4767 63.4079 51.1928V50.0899C63.4079 49.9671 63.4573 49.8494 63.5452 49.7626C63.6331 49.6758 63.7523 49.627 63.8766 49.627H67.3188C67.4431 49.627 67.5624 49.6758 67.6503 49.7626C67.7382 49.8494 67.7876 49.9671 67.7876 50.0899ZM51.744 47.7616C50.6747 47.7615 49.6493 47.342 48.8932 46.5954C48.1371 45.8488 47.7124 44.8361 47.7124 43.7802C47.7124 42.983 48.0331 42.2185 48.6039 41.6547C49.1748 41.091 49.949 40.7743 50.7563 40.7742H51.744V47.7616ZM79.4516 47.7616V40.7742H80.4391C81.2464 40.7742 82.0207 41.0909 82.5915 41.6546C83.1624 42.2183 83.4831 42.9829 83.4832 43.7801C83.4832 44.836 83.0584 45.8487 82.3023 46.5953C81.5462 47.342 80.5207 47.7614 79.4515 47.7614L79.4516 47.7616Z" fill="#E57B7C"/>
<path d="M82.5659 67.4373H101.286C102.284 67.4373 103.242 67.829 103.948 68.5263C104.654 69.2235 105.051 70.1692 105.051 71.1553V93.2051C105.051 95.5376 104.112 97.7746 102.442 99.424C100.772 101.073 98.5066 102 96.1445 102H87.707C85.3449 102 83.0796 101.073 81.4094 99.424C79.7391 97.7746 78.8008 95.5376 78.8008 93.2051V71.1553C78.8008 70.667 78.8982 70.1835 79.0874 69.7325C79.2767 69.2814 79.554 68.8716 79.9036 68.5263C80.2533 68.1811 80.6683 67.9072 81.1251 67.7204C81.5819 67.5336 82.0715 67.4375 82.5659 67.4375V67.4373Z" fill="#815959"/>
<path d="M99.8945 71.7576H83.957C83.5256 71.7576 83.1758 72.103 83.1758 72.5291V77.7339C83.1758 78.1599 83.5256 78.5053 83.957 78.5053H99.8945C100.326 78.5053 100.676 78.1599 100.676 77.7339V72.5291C100.676 72.103 100.326 71.7576 99.8945 71.7576Z" fill="#FFD2D2"/>
<path d="M78.8008 85.4029H105.051V89.0088H78.8008V85.4029Z" fill="#D3A4A4"/>
<path d="M71.6075 43.8333C71.4624 43.8333 71.3233 43.8902 71.2208 43.9915C71.1182 44.0928 71.0606 44.2301 71.0606 44.3734V45.6386C71.0606 45.7818 71.1182 45.9192 71.2208 46.0205C71.3233 46.1217 71.4624 46.1786 71.6075 46.1786C71.7525 46.1786 71.8916 46.1217 71.9942 46.0205C72.0967 45.9192 72.1543 45.7818 72.1543 45.6386V44.3734C72.1543 44.2301 72.0967 44.0928 71.9942 43.9915C71.8916 43.8902 71.7525 43.8333 71.6075 43.8333ZM82.6726 96.1162C82.7808 96.1162 82.8865 96.0845 82.9764 96.0252C83.0664 95.9658 83.1365 95.8815 83.1779 95.7828C83.2192 95.6841 83.2301 95.5756 83.209 95.4708C83.1879 95.366 83.1358 95.2698 83.0593 95.1943C82.9828 95.1188 82.8854 95.0673 82.7793 95.0465C82.6732 95.0257 82.5633 95.0364 82.4633 95.0772C82.3634 95.1181 82.278 95.1873 82.2179 95.2761C82.1578 95.3649 82.1257 95.4694 82.1257 95.5762C82.1257 95.7194 82.1834 95.8568 82.2859 95.958C82.3885 96.0593 82.5276 96.1162 82.6726 96.1162ZM99.8945 70.6777H83.957C83.6049 70.6781 83.2673 70.8165 83.0183 71.0623C82.7693 71.3082 82.6293 71.6416 82.6289 71.9893V77.194C82.6293 77.5417 82.7693 77.8751 83.0183 78.1209C83.2673 78.3668 83.6049 78.5051 83.957 78.5055H99.8945C100.247 78.5051 100.584 78.3668 100.833 78.1209C101.082 77.8751 101.222 77.5417 101.223 77.194V71.9893C101.222 71.6416 101.082 71.3082 100.833 71.0623C100.584 70.8165 100.247 70.6781 99.8945 70.6777ZM100.129 77.194C100.129 77.2554 100.104 77.3142 100.06 77.3576C100.016 77.401 99.9566 77.4254 99.8945 77.4254H83.957C83.8949 77.4254 83.8353 77.401 83.7913 77.3576C83.7474 77.3142 83.7227 77.2554 83.7226 77.194V71.9893C83.7227 71.9279 83.7474 71.8691 83.7913 71.8257C83.8353 71.7823 83.8949 71.7579 83.957 71.7578H99.8945C99.9566 71.7579 100.016 71.7823 100.06 71.8257C100.104 71.8691 100.129 71.9279 100.129 71.9893V77.194ZM101.286 66.3574H82.5656C81.7547 66.3568 80.9602 66.5834 80.2745 67.0109L75.9185 65.7139C75.2566 65.5182 74.6531 65.1658 74.1604 64.6875C74.1459 64.6671 74.13 64.6478 74.1128 64.6296C74.1018 64.6187 74.089 64.6108 74.0773 64.6009C73.3272 63.8284 72.9097 62.7988 72.9125 61.7285V60.7609C74.8942 59.2745 76.541 57.397 77.7479 55.2479C78.9548 53.0988 79.6955 50.7251 79.9228 48.2778C81.049 48.1613 82.0916 47.6373 82.85 46.8069C83.6083 45.9765 84.0286 44.8983 84.03 43.7801C84.0288 42.84 83.6501 41.9387 82.9769 41.274C82.3037 40.6093 81.391 40.2354 80.439 40.2343H79.9982V34.7903C80.0005 32.6196 79.3893 30.4914 78.2334 28.6451C78.212 28.5989 78.1842 28.556 78.1506 28.5175C77.0796 26.8452 75.5978 25.4674 73.843 24.5123C72.0882 23.5572 70.1173 23.0557 68.1136 23.0546H63.0814C59.9305 23.0582 56.9098 24.2958 54.6818 26.4959C52.4538 28.696 51.2006 31.679 51.197 34.7904V40.2342H50.7561C49.804 40.2353 48.8913 40.6093 48.2181 41.2741C47.5449 41.9389 47.1663 42.8403 47.1653 43.7804C47.1667 44.8985 47.5871 45.9766 48.3454 46.807C49.1037 47.6374 50.1463 48.1613 51.2725 48.2778C51.4998 50.725 52.2404 53.0987 53.4473 55.2478C54.6542 57.397 56.3009 59.2745 58.2826 60.7609V61.7285C58.2854 62.7991 57.8675 63.829 57.117 64.6015C57.1056 64.6111 57.0932 64.6188 57.0825 64.6296C57.0655 64.6474 57.0499 64.6663 57.0356 64.6862C56.5427 65.1652 55.9387 65.518 55.2762 65.7139L50.6503 67.0917C50.5522 66.8045 50.3439 66.5668 50.0702 66.4295C49.7965 66.2923 49.4792 66.2666 49.1865 66.3579L44.9598 67.6767C44.7214 67.7496 44.5131 67.8961 44.3653 68.0947C44.2175 68.2933 44.1382 68.5335 44.1389 68.7799V69.0312L40.7123 70.0511C38.3118 70.7629 36.2073 72.2191 34.7104 74.2042C33.2136 76.1893 32.4039 78.5977 32.4014 81.0727V101.46C32.4014 101.603 32.459 101.741 32.5615 101.842C32.6641 101.943 32.8032 102 32.9482 102C33.0933 102 33.2324 101.943 33.3349 101.842C33.4375 101.741 33.4951 101.603 33.4951 101.46V92.3052H44.1389V101.46C44.1389 101.603 44.1965 101.741 44.299 101.842C44.4016 101.943 44.5407 102 44.6857 102C44.8308 102 44.9699 101.943 45.0724 101.842C45.175 101.741 45.2326 101.603 45.2326 101.46V91.7712C45.2326 91.769 45.2332 91.7672 45.2332 91.7652C45.2332 91.7632 45.2326 91.7613 45.2326 91.7592V68.7799C45.233 68.7635 45.2386 68.7477 45.2485 68.7346C45.2585 68.7215 45.2723 68.7118 45.2881 68.7069L49.5151 67.3881C49.5271 67.3841 49.5399 67.383 49.5524 67.385C49.5649 67.387 49.5766 67.3921 49.5867 67.3997C49.5968 67.4067 49.605 67.4161 49.6106 67.427C49.6162 67.4379 49.6189 67.45 49.6186 67.4622V74.8854C49.619 75.315 49.792 75.7268 50.0996 76.0305C50.4072 76.3342 50.8242 76.5051 51.2592 76.5055H78.2539V92.665C78.2568 95.14 79.2536 97.5127 81.0258 99.2627C82.798 101.013 85.2008 101.997 87.707 102H96.1445C98.6507 101.997 101.053 101.013 102.826 99.2627C104.598 97.5127 105.595 95.14 105.598 92.665V70.6156C105.596 69.4866 105.142 68.4043 104.333 67.6061C103.525 66.8078 102.429 66.3587 101.286 66.3574H101.286ZM79.9984 46.6583V41.3143H80.4392C81.1012 41.315 81.736 41.5751 82.2041 42.0374C82.6723 42.4997 82.9356 43.1265 82.9364 43.7802C82.9353 44.6005 82.638 45.3934 82.098 46.0167C81.558 46.6399 80.8106 47.0525 79.9901 47.1803C79.9951 47.0067 79.9984 46.8327 79.9984 46.6583ZM48.2593 43.7802C48.2601 43.1265 48.5234 42.4997 48.9915 42.0374C49.4596 41.5751 50.0943 41.315 50.7564 41.3143H51.1973V46.6583C51.1973 46.8327 51.2004 47.0067 51.2054 47.1803C50.385 47.0524 49.6376 46.6398 49.0976 46.0166C48.5576 45.3934 48.2604 44.6005 48.2593 43.7802ZM44.139 91.2251H33.4953V81.0727C33.4877 78.8273 34.2178 76.6401 35.576 74.8393C36.9343 73.0385 38.8473 71.7213 41.0281 71.0854L44.139 70.1595V91.2251ZM78.9046 34.7904V38.6502L74.8103 33.2374C75.4488 32.7497 76.0362 32.1999 76.5636 31.5963C77.0012 31.0942 77.3956 30.5568 77.7428 29.9898C78.5077 31.4773 78.9058 33.1222 78.9046 34.7904ZM52.2909 34.7904C52.2942 31.9653 53.4321 29.2569 55.4551 27.2592C57.478 25.2616 60.2208 24.1379 63.0817 24.1347H68.1139C69.8958 24.1354 71.6497 24.572 73.2191 25.4054C74.7884 26.2389 76.1243 27.4432 77.1073 28.9108C76.2977 30.4135 75.1406 31.7064 73.73 32.6844C69.2256 35.7953 64.1171 37.9503 58.7268 39.0134C56.6051 39.4253 54.4524 39.6622 52.2909 39.7216V34.7904ZM53.76 53.4514C52.7885 51.3154 52.2878 48.9999 52.2911 46.6583V40.8043C54.5236 40.7438 56.7472 40.4992 58.9386 40.073C64.3034 39.0168 69.3983 36.9055 73.9198 33.8648L78.9046 40.455V46.6583C78.9047 49.435 78.2008 52.1675 76.857 54.6065C75.5133 57.0455 73.5725 59.1135 71.2117 60.6217C69.5386 61.6885 67.5893 62.2559 65.5978 62.2559C63.6062 62.2559 61.657 61.6885 59.9839 60.6217C57.2497 58.8775 55.0875 56.3863 53.76 53.4514ZM59.3765 61.7285V61.5199L59.3895 61.5286C61.2397 62.7083 63.3953 63.3358 65.5976 63.3358C67.8 63.3358 69.9556 62.7083 71.8057 61.5286L71.8187 61.5199V61.7285C71.8153 62.9098 72.2176 64.0572 72.9601 64.9834C70.941 66.7832 68.3176 67.7794 65.5976 67.7794C62.8776 67.7794 60.2542 66.7832 58.2351 64.9834C58.9776 64.0572 59.38 62.9098 59.3765 61.7285ZM78.254 70.6156V75.4255H51.2593C51.1143 75.4253 50.9753 75.3683 50.8728 75.2671C50.7703 75.1659 50.7126 75.0286 50.7125 74.8854V68.2013L55.5921 66.7478C56.2794 66.5446 56.9183 66.2072 57.4711 65.7557C59.6945 67.7528 62.5921 68.8595 65.5977 68.8595C68.6033 68.8595 71.5009 67.7528 73.7243 65.7557C74.277 66.2072 74.9158 66.5445 75.6029 66.7478L79.2939 67.8469C78.6224 68.6168 78.2534 69.5994 78.254 70.6156ZM104.504 92.665C104.502 94.8536 103.62 96.9519 102.053 98.4994C100.486 100.047 98.3609 100.917 96.1446 100.92H87.7071C85.4909 100.917 83.3661 100.047 81.7989 98.4994C80.2318 96.9519 79.3503 94.8536 79.3478 92.665V89.009H104.504V92.665ZM104.504 87.9289H79.3478V85.4031H104.504V87.9289ZM104.504 84.323H79.3478V75.9729C79.3478 75.9703 79.3484 75.968 79.3484 75.9655C79.3484 75.963 79.3478 75.9606 79.3478 75.9579V70.6156C79.3487 69.7731 79.688 68.9653 80.2913 68.3695C80.8945 67.7738 81.7124 67.4386 82.5656 67.4375H101.286C102.139 67.4384 102.957 67.7736 103.561 68.3694C104.164 68.9652 104.503 69.773 104.504 70.6156L104.504 84.323ZM65.5978 53.8949C66.3232 53.8941 67.0188 53.6092 67.5318 53.1027C68.0448 52.5962 68.3334 51.9094 68.3343 51.193V50.2518C68.3343 50.1085 68.2767 49.9712 68.1742 49.8699C68.0716 49.7686 67.9325 49.7117 67.7875 49.7117C67.6424 49.7117 67.5033 49.7686 67.4008 49.8699C67.2982 49.9712 67.2406 50.1085 67.2406 50.2518V51.193C67.2406 51.6233 67.0675 52.0359 66.7594 52.3402C66.4513 52.6445 66.0334 52.8154 65.5976 52.8154C65.1619 52.8154 64.744 52.6445 64.4359 52.3402C64.1277 52.0359 63.9546 51.6233 63.9546 51.193V50.2518C63.9546 50.1085 63.897 49.9712 63.7945 49.8699C63.6919 49.7686 63.5528 49.7117 63.4078 49.7117C63.2627 49.7117 63.1236 49.7686 63.0211 49.8699C62.9185 49.9712 62.8609 50.1085 62.8609 50.2518V51.193C62.8618 51.9094 63.1505 52.5963 63.6636 53.1028C64.1766 53.6093 64.8723 53.8942 65.5978 53.8949ZM102.292 69.1142C102.184 69.1142 102.078 69.1459 101.988 69.2053C101.898 69.2646 101.828 69.3489 101.787 69.4476C101.745 69.5463 101.735 69.6549 101.756 69.7596C101.777 69.8644 101.829 69.9606 101.905 70.0362C101.982 70.1117 102.079 70.1631 102.185 70.1839C102.291 70.2048 102.401 70.1941 102.501 70.1532C102.601 70.1123 102.687 70.0431 102.747 69.9543C102.807 69.8655 102.839 69.7611 102.839 69.6543C102.839 69.5111 102.781 69.3737 102.679 69.2724C102.576 69.1711 102.437 69.1142 102.292 69.1142ZM69.5943 43.1646C69.6654 43.1646 69.7359 43.1508 69.8017 43.1242C70.9586 42.6543 72.2566 42.6543 73.4136 43.1242C73.5474 43.1768 73.6969 43.1752 73.8296 43.1196C73.9622 43.064 74.0673 42.9589 74.1219 42.8272C74.1766 42.6955 74.1764 42.5479 74.1214 42.4164C74.0664 42.2848 73.961 42.18 73.8282 42.1248C72.4055 41.5472 70.8094 41.5472 69.3867 42.1248C69.2693 42.1722 69.1722 42.2583 69.1121 42.3686C69.0519 42.4789 69.0324 42.6063 69.057 42.7292C69.0815 42.8521 69.1485 42.9627 69.2465 43.0421C69.3446 43.1216 69.4675 43.1649 69.5943 43.1648V43.1646ZM101.179 96.1162C101.287 96.1162 101.393 96.0845 101.483 96.0252C101.573 95.9658 101.643 95.8815 101.684 95.7828C101.726 95.6841 101.736 95.5756 101.715 95.4708C101.694 95.366 101.642 95.2698 101.566 95.1943C101.489 95.1188 101.392 95.0673 101.286 95.0465C101.18 95.0257 101.07 95.0364 100.97 95.0772C100.87 95.1181 100.784 95.1873 100.724 95.2761C100.664 95.3649 100.632 95.4694 100.632 95.5762C100.632 95.7194 100.69 95.8568 100.792 95.958C100.895 96.0593 101.034 96.1162 101.179 96.1162ZM95.0103 96.1162C95.1184 96.1162 95.2242 96.0845 95.3141 96.0252C95.404 95.9658 95.4741 95.8815 95.5155 95.7828C95.5569 95.6841 95.5677 95.5756 95.5466 95.4708C95.5255 95.366 95.4734 95.2698 95.397 95.1943C95.3205 95.1188 95.223 95.0673 95.117 95.0465C95.0109 95.0257 94.9009 95.0364 94.801 95.0772C94.7011 95.1181 94.6156 95.1873 94.5556 95.2761C94.4955 95.3649 94.4634 95.4694 94.4634 95.5762C94.4634 95.7194 94.521 95.8568 94.6236 95.958C94.7261 96.0593 94.8652 96.1162 95.0103 96.1162ZM88.8414 96.1162C88.9495 96.1162 89.0553 96.0845 89.1452 96.0252C89.2351 95.9658 89.3052 95.8815 89.3466 95.7828C89.388 95.6841 89.3988 95.5756 89.3777 95.4708C89.3566 95.366 89.3045 95.2698 89.2281 95.1943C89.1516 95.1188 89.0541 95.0673 88.948 95.0465C88.842 95.0257 88.732 95.0364 88.6321 95.0772C88.5322 95.1181 88.4467 95.1873 88.3867 95.2761C88.3266 95.3649 88.2945 95.4694 88.2945 95.5762C88.2945 95.7194 88.3521 95.8568 88.4547 95.958C88.5572 96.0593 88.6963 96.1162 88.8414 96.1162ZM61.3937 43.1242C61.4602 43.1511 61.5313 43.1648 61.6031 43.1645C61.675 43.1643 61.746 43.15 61.8123 43.1227C61.8785 43.0953 61.9387 43.0553 61.9893 43.0049C62.0398 42.9546 62.0799 42.8949 62.1071 42.8293C62.1344 42.7637 62.1483 42.6934 62.148 42.6225C62.1477 42.5516 62.1333 42.4814 62.1056 42.416C62.0779 42.3506 62.0374 42.2912 61.9864 42.2412C61.9354 42.1913 61.875 42.1517 61.8086 42.1248C60.3858 41.5471 58.7896 41.5471 57.3668 42.1248C57.2326 42.1792 57.1258 42.284 57.0698 42.4162C57.0139 42.5483 57.0134 42.697 57.0685 42.8295C57.1235 42.9621 57.2297 43.0676 57.3635 43.1228C57.4974 43.1781 57.6479 43.1786 57.7821 43.1242C58.939 42.6543 60.2369 42.6543 61.3937 43.1242ZM81.5981 69.1142C81.4899 69.1142 81.3842 69.1459 81.2943 69.2053C81.2043 69.2646 81.1342 69.3489 81.0928 69.4476C81.0514 69.5463 81.0406 69.6549 81.0617 69.7596C81.0828 69.8644 81.1349 69.9606 81.2114 70.0362C81.2879 70.1117 81.3853 70.1631 81.4914 70.1839C81.5975 70.2048 81.7074 70.1941 81.8074 70.1532C81.9073 70.1123 81.9927 70.0431 82.0528 69.9543C82.1129 69.8655 82.145 69.7611 82.145 69.6543C82.145 69.5111 82.0873 69.3737 81.9848 69.2724C81.8822 69.1711 81.7431 69.1142 81.5981 69.1142ZM62.9125 57.1863C63.7523 57.578 64.6693 57.7817 65.5981 57.783H65.6168C66.5389 57.7788 67.4489 57.5751 68.2828 57.1863C68.3477 57.156 68.4059 57.1133 68.4541 57.0607C68.5023 57.0081 68.5395 56.9467 68.5637 56.8799C68.5878 56.8131 68.5984 56.7423 68.5948 56.6714C68.5913 56.6006 68.5736 56.5312 68.5428 56.4671C68.5121 56.403 68.4689 56.3455 68.4156 56.2979C68.3624 56.2503 68.3002 56.2135 68.2325 56.1897C68.1649 56.1659 68.0932 56.1554 68.0214 56.1589C67.9497 56.1624 67.8794 56.1799 67.8145 56.2102C67.1261 56.5313 66.3747 56.6995 65.6134 56.7029H65.5981C64.8313 56.7019 64.0742 56.5337 63.3809 56.2102C63.316 56.1799 63.2456 56.1624 63.1739 56.1589C63.1022 56.1554 63.0304 56.1658 62.9628 56.1897C62.8951 56.2135 62.8329 56.2503 62.7796 56.2979C62.7264 56.3455 62.6831 56.403 62.6524 56.4671C62.6216 56.5312 62.604 56.6006 62.6004 56.6715C62.5968 56.7423 62.6074 56.8132 62.6315 56.88C62.6557 56.9468 62.6929 57.0082 62.7411 57.0608C62.7893 57.1134 62.8475 57.1561 62.9125 57.1865V57.1863ZM60.1346 44.3735C60.1346 44.2303 60.077 44.0929 59.9745 43.9917C59.8719 43.8904 59.7328 43.8335 59.5878 43.8335C59.4427 43.8335 59.3036 43.8904 59.2011 43.9917C59.0985 44.0929 59.0409 44.2303 59.0409 44.3735V45.6388C59.0409 45.782 59.0985 45.9193 59.2011 46.0206C59.3036 46.1219 59.4427 46.1788 59.5878 46.1788C59.7328 46.1788 59.8719 46.1219 59.9745 46.0206C60.077 45.9193 60.1346 45.782 60.1346 45.6388V44.3735Z" fill="black"/>
</g>
</g>
<defs>
<clipPath id="clip0_171_100">
<rect width="80" height="80" fill="white" transform="translate(24 24)"/>
</clipPath>
<clipPath id="clip1_171_100">
<rect width="80" height="79" fill="white" transform="translate(29 23)"/>
</clipPath>
</defs>
</svg>
