<svg width="35" height="36" viewBox="0 0 35 36" fill="none" xmlns="http://www.w3.org/2000/svg">
<path d="M25.6703 21.1428C25.3186 20.967 23.0329 19.912 22.6813 19.7362C22.3296 19.5604 21.978 19.5604 21.6263 19.912C21.2747 20.2637 20.5714 21.3186 20.2197 21.6703C20.0439 22.0219 19.6923 22.0219 19.3406 21.8461C18.1099 21.3186 16.8791 20.6153 15.8241 19.7362C14.945 18.8571 14.0659 17.8022 13.3626 16.7472C13.1868 16.3956 13.3626 16.0439 13.5384 15.8681C13.7143 15.6923 13.8901 15.3406 14.2417 15.1648C14.4176 14.989 14.5934 14.6373 14.5934 14.4615C14.7692 14.2857 14.7692 13.934 14.5934 13.7582C14.4176 13.5824 13.5384 11.4725 13.1868 10.5934C13.011 9.36262 12.6593 9.36262 12.3077 9.36262H11.4286C11.0769 9.36262 10.5494 9.71427 10.3736 9.89009C9.31866 10.945 8.79119 12.1758 8.79119 13.5824C8.96702 15.1648 9.49449 16.7472 10.5494 18.1538C12.4835 20.967 14.945 23.2527 17.934 24.6593C18.8132 25.0109 19.5164 25.3626 20.3956 25.5384C21.2747 25.8901 22.1538 25.8901 23.2087 25.7142C24.4395 25.5384 25.4945 24.6593 26.1978 23.6043C26.5494 22.9011 26.5494 22.1978 26.3736 21.4945L25.6703 21.1428ZM30.0659 5.14285C23.2087 -1.71428 12.1318 -1.71428 5.27472 5.14285C-0.351648 10.7692 -1.40659 19.3846 2.46153 26.2417L0 35.2087L9.31866 32.7472C11.956 34.1538 14.7692 34.8571 17.5824 34.8571C27.2527 34.8571 34.9889 27.1208 34.9889 17.4505C35.1648 12.8791 33.2307 8.4835 30.0659 5.14285ZM25.3186 29.7582C23.0329 31.1648 20.3956 32.0439 17.5824 32.0439C14.945 32.0439 12.4835 31.3406 10.1978 30.1098L9.67031 29.7582L4.21977 31.1648L5.62636 25.8901L5.27472 25.3626C1.05494 18.3296 3.16483 9.53844 10.022 5.14285C16.8791 0.747252 25.6703 3.03296 29.8901 9.71427C34.1098 16.5714 32.1758 25.5384 25.3186 29.7582Z" fill="white"/>
</svg>
