<svg width="52" height="52" viewBox="0 0 52 52" fill="none" xmlns="http://www.w3.org/2000/svg">
<rect width="52" height="52" rx="26" fill="white"/>
<g clip-path="url(#clip0_17_4735)">
<path d="M26.003 14.3H25.9971C19.5461 14.3 14.3001 19.5475 14.3001 26C14.2961 28.4644 15.0761 30.8661 16.5275 32.8577L15.0693 37.2043L19.5665 35.7666C21.4742 37.0322 23.7137 37.705 26.003 37.7C32.4541 37.7 37.7001 32.4511 37.7001 26C37.7001 19.549 32.4541 14.3 26.003 14.3Z" fill="black"/>
<path d="M32.811 30.8219C32.5287 31.619 31.4084 32.2801 30.5148 32.4731C29.9035 32.6033 29.105 32.7071 26.4169 31.5927C22.9786 30.1682 20.7643 26.6743 20.5918 26.4476C20.4265 26.2209 19.2024 24.5975 19.2024 22.9186C19.2024 21.2396 20.055 20.4221 20.3987 20.0711C20.681 19.783 21.1475 19.6514 21.595 19.6514C21.7398 19.6514 21.87 19.6587 21.987 19.6645C22.3307 19.6792 22.5033 19.6996 22.7299 20.2422C23.0122 20.9223 23.6996 22.6012 23.7815 22.7738C23.8648 22.9464 23.9482 23.1804 23.8312 23.4071C23.7215 23.6411 23.625 23.7449 23.4524 23.9438C23.2798 24.1427 23.116 24.2948 22.9435 24.5083C22.7855 24.6941 22.6071 24.893 22.806 25.2367C23.0049 25.573 23.6923 26.6948 24.7043 27.5957C26.0103 28.7584 27.0692 29.1298 27.448 29.2878C27.7302 29.4048 28.0666 29.377 28.2728 29.1576C28.5346 28.8754 28.8578 28.4074 29.1869 27.9467C29.4209 27.6161 29.7163 27.5752 30.0264 27.6922C30.3423 27.8019 32.0139 28.6282 32.3576 28.7993C32.7013 28.9719 32.928 29.0538 33.0113 29.1986C33.0932 29.3434 33.0932 30.0234 32.811 30.8219Z" fill="#FAFAFA"/>
</g>
<defs>
<clipPath id="clip0_17_4735">
<rect width="23.4" height="23.4" fill="white" transform="translate(14.3 14.3)"/>
</clipPath>
</defs>
</svg>
